LilGrotesk-Regular.ufo
<glyph name="exclam" format="2">
  <advance width="228"/>
  <unicode hex="0021"/>
  <outline>
    <contour>
      <point x="80" y="241" type="line"/>
      <point x="148" y="241" type="line"/>
      <point x="163" y="708" type="line"/>
      <point x="65" y="708" type="line"/>
    </contour>
    <component base="period" xOffset="20"/>
  </outline>
</glyph>
<glyph name="quotedbl" format="2">
  <advance width="360.0"/>
  <unicode hex="0022"/>
  <note>
quotedbl
</note>
  <outline>
    <contour>
      <point x="77.0" y="548.0" type="line"/>
      <point x="87.0" y="766.0" type="line"/>
      <point x="11.0" y="766.0" type="line"/>
      <point x="27.0" y="548.0" type="line"/>
    </contour>
    <contour>
      <point x="300.0" y="548.0" type="line"/>
      <point x="310.0" y="766.0" type="line"/>
      <point x="234.0" y="766.0" type="line"/>
      <point x="250.0" y="548.0" type="line"/>
    </contour>
  </outline>
</glyph>
<glyph name="numbersign" format="2">
  <advance width="678"/>
  <unicode hex="0023"/>
  <outline>
    <contour>
      <point x="76" y="0" type="line"/>
      <point x="149" y="0" type="line"/>
      <point x="197" y="180" type="line"/>
      <point x="383" y="180" type="line"/>
      <point x="334" y="1" type="line"/>
      <point x="406" y="1" type="line"/>
      <point x="455" y="180" type="line"/>
      <point x="585" y="180" type="line"/>
      <point x="585" y="244" type="line"/>
      <point x="473" y="244" type="line"/>
      <point x="537" y="480" type="line"/>
      <point x="666" y="480" type="line"/>
      <point x="666" y="544" type="line"/>
      <point x="555" y="544" type="line"/>
      <point x="610" y="747" type="line"/>
      <point x="538" y="747" type="line"/>
      <point x="483" y="544" type="line"/>
      <point x="296" y="544" type="line"/>
      <point x="349" y="740" type="line"/>
      <point x="276" y="740" type="line"/>
      <point x="223" y="544" type="line"/>
      <point x="93" y="544" type="line"/>
      <point x="93" y="480" type="line"/>
      <point x="206" y="480" type="line"/>
      <point x="142" y="244" type="line"/>
      <point x="12" y="244" type="line"/>
      <point x="12" y="180" type="line"/>
      <point x="125" y="180" type="line"/>
    </contour>
    <contour>
      <point x="215" y="244" type="line"/>
      <point x="278" y="480" type="line"/>
      <point x="465" y="480" type="line"/>
      <point x="400" y="244" type="line"/>
    </contour>
  </outline>
</glyph>
<glyph name="dollar" format="2">
  <advance width="600.0"/>
  <unicode hex="0024"/>
  <note>
dollar
</note>
  <outline>
    <contour>
      <point x="431.0" y="592.0" type="curve"/>
      <point x="486.0" y="632.0" type="line"/>
      <point x="486.0" y="632.0"/>
      <point x="430.0" y="705.0"/>
      <point x="329.0" y="728.0" type="curve"/>
      <point x="329.0" y="810.0" type="line"/>
      <point x="259.0" y="810.0" type="line"/>
      <point x="259.0" y="734.0" type="line"/>
      <point x="142.0" y="729.0"/>
      <point x="58.0" y="640.0"/>
      <point x="67.0" y="527.0" type="curve" smooth="yes"/>
      <point x="77.0" y="415.0"/>
      <point x="189.0" y="367.0"/>
      <point x="268.0" y="338.0" type="curve" smooth="yes"/>
      <point x="294.0" y="328.0" type="line" smooth="yes"/>
      <point x="351.0" y="307.0"/>
      <point x="463.0" y="277.0"/>
      <point x="463.0" y="171.0" type="curve" smooth="yes"/>
      <point x="463.0" y="73.0"/>
      <point x="377.0" y="32.0"/>
      <point x="284.0" y="32.0" type="curve" smooth="yes"/>
      <point x="184.0" y="32.0"/>
      <point x="116.0" y="92.0"/>
      <point x="92.0" y="133.0" type="curve"/>
      <point x="32.0" y="100.0" type="line"/>
      <point x="59.0" y="55.0"/>
      <point x="142.0" y="-21.0"/>
      <point x="259.0" y="-31.0" type="curve"/>
      <point x="259.0" y="-107.0" type="line"/>
      <point x="329.0" y="-107.0" type="line"/>
      <point x="329.0" y="-29.0" type="line"/>
      <point x="432.0" y="-16.0"/>
      <point x="533.0" y="44.0"/>
      <point x="533.0" y="171.0" type="curve" smooth="yes"/>
      <point x="533.0" y="325.0"/>
      <point x="374.0" y="367.0"/>
      <point x="318.0" y="388.0" type="curve" smooth="yes"/>
      <point x="292.0" y="398.0" type="line" smooth="yes"/>
      <point x="219.0" y="425.0"/>
      <point x="143.0" y="459.0"/>
      <point x="137.0" y="532.0" type="curve" smooth="yes"/>
      <point x="130.0" y="612.0"/>
      <point x="195.0" y="675.0"/>
      <point x="281.0" y="670.0" type="curve" smooth="yes"/>
      <point x="375.0" y="665.0"/>
      <point x="431.0" y="592.0"/>
    </contour>
  </outline>
</glyph>
<glyph name="percent" format="2">
  <advance width="675.0"/>
  <unicode hex="0025"/>
  <note>
percent
</note>
  <outline>
    <contour>
      <point x="188.0" y="356.0" type="curve" smooth="yes"/>
      <point x="256.0" y="356.0"/>
      <point x="313.0" y="418.0"/>
      <point x="313.0" y="535.0" type="curve" smooth="yes"/>
      <point x="313.0" y="652.0"/>
      <point x="256.0" y="711.0"/>
      <point x="188.0" y="711.0" type="curve" smooth="yes"/>
      <point x="120.0" y="711.0"/>
      <point x="63.0" y="652.0"/>
      <point x="63.0" y="535.0" type="curve" smooth="yes"/>
      <point x="63.0" y="418.0"/>
      <point x="120.0" y="356.0"/>
    </contour>
    <contour>
      <point x="156.0" y="0.0" type="line"/>
      <point x="630.0" y="711.0" type="line"/>
      <point x="549.0" y="711.0" type="line"/>
      <point x="74.0" y="0.0" type="line"/>
    </contour>
    <contour>
      <point x="188.0" y="420.0" type="curve" smooth="yes"/>
      <point x="163.0" y="420.0"/>
      <point x="133.0" y="452.0"/>
      <point x="133.0" y="535.0" type="curve" smooth="yes"/>
      <point x="133.0" y="617.0"/>
      <point x="162.0" y="647.0"/>
      <point x="188.0" y="647.0" type="curve" smooth="yes"/>
      <point x="214.0" y="647.0"/>
      <point x="243.0" y="617.0"/>
      <point x="243.0" y="535.0" type="curve" smooth="yes"/>
      <point x="243.0" y="452.0"/>
      <point x="213.0" y="420.0"/>
    </contour>
    <contour>
      <point x="507.0" y="-4.0" type="curve" smooth="yes"/>
      <point x="575.0" y="-4.0"/>
      <point x="632.0" y="57.0"/>
      <point x="632.0" y="175.0" type="curve" smooth="yes"/>
      <point x="632.0" y="292.0"/>
      <point x="575.0" y="351.0"/>
      <point x="507.0" y="351.0" type="curve" smooth="yes"/>
      <point x="439.0" y="351.0"/>
      <point x="382.0" y="292.0"/>
      <point x="382.0" y="175.0" type="curve" smooth="yes"/>
      <point x="382.0" y="57.0"/>
      <point x="439.0" y="-4.0"/>
    </contour>
    <contour>
      <point x="507.0" y="60.0" type="curve" smooth="yes"/>
      <point x="482.0" y="60.0"/>
      <point x="452.0" y="92.0"/>
      <point x="452.0" y="175.0" type="curve" smooth="yes"/>
      <point x="452.0" y="256.0"/>
      <point x="481.0" y="287.0"/>
      <point x="507.0" y="287.0" type="curve" smooth="yes"/>
      <point x="533.0" y="287.0"/>
      <point x="562.0" y="256.0"/>
      <point x="562.0" y="175.0" type="curve" smooth="yes"/>
      <point x="562.0" y="92.0"/>
      <point x="532.0" y="60.0"/>
    </contour>
  </outline>
</glyph>
<glyph name="ampersand" format="2">
  <advance width="692.0"/>
  <unicode hex="0026"/>
  <note>
ampersand
</note>
  <outline>
    <contour>
      <point x="491.0" y="93.0" type="curve"/>
      <point x="584.0" y="0.0" type="line"/>
      <point x="678.0" y="0.0" type="line"/>
      <point x="527.0" y="153.0" type="line"/>
      <point x="555.0" y="213.0"/>
      <point x="565.0" y="277.0"/>
      <point x="565.0" y="327.0" type="curve"/>
      <point x="495.0" y="327.0" type="line"/>
      <point x="495.0" y="290.0"/>
      <point x="490.0" y="247.0"/>
      <point x="476.0" y="205.0" type="curve"/>
      <point x="395.0" y="288.0"/>
      <point x="316.0" y="369.0"/>
      <point x="292.0" y="395.0" type="curve"/>
      <point x="301.0" y="398.0" type="line" smooth="yes"/>
      <point x="390.0" y="428.0"/>
      <point x="459.0" y="466.0"/>
      <point x="477.0" y="548.0" type="curve" smooth="yes"/>
      <point x="501.0" y="658.0"/>
      <point x="410.0" y="725.0"/>
      <point x="331.0" y="725.0" type="curve" smooth="yes"/>
      <point x="255.0" y="725.0"/>
      <point x="177.0" y="677.0"/>
      <point x="161.0" y="585.0" type="curve" smooth="yes"/>
      <point x="150.0" y="522.0"/>
      <point x="168.0" y="465.0"/>
      <point x="190.0" y="423.0" type="curve"/>
      <point x="102.0" y="380.0"/>
      <point x="39.0" y="322.0"/>
      <point x="22.0" y="243.0" type="curve" smooth="yes"/>
      <point x="-10.0" y="99.0"/>
      <point x="90.0" y="-22.0"/>
      <point x="245.0" y="-22.0" type="curve" smooth="yes"/>
      <point x="364.0" y="-22.0"/>
      <point x="442.0" y="28.0"/>
    </contour>
    <contour>
      <point x="278.0" y="459.0" type="curve" smooth="yes"/>
      <point x="253.0" y="450.0" type="line"/>
      <point x="235.0" y="483.0"/>
      <point x="221.0" y="525.0"/>
      <point x="230.0" y="574.0" type="curve" smooth="yes"/>
      <point x="240.0" y="632.0"/>
      <point x="285.0" y="661.0"/>
      <point x="331.0" y="661.0" type="curve" smooth="yes"/>
      <point x="373.0" y="661.0"/>
      <point x="422.0" y="622.0"/>
      <point x="408.0" y="562.0" type="curve" smooth="yes"/>
      <point x="397.0" y="508.0"/>
      <point x="357.0" y="485.0"/>
    </contour>
    <contour>
      <point x="226.0" y="369.0" type="curve"/>
      <point x="233.0" y="360.0" type="line" smooth="yes"/>
      <point x="248.0" y="342.0"/>
      <point x="353.0" y="234.0"/>
      <point x="444.0" y="141.0" type="curve"/>
      <point x="406.0" y="84.0"/>
      <point x="344.0" y="42.0"/>
      <point x="245.0" y="42.0" type="curve" smooth="yes"/>
      <point x="138.0" y="42.0"/>
      <point x="67.0" y="125.0"/>
      <point x="90.0" y="229.0" type="curve" smooth="yes"/>
      <point x="104.0" y="289.0"/>
      <point x="150.0" y="333.0"/>
    </contour>
  </outline>
</glyph>
<glyph name="quotesingle" format="2">
  <advance width="135.0"/>
  <unicode hex="0027"/>
  <note>
quotesingle
</note>
  <outline>
    <contour>
      <point x="77.0" y="548.0" type="line"/>
      <point x="87.0" y="766.0" type="line"/>
      <point x="11.0" y="766.0" type="line"/>
      <point x="27.0" y="548.0" type="line"/>
    </contour>
  </outline>
</glyph>
<glyph name="parenleft" format="2">
  <advance width="264.0"/>
  <unicode hex="0028"/>
  <note>
parenleft
</note>
  <outline>
    <contour>
      <point x="178.0" y="-127.0" type="curve"/>
      <point x="239.0" y="-95.0" type="line"/>
      <point x="239.0" y="-95.0"/>
      <point x="120.0" y="107.0"/>
      <point x="120.0" y="325.0" type="curve" smooth="yes"/>
      <point x="120.0" y="541.0"/>
      <point x="238.0" y="727.0"/>
      <point x="238.0" y="727.0" type="curve"/>
      <point x="179.0" y="761.0" type="line"/>
      <point x="179.0" y="761.0"/>
      <point x="50.0" y="559.0"/>
      <point x="50.0" y="325.0" type="curve" smooth="yes"/>
      <point x="50.0" y="91.0"/>
      <point x="178.0" y="-127.0"/>
    </contour>
  </outline>
</glyph>
<glyph name="parenright" format="2">
  <advance width="269"/>
  <unicode hex="0029"/>
  <outline>
    <contour>
      <point x="111" y="-127" type="line"/>
      <point x="111" y="-127"/>
      <point x="239" y="91"/>
      <point x="239" y="325" type="curve" smooth="yes"/>
      <point x="239" y="559"/>
      <point x="110" y="761"/>
      <point x="110" y="761" type="curve"/>
      <point x="51" y="727" type="line"/>
      <point x="51" y="727"/>
      <point x="169" y="541"/>
      <point x="169" y="325" type="curve" smooth="yes"/>
      <point x="169" y="107"/>
      <point x="50" y="-95"/>
      <point x="50" y="-95" type="curve"/>
    </contour>
  </outline>
</glyph>
<glyph name="asterisk" format="2">
  <advance width="600.0"/>
  <unicode hex="002A"/>
  <note>
asterisk
</note>
  <outline>
    <contour>
      <point x="154.0" y="416.0" type="line"/>
      <point x="241.0" y="539.0" type="line"/>
      <point x="329.0" y="417.0" type="line"/>
      <point x="386.0" y="454.0" type="line"/>
      <point x="294.0" y="580.0" type="line"/>
      <point x="441.0" y="626.0" type="line"/>
      <point x="420.0" y="688.0" type="line"/>
      <point x="275.0" y="642.0" type="line"/>
      <point x="275.0" y="797.0" type="line"/>
      <point x="205.0" y="797.0" type="line"/>
      <point x="205.0" y="642.0" type="line"/>
      <point x="61.0" y="688.0" type="line"/>
      <point x="39.0" y="627.0" type="line"/>
      <point x="187.0" y="580.0" type="line"/>
      <point x="96.0" y="453.0" type="line"/>
    </contour>
  </outline>
</glyph>
<glyph name="plus" format="2">
  <advance width="600"/>
  <unicode hex="002B"/>
  <outline>
    <contour>
      <point x="256" y="0" type="line"/>
      <point x="326" y="0" type="line"/>
      <point x="326" y="239" type="line"/>
      <point x="561" y="239" type="line"/>
      <point x="561" y="303" type="line"/>
      <point x="326" y="303" type="line"/>
      <point x="326" y="541" type="line"/>
      <point x="256" y="541" type="line"/>
      <point x="256" y="303" type="line"/>
      <point x="20" y="303" type="line"/>
      <point x="20" y="239" type="line"/>
      <point x="256" y="239" type="line"/>
    </contour>
  </outline>
</glyph>
<glyph name="comma" format="2">
  <advance width="198"/>
  <unicode hex="002C"/>
  <outline>
    <contour>
      <point x="29" y="-143" type="line"/>
      <point x="94" y="-94"/>
      <point x="148" y="-14"/>
      <point x="148" y="48" type="curve"/>
      <point x="102" y="48" type="line"/>
      <point x="102" y="-24"/>
      <point x="54" y="-66"/>
      <point x="-2" y="-112" type="curve"/>
    </contour>
    <contour>
      <point x="94" y="-6" type="curve" smooth="yes"/>
      <point x="123" y="-6"/>
      <point x="148" y="17"/>
      <point x="148" y="48" type="curve" smooth="yes"/>
      <point x="148" y="77"/>
      <point x="123" y="101"/>
      <point x="94" y="101" type="curve" smooth="yes"/>
      <point x="65" y="101"/>
      <point x="40" y="77"/>
      <point x="40" y="48" type="curve" smooth="yes"/>
      <point x="40" y="17"/>
      <point x="65" y="-6"/>
    </contour>
  </outline>
</glyph>
<glyph name="hyphen" format="2">
  <advance width="497.0"/>
  <unicode hex="002D"/>
  <note>
hyphen
</note>
  <outline>
    <contour>
      <point x="432.0" y="318.0" type="line"/>
      <point x="66.0" y="318.0" type="line"/>
      <point x="66.0" y="256.0" type="line"/>
      <point x="432.0" y="256.0" type="line"/>
    </contour>
  </outline>
</glyph>
<glyph name="period" format="2">
  <advance width="188"/>
  <unicode hex="002E"/>
  <outline>
    <contour>
      <point x="94" y="-6" type="curve" smooth="yes"/>
      <point x="123" y="-6"/>
      <point x="148" y="17"/>
      <point x="148" y="48" type="curve" smooth="yes"/>
      <point x="148" y="77"/>
      <point x="123" y="101"/>
      <point x="94" y="101" type="curve" smooth="yes"/>
      <point x="65" y="101"/>
      <point x="40" y="77"/>
      <point x="40" y="48" type="curve" smooth="yes"/>
      <point x="40" y="17"/>
      <point x="65" y="-6"/>
    </contour>
  </outline>
</glyph>
<glyph name="slash" format="2">
  <advance width="600"/>
  <unicode hex="002F"/>
  <outline>
    <contour>
      <point x="209" y="-125" type="line"/>
      <point x="463" y="718" type="line"/>
      <point x="402" y="737" type="line"/>
      <point x="147" y="-107" type="line"/>
    </contour>
  </outline>
</glyph>
<glyph name="zero" format="2">
  <advance width="609"/>
  <unicode hex="0030"/>
  <outline>
    <contour>
      <point x="305" y="-6" type="curve" smooth="yes"/>
      <point x="170" y="-6"/>
      <point x="60" y="114"/>
      <point x="60" y="352" type="curve" smooth="yes"/>
      <point x="60" y="591"/>
      <point x="170" y="705"/>
      <point x="305" y="705" type="curve" smooth="yes"/>
      <point x="440" y="705"/>
      <point x="549" y="591"/>
      <point x="549" y="352" type="curve" smooth="yes"/>
      <point x="549" y="114"/>
      <point x="440" y="-6"/>
    </contour>
    <contour>
      <point x="305" y="58" type="curve" smooth="yes"/>
      <point x="395" y="58"/>
      <point x="479" y="149"/>
      <point x="479" y="352" type="curve" smooth="yes"/>
      <point x="479" y="555"/>
      <point x="397" y="641"/>
      <point x="305" y="641" type="curve" smooth="yes"/>
      <point x="213" y="641"/>
      <point x="130" y="555"/>
      <point x="130" y="352" type="curve" smooth="yes"/>
      <point x="130" y="149"/>
      <point x="214" y="58"/>
    </contour>
  </outline>
</glyph>
<glyph name="one" format="2">
  <advance width="441.0"/>
  <unicode hex="0031"/>
  <note>
one
</note>
  <outline>
    <contour>
      <point x="24.0" y="64.0" type="line"/>
      <point x="24.0" y="0.0" type="line"/>
      <point x="417.0" y="0.0" type="line"/>
      <point x="417.0" y="64.0" type="line"/>
      <point x="254.0" y="64.0" type="line"/>
      <point x="254.0" y="700.0" type="line"/>
      <point x="191.0" y="700.0" type="line"/>
      <point x="32.0" y="634.0" type="line"/>
      <point x="32.0" y="551.0" type="line"/>
      <point x="184.0" y="629.0" type="line"/>
      <point x="184.0" y="64.0" type="line"/>
    </contour>
  </outline>
</glyph>
<glyph name="two" format="2">
  <advance width="476"/>
  <unicode hex="0032"/>
  <outline>
    <contour>
      <point x="18" y="0" type="line"/>
      <point x="460" y="0" type="line"/>
      <point x="460" y="70" type="line"/>
      <point x="115" y="70" type="line"/>
      <point x="214" y="171"/>
      <point x="346" y="308"/>
      <point x="400" y="383" type="curve" smooth="yes"/>
      <point x="509" y="535"/>
      <point x="401" y="706"/>
      <point x="231" y="706" type="curve" smooth="yes"/>
      <point x="138" y="706"/>
      <point x="59" y="646"/>
      <point x="31" y="562" type="curve"/>
      <point x="100" y="540" type="line"/>
      <point x="119" y="596"/>
      <point x="169" y="636"/>
      <point x="231" y="636" type="curve" smooth="yes"/>
      <point x="348" y="636"/>
      <point x="416" y="526"/>
      <point x="343" y="424" type="curve" smooth="yes"/>
      <point x="285" y="342"/>
      <point x="122" y="177"/>
      <point x="18" y="70" type="curve"/>
    </contour>
  </outline>
</glyph>
<glyph name="three" format="2">
  <advance width="464.0"/>
  <unicode hex="0033"/>
  <note>
three
</note>
  <outline>
    <contour>
      <point x="45.0" y="571.0" type="curve"/>
      <point x="113.0" y="557.0" type="line"/>
      <point x="123.0" y="598.0"/>
      <point x="155.0" y="640.0"/>
      <point x="217.0" y="640.0" type="curve" smooth="yes"/>
      <point x="277.0" y="640.0"/>
      <point x="325.0" y="592.0"/>
      <point x="325.0" y="529.0" type="curve" smooth="yes"/>
      <point x="325.0" y="467.0"/>
      <point x="287.0" y="419.0"/>
      <point x="197.0" y="419.0" type="curve" smooth="yes"/>
      <point x="185.0" y="419.0" type="line"/>
      <point x="185.0" y="355.0" type="line"/>
      <point x="197.0" y="355.0" type="line" smooth="yes"/>
      <point x="307.0" y="355.0"/>
      <point x="366.0" y="290.0"/>
      <point x="366.0" y="208.0" type="curve" smooth="yes"/>
      <point x="366.0" y="125.0"/>
      <point x="307.0" y="61.0"/>
      <point x="217.0" y="61.0" type="curve" smooth="yes"/>
      <point x="152.0" y="61.0"/>
      <point x="111.0" y="98.0"/>
      <point x="94.0" y="143.0" type="curve"/>
      <point x="34.0" y="110.0" type="line"/>
      <point x="58.0" y="53.0"/>
      <point x="128.0" y="-3.0"/>
      <point x="217.0" y="-3.0" type="curve" smooth="yes"/>
      <point x="348.0" y="-3.0"/>
      <point x="436.0" y="94.0"/>
      <point x="436.0" y="208.0" type="curve" smooth="yes"/>
      <point x="436.0" y="286.0"/>
      <point x="395.0" y="354.0"/>
      <point x="324.0" y="390.0" type="curve"/>
      <point x="370.0" y="422.0"/>
      <point x="395.0" y="473.0"/>
      <point x="395.0" y="529.0" type="curve" smooth="yes"/>
      <point x="395.0" y="625.0"/>
      <point x="315.0" y="704.0"/>
      <point x="217.0" y="704.0" type="curve" smooth="yes"/>
      <point x="127.0" y="704.0"/>
      <point x="61.0" y="638.0"/>
    </contour>
  </outline>
</glyph>
<glyph name="four" format="2">
  <advance width="586"/>
  <unicode hex="0034"/>
  <outline>
    <contour>
      <point x="392" y="0" type="line"/>
      <point x="462" y="0" type="line"/>
      <point x="462" y="152" type="line"/>
      <point x="560" y="152" type="line"/>
      <point x="560" y="226" type="line"/>
      <point x="462" y="226" type="line"/>
      <point x="462" y="700" type="line"/>
      <point x="392" y="700" type="line"/>
      <point x="37" y="217" type="line"/>
      <point x="37" y="152" type="line"/>
      <point x="392" y="152" type="line"/>
    </contour>
    <contour>
      <point x="124" y="226" type="line"/>
      <point x="392" y="599" type="line"/>
      <point x="392" y="226" type="line"/>
    </contour>
  </outline>
</glyph>
<glyph name="five" format="2">
  <advance width="498"/>
  <unicode hex="0035"/>
  <outline>
    <contour>
      <point x="186" y="0" type="curve" smooth="yes"/>
      <point x="321" y="-22"/>
      <point x="426" y="61"/>
      <point x="446" y="183" type="curve" smooth="yes"/>
      <point x="466" y="305"/>
      <point x="379" y="419"/>
      <point x="258" y="440" type="curve" smooth="yes"/>
      <point x="224" y="446"/>
      <point x="174" y="444"/>
      <point x="131" y="427" type="curve"/>
      <point x="184" y="636" type="line"/>
      <point x="425" y="636" type="line"/>
      <point x="425" y="700" type="line"/>
      <point x="129" y="700" type="line"/>
      <point x="52" y="400" type="line"/>
      <point x="86" y="344" type="line"/>
      <point x="160" y="384"/>
      <point x="203" y="384"/>
      <point x="247" y="377" type="curve" smooth="yes"/>
      <point x="328" y="364"/>
      <point x="391" y="280"/>
      <point x="377" y="193" type="curve" smooth="yes"/>
      <point x="362" y="104"/>
      <point x="291" y="48"/>
      <point x="197" y="63" type="curve" smooth="yes"/>
      <point x="141" y="73"/>
      <point x="106" y="98"/>
      <point x="81" y="139" type="curve"/>
      <point x="21" y="106" type="line"/>
      <point x="53" y="53"/>
      <point x="107" y="13"/>
    </contour>
  </outline>
</glyph>
<glyph name="six" format="2">
  <advance width="465.0"/>
  <unicode hex="0036"/>
  <note>
six
</note>
  <outline>
    <contour>
      <point x="194.0" y="406.0" type="curve"/>
      <point x="364.0" y="700.0" type="line"/>
      <point x="283.0" y="700.0" type="line"/>
      <point x="56.0" y="308.0" type="line"/>
      <point x="55.0" y="306.0" type="line"/>
      <point x="-1.0" y="207.0"/>
      <point x="33.0" y="80.0"/>
      <point x="132.0" y="23.0" type="curve" smooth="yes"/>
      <point x="231.0" y="-33.0"/>
      <point x="358.0" y="1.0"/>
      <point x="415.0" y="100.0" type="curve" smooth="yes"/>
      <point x="472.0" y="200.0"/>
      <point x="437.0" y="326.0"/>
      <point x="338.0" y="383.0" type="curve" smooth="yes"/>
      <point x="293.0" y="409.0"/>
      <point x="241.0" y="416.0"/>
    </contour>
    <contour>
      <point x="354.0" y="135.0" type="curve" smooth="yes"/>
      <point x="317.0" y="69.0"/>
      <point x="233.0" y="47.0"/>
      <point x="167.0" y="84.0" type="curve" smooth="yes"/>
      <point x="101.0" y="122.0"/>
      <point x="79.0" y="206.0"/>
      <point x="116.0" y="272.0" type="curve" smooth="yes"/>
      <point x="154.0" y="337.0"/>
      <point x="237.0" y="360.0"/>
      <point x="303.0" y="322.0" type="curve" smooth="yes"/>
      <point x="369.0" y="285.0"/>
      <point x="392.0" y="201.0"/>
    </contour>
  </outline>
</glyph>
<glyph name="seven" format="2">
  <advance width="539"/>
  <unicode hex="0037"/>
  <outline>
    <contour>
      <point x="35" y="0" type="line"/>
      <point x="116" y="0" type="line"/>
      <point x="529" y="700" type="line"/>
      <point x="74" y="700" type="line"/>
      <point x="74" y="630" type="line"/>
      <point x="407" y="630" type="line"/>
    </contour>
  </outline>
</glyph>
<glyph name="eight" format="2">
  <advance width="497.0"/>
  <unicode hex="0038"/>
  <note>
eight
</note>
  <outline>
    <contour>
      <point x="359.0" y="367.0" type="curve"/>
      <point x="381.0" y="382.0"/>
      <point x="400.0" y="402.0"/>
      <point x="413.0" y="425.0" type="curve" smooth="yes"/>
      <point x="466.0" y="516.0"/>
      <point x="436.0" y="627.0"/>
      <point x="343.0" y="680.0" type="curve" smooth="yes"/>
      <point x="254.0" y="731.0"/>
      <point x="135.0" y="699.0"/>
      <point x="84.0" y="610.0" type="curve" smooth="yes"/>
      <point x="35.0" y="525.0"/>
      <point x="59.0" y="422.0"/>
      <point x="139.0" y="366.0" type="curve"/>
      <point x="106.0" y="350.0"/>
      <point x="79.0" y="326.0"/>
      <point x="60.0" y="296.0" type="curve" smooth="yes"/>
      <point x="-1.0" y="198.0"/>
      <point x="34.0" y="78.0"/>
      <point x="141.0" y="22.0" type="curve" smooth="yes"/>
      <point x="244.0" y="-31.0"/>
      <point x="378.0" y="2.0"/>
      <point x="437.0" y="96.0" type="curve" smooth="yes"/>
      <point x="498.0" y="192.0"/>
      <point x="463.0" y="311.0"/>
    </contour>
    <contour>
      <point x="145.0" y="579.0" type="curve" smooth="yes"/>
      <point x="179.0" y="638.0"/>
      <point x="250.0" y="657.0"/>
      <point x="308.0" y="624.0" type="curve" smooth="yes"/>
      <point x="366.0" y="591.0"/>
      <point x="386.0" y="515.0"/>
      <point x="353.0" y="457.0" type="curve" smooth="yes"/>
      <point x="330.0" y="417.0"/>
      <point x="295.0" y="398.0"/>
      <point x="251.0" y="395.0" type="curve"/>
      <point x="225.0" y="397.0"/>
      <point x="209.0" y="400.0"/>
      <point x="189.0" y="411.0" type="curve" smooth="yes"/>
      <point x="132.0" y="444.0"/>
      <point x="111.0" y="520.0"/>
    </contour>
    <contour>
      <point x="378.0" y="130.0" type="curve" smooth="yes"/>
      <point x="336.0" y="64.0"/>
      <point x="246.0" y="41.0"/>
      <point x="173.0" y="79.0" type="curve" smooth="yes"/>
      <point x="103.0" y="116.0"/>
      <point x="79.0" y="198.0"/>
      <point x="119.0" y="262.0" type="curve" smooth="yes"/>
      <point x="147.0" y="306.0"/>
      <point x="194.0" y="328.0"/>
      <point x="250.0" y="331.0" type="curve"/>
      <point x="279.0" y="329.0"/>
      <point x="300.0" y="325.0"/>
      <point x="323.0" y="313.0" type="curve" smooth="yes"/>
      <point x="394.0" y="276.0"/>
      <point x="418.0" y="194.0"/>
    </contour>
  </outline>
</glyph>
<glyph name="nine" format="2">
  <advance width="451.0"/>
  <unicode hex="0039"/>
  <note>
nine
</note>
  <outline>
    <contour>
      <point x="256.0" y="310.0" type="curve"/>
      <point x="77.0" y="0.0" type="line"/>
      <point x="158.0" y="0.0" type="line"/>
      <point x="390.0" y="400.0" type="line"/>
      <point x="394.0" y="407.0" type="line" smooth="yes"/>
      <point x="448.0" y="502.0"/>
      <point x="415.0" y="624.0"/>
      <point x="320.0" y="678.0" type="curve" smooth="yes"/>
      <point x="225.0" y="733.0"/>
      <point x="104.0" y="700.0"/>
      <point x="49.0" y="605.0" type="curve" smooth="yes"/>
      <point x="-5.0" y="509.0"/>
      <point x="28.0" y="388.0"/>
      <point x="123.0" y="334.0" type="curve" smooth="yes"/>
      <point x="165.0" y="310.0"/>
      <point x="212.0" y="303.0"/>
    </contour>
    <contour>
      <point x="339.0" y="455.0" type="curve"/>
      <point x="325.0" y="430.0" type="line"/>
      <point x="287.0" y="378.0"/>
      <point x="215.0" y="362.0"/>
      <point x="158.0" y="394.0" type="curve" smooth="yes"/>
      <point x="96.0" y="430.0"/>
      <point x="75.0" y="508.0"/>
      <point x="110.0" y="570.0" type="curve" smooth="yes"/>
      <point x="145.0" y="631.0"/>
      <point x="224.0" y="653.0"/>
      <point x="285.0" y="617.0" type="curve" smooth="yes"/>
      <point x="343.0" y="584.0"/>
      <point x="365.0" y="514.0"/>
    </contour>
  </outline>
</glyph>
<glyph name="semicolon" format="2">
  <advance width="664.0"/>
  <unicode hex="003B"/>
  <note>
semicolon
</note>
  <outline>
    <contour>
      <point x="145.0" y="391.0" type="curve" smooth="yes"/>
      <point x="180.0" y="391.0"/>
      <point x="208.0" y="419.0"/>
      <point x="208.0" y="454.0" type="curve" smooth="yes"/>
      <point x="208.0" y="489.0"/>
      <point x="180.0" y="517.0"/>
      <point x="145.0" y="517.0" type="curve" smooth="yes"/>
      <point x="110.0" y="517.0"/>
      <point x="82.0" y="489.0"/>
      <point x="82.0" y="454.0" type="curve" smooth="yes"/>
      <point x="82.0" y="419.0"/>
      <point x="110.0" y="391.0"/>
    </contour>
    <contour>
      <point x="182.0" y="91.0" type="line"/>
      <point x="111.0" y="91.0" type="line"/>
      <point x="111.0" y="7.0" type="line"/>
      <point x="59.0" y="-98.0" type="line"/>
      <point x="122.0" y="-126.0" type="line"/>
      <point x="182.0" y="-7.0" type="line"/>
    </contour>
  </outline>
</glyph>
<glyph name="less" format="2">
  <advance width="600.0"/>
  <unicode hex="003C"/>
  <note>
less
</note>
  <outline>
    <contour>
      <point x="489.0" y="521.0" type="line"/>
      <point x="519.0" y="459.0" type="line"/>
      <point x="198.0" y="308.0" type="line"/>
      <point x="519.0" y="157.0" type="line"/>
      <point x="489.0" y="94.0" type="line"/>
      <point x="138.0" y="267.0" type="line"/>
      <point x="138.0" y="348.0" type="line"/>
    </contour>
  </outline>
</glyph>
<glyph name="equal" format="2">
  <advance width="600.0"/>
  <unicode hex="003D"/>
  <note>
equal
</note>
  <outline>
    <contour>
      <point x="520.0" y="452.0" type="line"/>
      <point x="88.0" y="452.0" type="line"/>
      <point x="88.0" y="388.0" type="line"/>
      <point x="520.0" y="388.0" type="line"/>
    </contour>
    <contour>
      <point x="520.0" y="192.0" type="line"/>
      <point x="88.0" y="192.0" type="line"/>
      <point x="88.0" y="128.0" type="line"/>
      <point x="520.0" y="128.0" type="line"/>
    </contour>
  </outline>
</glyph>
<glyph name="greater" format="2">
  <advance width="600"/>
  <unicode hex="003E"/>
  <outline>
    <contour>
      <point x="137" y="94" type="line"/>
      <point x="489" y="267" type="line"/>
      <point x="489" y="348" type="line"/>
      <point x="137" y="521" type="line"/>
      <point x="108" y="459" type="line"/>
      <point x="428" y="308" type="line"/>
      <point x="108" y="157" type="line"/>
    </contour>
  </outline>
</glyph>
<glyph name="question" format="2">
  <advance width="378"/>
  <unicode hex="003F"/>
  <outline>
    <contour>
      <point x="81" y="191" type="line"/>
      <point x="151" y="191" type="line"/>
      <point x="151" y="348" type="line"/>
      <point x="231" y="378"/>
      <point x="318" y="428"/>
      <point x="327" y="533" type="curve" smooth="yes"/>
      <point x="335" y="635"/>
      <point x="262" y="708"/>
      <point x="144" y="708" type="curve" smooth="yes"/>
      <point x="41" y="708"/>
      <point x="-3" y="619"/>
      <point x="-3" y="619" type="curve"/>
      <point x="58" y="584" type="line"/>
      <point x="62" y="592"/>
      <point x="91" y="643"/>
      <point x="148" y="643" type="curve" smooth="yes"/>
      <point x="216" y="643"/>
      <point x="262" y="602"/>
      <point x="257" y="539" type="curve" smooth="yes"/>
      <point x="250" y="454"/>
      <point x="160" y="422"/>
      <point x="72" y="394" type="curve"/>
    </contour>
    <component base="period" xOffset="27"/>
  </outline>
</glyph>
<glyph name="at" format="2">
  <advance width="1110"/>
  <unicode hex="0040"/>
  <anchor x="579" y="-17" name="bottom"/>
  <anchor x="693" y="-23" name="ogonek"/>
  <anchor x="579" y="483" name="top"/>
  <outline>
    <contour>
      <point x="536" y="-23" type="curve" smooth="yes"/>
      <point x="621" y="-23"/>
      <point x="717" y="44"/>
      <point x="717" y="127" type="curve"/>
      <point x="717" y="64"/>
      <point x="742" y="-25"/>
      <point x="853" y="-25" type="curve" smooth="yes"/>
      <point x="962" y="-25"/>
      <point x="1047" y="107"/>
      <point x="1047" y="257" type="curve" smooth="yes"/>
      <point x="1047" y="531"/>
      <point x="842" y="745"/>
      <point x="563" y="745" type="curve" smooth="yes"/>
      <point x="285" y="745"/>
      <point x="60" y="520"/>
      <point x="60" y="245" type="curve" smooth="yes"/>
      <point x="60" y="-30"/>
      <point x="285" y="-256"/>
      <point x="563" y="-256" type="curve" smooth="yes"/>
      <point x="658" y="-256"/>
      <point x="751" y="-228"/>
      <point x="825" y="-183" type="curve"/>
      <point x="794" y="-125" type="line"/>
      <point x="726" y="-166"/>
      <point x="647" y="-192"/>
      <point x="563" y="-192" type="curve" smooth="yes"/>
      <point x="324" y="-192"/>
      <point x="130" y="2"/>
      <point x="130" y="245" type="curve" smooth="yes"/>
      <point x="130" y="487"/>
      <point x="324" y="681"/>
      <point x="563" y="681" type="curve" smooth="yes"/>
      <point x="802" y="681"/>
      <point x="977" y="499"/>
      <point x="977" y="257" type="curve" smooth="yes"/>
      <point x="977" y="131"/>
      <point x="916" y="37"/>
      <point x="852" y="37" type="curve" smooth="yes"/>
      <point x="798" y="37"/>
      <point x="762" y="69"/>
      <point x="762" y="143" type="curve" smooth="yes"/>
      <point x="762" y="319" type="line" smooth="yes"/>
      <point x="762" y="439"/>
      <point x="670" y="489"/>
      <point x="567" y="489" type="curve" smooth="yes"/>
      <point x="471" y="489"/>
      <point x="415" y="442"/>
      <point x="380" y="398" type="curve"/>
      <point x="428" y="356" type="line"/>
      <point x="464" y="399"/>
      <point x="504" y="425"/>
      <point x="567" y="425" type="curve" smooth="yes"/>
      <point x="645" y="425"/>
      <point x="692" y="393"/>
      <point x="692" y="319" type="curve" smooth="yes"/>
      <point x="692" y="273" type="line"/>
      <point x="661" y="280"/>
      <point x="624" y="284"/>
      <point x="591" y="284" type="curve" smooth="yes"/>
      <point x="475" y="284"/>
      <point x="368" y="250"/>
      <point x="368" y="120" type="curve" smooth="yes"/>
      <point x="368" y="54"/>
      <point x="415" y="-23"/>
    </contour>
    <contour>
      <point x="536" y="43" type="curve" smooth="yes"/>
      <point x="470" y="43"/>
      <point x="438" y="87"/>
      <point x="438" y="128" type="curve" smooth="yes"/>
      <point x="438" y="202"/>
      <point x="501" y="230"/>
      <point x="605" y="230" type="curve" smooth="yes"/>
      <point x="638" y="230"/>
      <point x="671" y="225"/>
      <point x="692" y="220" type="curve"/>
      <point x="692" y="106"/>
      <point x="633" y="43"/>
    </contour>
  </outline>
</glyph>
<glyph name="A" format="2">
  <advance width="646"/>
  <unicode hex="0041"/>
  <anchor x="323" y="0" name="bottom"/>
  <anchor x="557" y="-6" name="ogonek"/>
  <anchor x="323" y="700" name="top"/>
  <outline>
    <contour>
      <point x="499" y="193" type="line"/>
      <point x="474" y="257" type="line"/>
      <point x="166" y="257" type="line"/>
      <point x="141" y="193" type="line"/>
    </contour>
    <contour>
      <point x="557" y="0" type="line"/>
      <point x="631" y="0" type="line"/>
      <point x="357" y="700" type="line"/>
      <point x="289" y="700" type="line"/>
      <point x="15" y="0" type="line"/>
      <point x="89" y="0" type="line"/>
      <point x="330" y="617" type="line"/>
      <point x="316" y="617" type="line"/>
    </contour>
  </outline>
</glyph>
<glyph name="B" format="2">
  <advance width="593.0"/>
  <unicode hex="0042"/>
  <note>
B
</note>
  <outline>
    <contour>
      <point x="315.0" y="700.0" type="curve" smooth="yes"/>
      <point x="86.0" y="700.0" type="line"/>
      <point x="86.0" y="0.0" type="line"/>
      <point x="346.0" y="0.0" type="line" smooth="yes"/>
      <point x="471.0" y="2.0"/>
      <point x="566.0" y="100.0"/>
      <point x="566.0" y="218.0" type="curve" smooth="yes"/>
      <point x="566.0" y="308.0"/>
      <point x="510.0" y="386.0"/>
      <point x="430.0" y="420.0" type="curve"/>
      <point x="460.0" y="449.0"/>
      <point x="479.0" y="491.0"/>
      <point x="479.0" y="536.0" type="curve" smooth="yes"/>
      <point x="479.0" y="627.0"/>
      <point x="405.0" y="700.0"/>
    </contour>
    <contour>
      <point x="317.0" y="436.0" type="curve" smooth="yes"/>
      <point x="156.0" y="436.0" type="line"/>
      <point x="156.0" y="636.0" type="line"/>
      <point x="315.0" y="636.0" type="line" smooth="yes"/>
      <point x="365.0" y="636.0"/>
      <point x="409.0" y="592.0"/>
      <point x="409.0" y="536.0" type="curve" smooth="yes"/>
      <point x="409.0" y="481.0"/>
      <point x="366.0" y="437.0"/>
    </contour>
    <contour>
      <point x="346.0" y="64.0" type="curve" smooth="yes"/>
      <point x="156.0" y="64.0" type="line"/>
      <point x="156.0" y="372.0" type="line"/>
      <point x="345.0" y="372.0" type="line" smooth="yes"/>
      <point x="428.0" y="372.0"/>
      <point x="496.0" y="304.0"/>
      <point x="496.0" y="218.0" type="curve" smooth="yes"/>
      <point x="496.0" y="132.0"/>
      <point x="433.0" y="65.0"/>
    </contour>
  </outline>
</glyph>
<glyph name="C" format="2">
  <advance width="673"/>
  <unicode hex="0043"/>
  <anchor x="378" y="-2" name="bottom"/>
  <anchor x="337" y="700" name="top"/>
  <outline>
    <contour>
      <point x="378" y="-2" type="curve" smooth="yes"/>
      <point x="486" y="-2"/>
      <point x="582" y="53"/>
      <point x="643" y="138" type="curve"/>
      <point x="586" y="176" type="line"/>
      <point x="534" y="104"/>
      <point x="462" y="62"/>
      <point x="378" y="62" type="curve" smooth="yes"/>
      <point x="236" y="62"/>
      <point x="115" y="189"/>
      <point x="115" y="350" type="curve" smooth="yes"/>
      <point x="115" y="497"/>
      <point x="223" y="637"/>
      <point x="378" y="637" type="curve" smooth="yes"/>
      <point x="456" y="637"/>
      <point x="524" y="601"/>
      <point x="576" y="537" type="curve"/>
      <point x="630" y="578" type="line"/>
      <point x="569" y="654"/>
      <point x="479" y="701"/>
      <point x="378" y="701" type="curve" smooth="yes"/>
      <point x="176" y="701"/>
      <point x="45" y="527"/>
      <point x="45" y="350" type="curve" smooth="yes"/>
      <point x="45" y="156"/>
      <point x="194" y="-2"/>
    </contour>
  </outline>
</glyph>
<glyph name="D" format="2">
  <advance width="638"/>
  <unicode hex="0044"/>
  <anchor x="314" y="0" name="bottom"/>
  <anchor x="314" y="700" name="top"/>
  <outline>
    <contour>
      <point x="80" y="0" type="line"/>
      <point x="242" y="0" type="line" smooth="yes"/>
      <point x="479" y="0"/>
      <point x="593" y="149"/>
      <point x="593" y="350" type="curve" smooth="yes"/>
      <point x="593" y="553"/>
      <point x="486" y="700"/>
      <point x="237" y="700" type="curve" smooth="yes"/>
      <point x="80" y="700" type="line"/>
    </contour>
    <contour>
      <point x="150" y="64" type="line"/>
      <point x="150" y="636" type="line"/>
      <point x="237" y="636" type="line" smooth="yes"/>
      <point x="441" y="636"/>
      <point x="523" y="526"/>
      <point x="523" y="350" type="curve" smooth="yes"/>
      <point x="523" y="177"/>
      <point x="435" y="64"/>
      <point x="242" y="64" type="curve" smooth="yes"/>
    </contour>
  </outline>
</glyph>
<glyph name="E" format="2">
  <advance width="564"/>
  <unicode hex="0045"/>
  <anchor x="309" y="0" name="bottom"/>
  <anchor x="406" y="-6" name="ogonek"/>
  <anchor x="309" y="700" name="top"/>
  <outline>
    <contour>
      <point x="80" y="0" type="line"/>
      <point x="533" y="0" type="line"/>
      <point x="533" y="64" type="line"/>
      <point x="150" y="64" type="line"/>
      <point x="150" y="322" type="line"/>
      <point x="458" y="322" type="line"/>
      <point x="458" y="386" type="line"/>
      <point x="150" y="386" type="line"/>
      <point x="150" y="636" type="line"/>
      <point x="532" y="636" type="line"/>
      <point x="532" y="700" type="line"/>
      <point x="80" y="700" type="line"/>
    </contour>
  </outline>
</glyph>
<glyph name="F" format="2">
  <advance width="528"/>
  <unicode hex="0046"/>
  <anchor x="261" y="0" name="bottom"/>
  <anchor x="261" y="700" name="top"/>
  <outline>
    <contour>
      <point x="80" y="0" type="line"/>
      <point x="150" y="0" type="line"/>
      <point x="150" y="322" type="line"/>
      <point x="438" y="322" type="line"/>
      <point x="438" y="386" type="line"/>
      <point x="150" y="386" type="line"/>
      <point x="150" y="637" type="line"/>
      <point x="513" y="637" type="line"/>
      <point x="513" y="701" type="line"/>
      <point x="80" y="701" type="line"/>
    </contour>
  </outline>
</glyph>
<glyph name="G" format="2">
  <advance width="670.0"/>
  <unicode hex="0047"/>
  <note>
G
</note>
  <outline>
    <contour>
      <point x="634.0" y="138.0" type="curve"/>
      <point x="634.0" y="351.0" type="line"/>
      <point x="375.0" y="351.0" type="line"/>
      <point x="375.0" y="287.0" type="line"/>
      <point x="564.0" y="287.0" type="line"/>
      <point x="564.0" y="158.0" type="line"/>
      <point x="510.0" y="91.0"/>
      <point x="441.0" y="62.0"/>
      <point x="369.0" y="62.0" type="curve" smooth="yes"/>
      <point x="227.0" y="62.0"/>
      <point x="106.0" y="189.0"/>
      <point x="106.0" y="350.0" type="curve" smooth="yes"/>
      <point x="106.0" y="510.0"/>
      <point x="227.0" y="637.0"/>
      <point x="369.0" y="637.0" type="curve" smooth="yes"/>
      <point x="436.0" y="637.0"/>
      <point x="495.0" y="611.0"/>
      <point x="545.0" y="563.0" type="curve"/>
      <point x="594.0" y="609.0" type="line"/>
      <point x="535.0" y="666.0"/>
      <point x="456.0" y="701.0"/>
      <point x="369.0" y="701.0" type="curve" smooth="yes"/>
      <point x="185.0" y="701.0"/>
      <point x="36.0" y="544.0"/>
      <point x="36.0" y="350.0" type="curve" smooth="yes"/>
      <point x="36.0" y="155.0"/>
      <point x="185.0" y="-2.0"/>
      <point x="369.0" y="-2.0" type="curve" smooth="yes"/>
      <point x="467.0" y="-2.0"/>
      <point x="567.0" y="43.0"/>
    </contour>
  </outline>
</glyph>
<glyph name="H" format="2">
  <advance width="709"/>
  <unicode hex="0048"/>
  <anchor x="354" y="0" name="bottom"/>
  <anchor x="354" y="700" name="top"/>
  <outline>
    <contour>
      <point x="80" y="0" type="line"/>
      <point x="150" y="0" type="line"/>
      <point x="150" y="322" type="line"/>
      <point x="559" y="322" type="line"/>
      <point x="559" y="0" type="line"/>
      <point x="629" y="0" type="line"/>
      <point x="629" y="700" type="line"/>
      <point x="559" y="700" type="line"/>
      <point x="559" y="386" type="line"/>
      <point x="150" y="386" type="line"/>
      <point x="150" y="700" type="line"/>
      <point x="80" y="700" type="line"/>
    </contour>
  </outline>
</glyph>
<glyph name="I" format="2">
  <advance width="230"/>
  <unicode hex="0049"/>
  <anchor x="115" y="0" name="bottom"/>
  <anchor x="115" y="700" name="top"/>
  <outline>
    <contour>
      <point x="80" y="0" type="line"/>
      <point x="150" y="0" type="line"/>
      <point x="150" y="700" type="line"/>
      <point x="80" y="700" type="line"/>
    </contour>
  </outline>
</glyph>
<glyph name="J" format="2">
  <advance width="463.0"/>
  <unicode hex="004A"/>
  <note>
J
</note>
  <outline>
    <contour>
      <point x="394.0" y="179.0" type="curve"/>
      <point x="394.0" y="701.0" type="line"/>
      <point x="323.0" y="701.0" type="line"/>
      <point x="323.0" y="179.0" type="line" smooth="yes"/>
      <point x="325.0" y="113.0"/>
      <point x="273.0" y="62.0"/>
      <point x="214.0" y="62.0" type="curve" smooth="yes"/>
      <point x="154.0" y="62.0"/>
      <point x="103.0" y="113.0"/>
      <point x="103.0" y="179.0" type="curve"/>
      <point x="33.0" y="179.0" type="line"/>
      <point x="33.0" y="79.0"/>
      <point x="114.0" y="-2.0"/>
      <point x="214.0" y="-2.0" type="curve" smooth="yes"/>
      <point x="314.0" y="-2.0"/>
      <point x="395.0" y="79.0"/>
    </contour>
  </outline>
</glyph>
<glyph name="K" format="2">
  <advance width="596"/>
  <unicode hex="004B"/>
  <anchor x="300" y="0" name="bottom"/>
  <anchor x="300" y="700" name="top"/>
  <outline>
    <contour>
      <point x="80" y="0" type="line"/>
      <point x="150" y="0" type="line"/>
      <point x="150" y="314" type="line"/>
      <point x="138" y="283" type="line"/>
      <point x="226" y="365" type="line"/>
      <point x="210" y="369" type="line"/>
      <point x="491" y="0" type="line"/>
      <point x="580" y="0" type="line"/>
      <point x="264" y="411" type="line"/>
      <point x="261" y="397" type="line"/>
      <point x="586" y="700" type="line"/>
      <point x="486" y="700" type="line"/>
      <point x="135" y="373" type="line"/>
      <point x="150" y="354" type="line"/>
      <point x="150" y="700" type="line"/>
      <point x="80" y="700" type="line"/>
    </contour>
  </outline>
</glyph>
<glyph name="L" format="2">
  <advance width="425.0"/>
  <unicode hex="004C"/>
  <note>
L
</note>
  <outline>
    <contour>
      <point x="156.0" y="700.0" type="line"/>
      <point x="86.0" y="700.0" type="line"/>
      <point x="86.0" y="0.0" type="line"/>
      <point x="410.0" y="0.0" type="line"/>
      <point x="410.0" y="64.0" type="line"/>
      <point x="156.0" y="64.0" type="line"/>
    </contour>
  </outline>
</glyph>
<glyph name="M" format="2">
  <advance width="849"/>
  <unicode hex="004D"/>
  <anchor x="424" y="0" name="bottom"/>
  <anchor x="424" y="700" name="top"/>
  <outline>
    <contour>
      <point x="424" y="48" type="line"/>
      <point x="699" y="565" type="line"/>
      <point x="699" y="0" type="line"/>
      <point x="769" y="0" type="line"/>
      <point x="769" y="700" type="line"/>
      <point x="691" y="700" type="line"/>
      <point x="424" y="199" type="line"/>
      <point x="159" y="700" type="line"/>
      <point x="80" y="700" type="line"/>
      <point x="80" y="0" type="line"/>
      <point x="150" y="0" type="line"/>
      <point x="150" y="567" type="line"/>
    </contour>
  </outline>
</glyph>
<glyph name="N" format="2">
  <advance width="689"/>
  <unicode hex="004E"/>
  <anchor x="344" y="0" name="bottom"/>
  <anchor x="344" y="700" name="top"/>
  <outline>
    <contour>
      <point x="80" y="0" type="line"/>
      <point x="150" y="0" type="line"/>
      <point x="150" y="586" type="line"/>
      <point x="143" y="585" type="line"/>
      <point x="544" y="0" type="line"/>
      <point x="609" y="0" type="line"/>
      <point x="609" y="700" type="line"/>
      <point x="538" y="700" type="line"/>
      <point x="538" y="103" type="line"/>
      <point x="549" y="113" type="line"/>
      <point x="146" y="700" type="line"/>
      <point x="80" y="700" type="line"/>
    </contour>
  </outline>
</glyph>
<glyph name="O" format="2">
  <advance width="793"/>
  <unicode hex="004F"/>
  <anchor x="396" y="0" name="bottom"/>
  <anchor x="402" y="-6" name="ogonek"/>
  <anchor x="396" y="700" name="top"/>
  <outline>
    <contour>
      <point x="396" y="-6" type="curve" smooth="yes"/>
      <point x="566" y="-6"/>
      <point x="748" y="124"/>
      <point x="748" y="350" type="curve" smooth="yes"/>
      <point x="748" y="549"/>
      <point x="590" y="706"/>
      <point x="396" y="706" type="curve" smooth="yes"/>
      <point x="199" y="706"/>
      <point x="45" y="546"/>
      <point x="45" y="350" type="curve" smooth="yes"/>
      <point x="45" y="151"/>
      <point x="202" y="-6"/>
    </contour>
    <contour>
      <point x="396" y="58" type="curve" smooth="yes"/>
      <point x="243" y="58"/>
      <point x="115" y="186"/>
      <point x="115" y="350" type="curve" smooth="yes"/>
      <point x="115" y="513"/>
      <point x="240" y="642"/>
      <point x="396" y="642" type="curve" smooth="yes"/>
      <point x="550" y="642"/>
      <point x="678" y="515"/>
      <point x="678" y="350" type="curve" smooth="yes"/>
      <point x="678" y="165"/>
      <point x="532" y="58"/>
    </contour>
  </outline>
</glyph>
<glyph name="P" format="2">
  <advance width="571.0"/>
  <unicode hex="0050"/>
  <note>
P
</note>
  <outline>
    <contour>
      <point x="343.0" y="707.0" type="curve" smooth="yes"/>
      <point x="86.0" y="707.0" type="line"/>
      <point x="86.0" y="0.0" type="line"/>
      <point x="156.0" y="0.0" type="line"/>
      <point x="156.0" y="322.0" type="line"/>
      <point x="343.0" y="322.0" type="line" smooth="yes"/>
      <point x="449.0" y="322.0"/>
      <point x="536.0" y="409.0"/>
      <point x="536.0" y="514.0" type="curve" smooth="yes"/>
      <point x="536.0" y="567.0"/>
      <point x="514.0" y="616.0"/>
      <point x="479.0" y="650.0" type="curve" smooth="yes"/>
      <point x="445.0" y="685.0"/>
      <point x="396.0" y="707.0"/>
    </contour>
    <contour>
      <point x="343.0" y="386.0" type="curve" smooth="yes"/>
      <point x="156.0" y="386.0" type="line"/>
      <point x="156.0" y="643.0" type="line"/>
      <point x="343.0" y="643.0" type="line" smooth="yes"/>
      <point x="377.0" y="643.0"/>
      <point x="404.0" y="631.0"/>
      <point x="430.0" y="605.0" type="curve" smooth="yes"/>
      <point x="451.0" y="584.0"/>
      <point x="466.0" y="550.0"/>
      <point x="466.0" y="514.0" type="curve" smooth="yes"/>
      <point x="466.0" y="441.0"/>
      <point x="410.0" y="386.0"/>
    </contour>
  </outline>
</glyph>
<glyph name="Q" format="2">
  <advance width="790.0"/>
  <unicode hex="0051"/>
  <note>
Q
</note>
  <outline>
    <contour>
      <point x="589.0" y="64.0" type="curve"/>
      <point x="659.0" y="0.0" type="line"/>
      <point x="756.0" y="0.0" type="line"/>
      <point x="641.0" y="107.0" type="line"/>
      <point x="699.0" y="166.0"/>
      <point x="738.0" y="249.0"/>
      <point x="738.0" y="351.0" type="curve" smooth="yes"/>
      <point x="738.0" y="545.0"/>
      <point x="580.0" y="702.0"/>
      <point x="386.0" y="702.0" type="curve" smooth="yes"/>
      <point x="189.0" y="702.0"/>
      <point x="35.0" y="542.0"/>
      <point x="35.0" y="351.0" type="curve" smooth="yes"/>
      <point x="35.0" y="157.0"/>
      <point x="192.0" y="0.0"/>
      <point x="386.0" y="0.0" type="curve" smooth="yes"/>
      <point x="457.0" y="0.0"/>
      <point x="529.0" y="22.0"/>
    </contour>
    <contour>
      <point x="591.0" y="153.0" type="curve"/>
      <point x="443.0" y="291.0" type="line"/>
      <point x="344.0" y="291.0" type="line"/>
      <point x="540.0" y="110.0" type="line"/>
      <point x="493.0" y="80.0"/>
      <point x="439.0" y="64.0"/>
      <point x="386.0" y="64.0" type="curve" smooth="yes"/>
      <point x="233.0" y="64.0"/>
      <point x="105.0" y="192.0"/>
      <point x="105.0" y="351.0" type="curve" smooth="yes"/>
      <point x="105.0" y="509.0"/>
      <point x="230.0" y="638.0"/>
      <point x="386.0" y="638.0" type="curve" smooth="yes"/>
      <point x="540.0" y="638.0"/>
      <point x="668.0" y="511.0"/>
      <point x="668.0" y="351.0" type="curve" smooth="yes"/>
      <point x="668.0" y="269.0"/>
      <point x="637.0" y="201.0"/>
    </contour>
  </outline>
</glyph>
<glyph name="R" format="2">
  <advance width="640"/>
  <unicode hex="0052"/>
  <anchor x="322" y="0" name="bottom"/>
  <anchor x="322" y="700" name="top"/>
  <outline>
    <contour>
      <point x="384" y="372" type="line"/>
      <point x="303" y="371" type="line"/>
      <point x="542" y="0" type="line"/>
      <point x="625" y="0" type="line"/>
    </contour>
    <contour>
      <point x="150" y="420" type="line"/>
      <point x="150" y="636" type="line"/>
      <point x="357" y="636" type="line" smooth="yes"/>
      <point x="438" y="636"/>
      <point x="479" y="589"/>
      <point x="479" y="528" type="curve" smooth="yes"/>
      <point x="479" y="466"/>
      <point x="441" y="420"/>
      <point x="363" y="420" type="curve" smooth="yes"/>
    </contour>
    <contour>
      <point x="150" y="356" type="line"/>
      <point x="368" y="356" type="line" smooth="yes"/>
      <point x="482" y="356"/>
      <point x="549" y="434"/>
      <point x="549" y="528" type="curve" smooth="yes"/>
      <point x="549" y="622"/>
      <point x="481" y="700"/>
      <point x="357" y="700" type="curve" smooth="yes"/>
      <point x="80" y="700" type="line"/>
      <point x="80" y="0" type="line"/>
      <point x="150" y="0" type="line"/>
    </contour>
  </outline>
</glyph>
<glyph name="S" format="2">
  <advance width="514"/>
  <unicode hex="0053"/>
  <anchor x="257" y="0" name="bottom"/>
  <anchor x="257" y="700" name="top"/>
  <outline>
    <contour>
      <point x="249" y="-6" type="curve" smooth="yes"/>
      <point x="366" y="-6"/>
      <point x="479" y="54"/>
      <point x="479" y="180" type="curve" smooth="yes"/>
      <point x="479" y="323"/>
      <point x="380" y="360"/>
      <point x="270" y="405" type="curve" smooth="yes"/>
      <point x="191" y="437"/>
      <point x="140" y="469"/>
      <point x="140" y="533" type="curve" smooth="yes"/>
      <point x="140" y="598"/>
      <point x="192" y="642"/>
      <point x="256" y="642" type="curve" smooth="yes"/>
      <point x="326" y="642"/>
      <point x="361" y="611"/>
      <point x="389" y="584" type="curve"/>
      <point x="438" y="629" type="line"/>
      <point x="402" y="667"/>
      <point x="351" y="706"/>
      <point x="256" y="706" type="curve" smooth="yes"/>
      <point x="158" y="706"/>
      <point x="70" y="634"/>
      <point x="70" y="533" type="curve" smooth="yes"/>
      <point x="70" y="425"/>
      <point x="163" y="376"/>
      <point x="242" y="344" type="curve" smooth="yes"/>
      <point x="329" y="308"/>
      <point x="409" y="284"/>
      <point x="409" y="180" type="curve" smooth="yes"/>
      <point x="409" y="97"/>
      <point x="331" y="58"/>
      <point x="249" y="58" type="curve" smooth="yes"/>
      <point x="174" y="58"/>
      <point x="121" y="93"/>
      <point x="87" y="131" type="curve"/>
      <point x="35" y="88" type="line"/>
      <point x="74" y="45"/>
      <point x="149" y="-6"/>
    </contour>
  </outline>
</glyph>
<glyph name="T" format="2">
  <advance width="516.0"/>
  <unicode hex="0054"/>
  <note>
T
</note>
  <outline>
    <contour>
      <point x="223.0" y="0.0" type="line"/>
      <point x="293.0" y="0.0" type="line"/>
      <point x="293.0" y="636.0" type="line"/>
      <point x="510.0" y="636.0" type="line"/>
      <point x="510.0" y="700.0" type="line"/>
      <point x="6.0" y="700.0" type="line"/>
      <point x="6.0" y="636.0" type="line"/>
      <point x="223.0" y="636.0" type="line"/>
    </contour>
  </outline>
</glyph>
<glyph name="U" format="2">
  <advance width="708"/>
  <unicode hex="0055"/>
  <anchor x="354" y="0" name="bottom"/>
  <anchor x="342" y="-11" name="ogonek"/>
  <anchor x="354" y="700" name="top"/>
  <outline>
    <contour>
      <point x="354" y="-6" type="curve" smooth="yes"/>
      <point x="499" y="-6"/>
      <point x="628" y="70"/>
      <point x="628" y="265" type="curve" smooth="yes"/>
      <point x="628" y="700" type="line"/>
      <point x="558" y="700" type="line"/>
      <point x="558" y="265" type="line" smooth="yes"/>
      <point x="558" y="125"/>
      <point x="470" y="58"/>
      <point x="354" y="58" type="curve" smooth="yes"/>
      <point x="238" y="58"/>
      <point x="150" y="125"/>
      <point x="150" y="265" type="curve" smooth="yes"/>
      <point x="150" y="700" type="line"/>
      <point x="80" y="700" type="line"/>
      <point x="80" y="265" type="line" smooth="yes"/>
      <point x="80" y="70"/>
      <point x="209" y="-6"/>
    </contour>
  </outline>
</glyph>
<glyph name="V" format="2">
  <advance width="648"/>
  <unicode hex="0056"/>
  <anchor x="328" y="0" name="bottom"/>
  <anchor x="328" y="700" name="top"/>
  <outline>
    <contour>
      <point x="292" y="0" type="line"/>
      <point x="357" y="0" type="line"/>
      <point x="628" y="700" type="line"/>
      <point x="554" y="700" type="line"/>
      <point x="315" y="82" type="line"/>
      <point x="334" y="82" type="line"/>
      <point x="94" y="700" type="line"/>
      <point x="20" y="700" type="line"/>
    </contour>
  </outline>
</glyph>
<glyph name="W" format="2">
  <advance width="963.0"/>
  <unicode hex="0057"/>
  <note>
W
</note>
  <outline>
    <contour>
      <point x="766.0" y="0.0" type="line"/>
      <point x="940.0" y="700.0" type="line"/>
      <point x="868.0" y="700.0" type="line"/>
      <point x="724.0" y="120.0" type="line"/>
      <point x="518.0" y="700.0" type="line"/>
      <point x="444.0" y="700.0" type="line"/>
      <point x="238.0" y="121.0" type="line"/>
      <point x="95.0" y="700.0" type="line"/>
      <point x="23.0" y="700.0" type="line"/>
      <point x="197.0" y="0.0" type="line"/>
      <point x="269.0" y="0.0" type="line"/>
      <point x="481.0" y="597.0" type="line"/>
      <point x="693.0" y="0.0" type="line"/>
    </contour>
  </outline>
</glyph>
<glyph name="X" format="2">
  <advance width="777.0"/>
  <unicode hex="0058"/>
  <note>
X
</note>
  <outline>
    <contour>
      <point x="18.0" y="0.0" type="line"/>
      <point x="105.0" y="0.0" type="line"/>
      <point x="387.0" y="351.0" type="line"/>
      <point x="672.0" y="0.0" type="line"/>
      <point x="759.0" y="0.0" type="line"/>
      <point x="434.0" y="400.0" type="line"/>
      <point x="678.0" y="700.0" type="line"/>
      <point x="591.0" y="700.0" type="line"/>
      <point x="390.0" y="454.0" type="line"/>
      <point x="190.0" y="700.0" type="line"/>
      <point x="103.0" y="700.0" type="line"/>
      <point x="343.0" y="404.0" type="line"/>
    </contour>
  </outline>
</glyph>
<glyph name="Y" format="2">
  <advance width="660"/>
  <unicode hex="0059"/>
  <anchor x="330" y="0" name="bottom"/>
  <anchor x="330" y="700" name="top"/>
  <outline>
    <contour>
      <point x="295" y="0" type="line"/>
      <point x="365" y="0" type="line"/>
      <point x="365" y="339" type="line"/>
      <point x="645" y="700" type="line"/>
      <point x="559" y="700" type="line"/>
      <point x="330" y="405" type="line"/>
      <point x="101" y="700" type="line"/>
      <point x="15" y="700" type="line"/>
      <point x="295" y="339" type="line"/>
    </contour>
  </outline>
</glyph>
<glyph name="Z" format="2">
  <advance width="626.0"/>
  <unicode hex="005A"/>
  <note>
Z
</note>
  <outline>
    <contour>
      <point x="20.0" y="0.0" type="line"/>
      <point x="603.0" y="0.0" type="line"/>
      <point x="603.0" y="64.0" type="line"/>
      <point x="150.0" y="64.0" type="line"/>
      <point x="611.0" y="700.0" type="line"/>
      <point x="82.0" y="700.0" type="line"/>
      <point x="82.0" y="636.0" type="line"/>
      <point x="482.0" y="636.0" type="line"/>
    </contour>
  </outline>
</glyph>
<glyph name="bracketleft" format="2">
  <advance width="330"/>
  <unicode hex="005B"/>
  <outline>
    <contour>
      <point x="40" y="-142" type="line"/>
      <point x="255" y="-142" type="line"/>
      <point x="255" y="-78" type="line"/>
      <point x="110" y="-78" type="line"/>
      <point x="110" y="718" type="line"/>
      <point x="255" y="718" type="line"/>
      <point x="255" y="782" type="line"/>
      <point x="40" y="782" type="line"/>
    </contour>
  </outline>
</glyph>
<glyph name="backslash" format="2">
  <advance width="600.0"/>
  <unicode hex="005C"/>
  <note>
backslash
</note>
  <outline>
    <contour>
      <point x="408.0" y="-87.0" type="line"/>
      <point x="115.0" y="711.0" type="line"/>
      <point x="50.0" y="689.0" type="line"/>
      <point x="342.0" y="-109.0" type="line"/>
    </contour>
  </outline>
</glyph>
<glyph name="bracketright" format="2">
  <advance width="330"/>
  <unicode hex="005D"/>
  <outline>
    <contour>
      <point x="75" y="-142" type="line"/>
      <point x="290" y="-142" type="line"/>
      <point x="290" y="782" type="line"/>
      <point x="75" y="782" type="line"/>
      <point x="75" y="718" type="line"/>
      <point x="220" y="718" type="line"/>
      <point x="220" y="-78" type="line"/>
      <point x="75" y="-78" type="line"/>
    </contour>
  </outline>
</glyph>
<glyph name="asciicircum" format="2">
  <advance width="600.0"/>
  <unicode hex="005E"/>
  <note>
asciicircum
</note>
  <outline>
    <contour>
      <point x="83.0" y="425.0" type="line"/>
      <point x="145.0" y="395.0" type="line"/>
      <point x="274.0" y="636.0" type="line"/>
      <point x="404.0" y="395.0" type="line"/>
      <point x="466.0" y="425.0" type="line"/>
      <point x="274.0" y="781.0" type="line"/>
    </contour>
  </outline>
</glyph>
<glyph name="underscore" format="2">
  <advance width="600"/>
  <unicode hex="005F"/>
  <outline>
    <contour>
      <point x="35" y="-127" type="line"/>
      <point x="548" y="-127" type="line"/>
      <point x="548" y="-63" type="line"/>
      <point x="35" y="-63" type="line"/>
    </contour>
  </outline>
</glyph>
<glyph name="a" format="2">
  <advance width="509"/>
  <unicode hex="0061"/>
  <anchor x="251" y="0" name="bottom"/>
  <anchor x="365" y="-6" name="ogonek"/>
  <anchor x="251" y="500" name="top"/>
  <outline>
    <contour>
      <point x="208" y="-6" type="curve" smooth="yes"/>
      <point x="298" y="-6"/>
      <point x="352" y="48"/>
      <point x="364" y="108" type="curve"/>
      <point x="364" y="0" type="line"/>
      <point x="434" y="0" type="line"/>
      <point x="434" y="336" type="line" smooth="yes"/>
      <point x="434" y="456"/>
      <point x="342" y="506"/>
      <point x="239" y="506" type="curve" smooth="yes"/>
      <point x="143" y="506"/>
      <point x="87" y="459"/>
      <point x="52" y="415" type="curve"/>
      <point x="100" y="373" type="line"/>
      <point x="136" y="416"/>
      <point x="176" y="442"/>
      <point x="239" y="442" type="curve" smooth="yes"/>
      <point x="317" y="442"/>
      <point x="364" y="410"/>
      <point x="364" y="336" type="curve" smooth="yes"/>
      <point x="364" y="290" type="line"/>
      <point x="333" y="297"/>
      <point x="296" y="301"/>
      <point x="263" y="301" type="curve" smooth="yes"/>
      <point x="147" y="301"/>
      <point x="40" y="267"/>
      <point x="40" y="137" type="curve" smooth="yes"/>
      <point x="40" y="71"/>
      <point x="87" y="-6"/>
    </contour>
    <contour>
      <point x="208" y="60" type="curve" smooth="yes"/>
      <point x="142" y="60"/>
      <point x="110" y="104"/>
      <point x="110" y="145" type="curve" smooth="yes"/>
      <point x="110" y="219"/>
      <point x="173" y="247"/>
      <point x="277" y="247" type="curve" smooth="yes"/>
      <point x="310" y="247"/>
      <point x="343" y="242"/>
      <point x="364" y="237" type="curve"/>
      <point x="364" y="123"/>
      <point x="305" y="60"/>
    </contour>
  </outline>
</glyph>
<glyph name="b" format="2">
  <advance width="587.0"/>
  <unicode hex="0062"/>
  <note>
b
</note>
  <outline>
    <contour>
      <point x="146.0" y="453.0" type="curve"/>
      <point x="146.0" y="700.0" type="line"/>
      <point x="76.0" y="700.0" type="line"/>
      <point x="76.0" y="0.0" type="line"/>
      <point x="146.0" y="0.0" type="line"/>
      <point x="146.0" y="59.0" type="line"/>
      <point x="185.0" y="18.0"/>
      <point x="240.0" y="-6.0"/>
      <point x="309.0" y="-6.0" type="curve" smooth="yes"/>
      <point x="450.0" y="-6.0"/>
      <point x="558.0" y="108.0"/>
      <point x="558.0" y="254.0" type="curve" smooth="yes"/>
      <point x="558.0" y="399.0"/>
      <point x="443.0" y="518.0"/>
      <point x="302.0" y="518.0" type="curve" smooth="yes"/>
      <point x="232.0" y="518.0"/>
      <point x="181.0" y="489.0"/>
    </contour>
    <contour>
      <point x="146.0" y="158.0" type="curve"/>
      <point x="146.0" y="356.0" type="line"/>
      <point x="163.0" y="403.0"/>
      <point x="214.0" y="454.0"/>
      <point x="302.0" y="454.0" type="curve" smooth="yes"/>
      <point x="402.0" y="454.0"/>
      <point x="488.0" y="366.0"/>
      <point x="488.0" y="254.0" type="curve" smooth="yes"/>
      <point x="488.0" y="141.0"/>
      <point x="408.0" y="58.0"/>
      <point x="309.0" y="58.0" type="curve" smooth="yes"/>
      <point x="223.0" y="58.0"/>
      <point x="166.0" y="107.0"/>
    </contour>
  </outline>
</glyph>
<glyph name="c" format="2">
  <advance width="531"/>
  <unicode hex="0063"/>
  <anchor x="260" y="0" name="bottom"/>
  <anchor x="260" y="500" name="top"/>
  <outline>
    <contour>
      <point x="298" y="-6" type="curve" smooth="yes"/>
      <point x="396" y="-6"/>
      <point x="463" y="38"/>
      <point x="501" y="93" type="curve"/>
      <point x="448" y="136" type="line"/>
      <point x="421" y="94"/>
      <point x="380" y="58"/>
      <point x="298" y="58" type="curve" smooth="yes"/>
      <point x="193" y="58"/>
      <point x="105" y="126"/>
      <point x="105" y="251" type="curve" smooth="yes"/>
      <point x="105" y="369"/>
      <point x="191" y="442"/>
      <point x="298" y="442" type="curve" smooth="yes"/>
      <point x="363" y="442"/>
      <point x="420" y="410"/>
      <point x="442" y="361" type="curve"/>
      <point x="494" y="406" type="line"/>
      <point x="458" y="474"/>
      <point x="372" y="506"/>
      <point x="298" y="506" type="curve" smooth="yes"/>
      <point x="149" y="506"/>
      <point x="35" y="402"/>
      <point x="35" y="251" type="curve" smooth="yes"/>
      <point x="35" y="92"/>
      <point x="153" y="-6"/>
    </contour>
  </outline>
</glyph>
<glyph name="d" format="2">
  <advance width="564.0"/>
  <unicode hex="0064"/>
  <note>
d
</note>
  <outline>
    <contour>
      <point x="449.0" y="0.0" type="line"/>
      <point x="519.0" y="0.0" type="line"/>
      <point x="519.0" y="700.0" type="line"/>
      <point x="449.0" y="700.0" type="line"/>
      <point x="449.0" y="453.0" type="line"/>
      <point x="413.0" y="489.0"/>
      <point x="362.0" y="518.0"/>
      <point x="292.0" y="518.0" type="curve" smooth="yes"/>
      <point x="151.0" y="518.0"/>
      <point x="37.0" y="399.0"/>
      <point x="37.0" y="254.0" type="curve" smooth="yes"/>
      <point x="37.0" y="108.0"/>
      <point x="145.0" y="-6.0"/>
      <point x="286.0" y="-6.0" type="curve" smooth="yes"/>
      <point x="355.0" y="-6.0"/>
      <point x="410.0" y="18.0"/>
      <point x="449.0" y="59.0" type="curve"/>
    </contour>
    <contour>
      <point x="449.0" y="356.0" type="curve"/>
      <point x="449.0" y="158.0" type="line"/>
      <point x="428.0" y="107.0"/>
      <point x="371.0" y="58.0"/>
      <point x="286.0" y="58.0" type="curve" smooth="yes"/>
      <point x="187.0" y="58.0"/>
      <point x="107.0" y="141.0"/>
      <point x="107.0" y="254.0" type="curve" smooth="yes"/>
      <point x="107.0" y="366.0"/>
      <point x="192.0" y="454.0"/>
      <point x="292.0" y="454.0" type="curve" smooth="yes"/>
      <point x="380.0" y="454.0"/>
      <point x="432.0" y="403.0"/>
    </contour>
  </outline>
</glyph>
<glyph name="e" format="2">
  <advance width="533"/>
  <unicode hex="0065"/>
  <anchor x="286" y="0" name="bottom"/>
  <anchor x="405" y="33" name="ogonek"/>
  <anchor x="286" y="500" name="top"/>
  <outline>
    <contour>
      <point x="71" y="292" type="line"/>
      <point x="71" y="237" type="line"/>
      <point x="498" y="237" type="line"/>
      <point x="525" y="380"/>
      <point x="444" y="513"/>
      <point x="277" y="513" type="curve" smooth="yes"/>
      <point x="120" y="513"/>
      <point x="35" y="401"/>
      <point x="35" y="260" type="curve" smooth="yes"/>
      <point x="35" y="118"/>
      <point x="119" y="-10"/>
      <point x="288" y="-10" type="curve" smooth="yes"/>
      <point x="427" y="-10"/>
      <point x="485" y="78"/>
      <point x="501" y="108" type="curve"/>
      <point x="447" y="150" type="line"/>
      <point x="425" y="97"/>
      <point x="378" y="54"/>
      <point x="288" y="54" type="curve" smooth="yes"/>
      <point x="183" y="54"/>
      <point x="105" y="125"/>
      <point x="105" y="260" type="curve" smooth="yes"/>
      <point x="105" y="394"/>
      <point x="184" y="455"/>
      <point x="277" y="455" type="curve" smooth="yes"/>
      <point x="385" y="455"/>
      <point x="444" y="383"/>
      <point x="428" y="272" type="curve"/>
      <point x="447" y="292" type="line"/>
    </contour>
  </outline>
</glyph>
<glyph name="f" format="2">
  <advance width="344"/>
  <unicode hex="0066"/>
  <anchor x="172" y="0" name="bottom"/>
  <anchor x="172" y="500" name="top"/>
  <outline>
    <contour>
      <point x="103" y="0" type="line"/>
      <point x="173" y="0" type="line"/>
      <point x="173" y="436" type="line"/>
      <point x="316" y="436" type="line"/>
      <point x="316" y="500" type="line"/>
      <point x="173" y="500" type="line"/>
      <point x="173" y="571" type="line" smooth="yes"/>
      <point x="173" y="622"/>
      <point x="190" y="653"/>
      <point x="236" y="653" type="curve" smooth="yes"/>
      <point x="255" y="653"/>
      <point x="283" y="646"/>
      <point x="309" y="616" type="curve"/>
      <point x="345" y="667" type="line"/>
      <point x="323" y="698"/>
      <point x="279" y="715"/>
      <point x="231" y="715" type="curve" smooth="yes"/>
      <point x="133" y="715"/>
      <point x="103" y="653"/>
      <point x="103" y="571" type="curve" smooth="yes"/>
      <point x="103" y="500" type="line"/>
      <point x="9" y="500" type="line"/>
      <point x="9" y="436" type="line"/>
      <point x="103" y="436" type="line"/>
    </contour>
  </outline>
</glyph>
<glyph name="g" format="2">
  <advance width="561"/>
  <unicode hex="0067"/>
  <anchor x="280" y="0" name="bottom"/>
  <anchor x="280" y="500" name="top"/>
  <outline>
    <contour>
      <point x="342" y="484" type="line"/>
      <point x="404" y="434" type="line"/>
      <point x="520" y="417" type="line"/>
      <point x="531" y="495" type="line"/>
    </contour>
    <contour>
      <point x="272" y="207" type="curve" smooth="yes"/>
      <point x="212" y="207"/>
      <point x="160" y="255"/>
      <point x="160" y="325" type="curve" smooth="yes"/>
      <point x="160" y="395"/>
      <point x="212" y="442"/>
      <point x="272" y="442" type="curve" smooth="yes"/>
      <point x="332" y="442"/>
      <point x="385" y="395"/>
      <point x="385" y="325" type="curve" smooth="yes"/>
      <point x="385" y="255"/>
      <point x="333" y="207"/>
    </contour>
    <contour>
      <point x="455" y="425"/>
      <point x="372" y="506"/>
      <point x="272" y="506" type="curve" smooth="yes"/>
      <point x="172" y="506"/>
      <point x="90" y="425"/>
      <point x="90" y="325" type="curve" smooth="yes"/>
      <point x="90" y="269"/>
      <point x="114" y="220"/>
      <point x="154" y="186" type="curve"/>
      <point x="189" y="199" type="line"/>
      <point x="98" y="211"/>
      <point x="39" y="156"/>
      <point x="39" y="91" type="curve" smooth="yes"/>
      <point x="39" y="-27"/>
      <point x="175" y="-24"/>
      <point x="297" y="-24" type="curve" smooth="yes"/>
      <point x="390" y="-24"/>
      <point x="456" y="-37"/>
      <point x="456" y="-111" type="curve" smooth="yes"/>
      <point x="456" y="-201"/>
      <point x="371" y="-241"/>
      <point x="251" y="-241" type="curve" smooth="yes"/>
      <point x="131" y="-241"/>
      <point x="95" y="-184"/>
      <point x="96" y="-124" type="curve" smooth="yes"/>
      <point x="97" y="-75"/>
      <point x="138" y="-28"/>
      <point x="184" y="-17" type="curve"/>
      <point x="139" y="2" type="line"/>
      <point x="78" y="-25"/>
      <point x="33" y="-79"/>
      <point x="33" y="-149" type="curve" smooth="yes"/>
      <point x="33" y="-228"/>
      <point x="95" y="-305"/>
      <point x="250" y="-305" type="curve" smooth="yes"/>
      <point x="444" y="-305"/>
      <point x="525" y="-213"/>
      <point x="525" y="-107" type="curve" smooth="yes"/>
      <point x="525" y="26"/>
      <point x="411" y="40"/>
      <point x="284" y="40" type="curve" smooth="yes"/>
      <point x="256" y="40"/>
      <point x="230" y="39"/>
      <point x="209" y="39" type="curve" smooth="yes"/>
      <point x="150" y="39"/>
      <point x="103" y="51"/>
      <point x="103" y="100" type="curve" smooth="yes"/>
      <point x="103" y="163"/>
      <point x="166" y="169"/>
      <point x="192" y="159" type="curve" smooth="yes"/>
      <point x="227" y="146"/>
      <point x="245" y="143"/>
      <point x="272" y="143" type="curve" smooth="yes"/>
      <point x="373" y="143"/>
      <point x="455" y="224"/>
      <point x="455" y="325" type="curve" smooth="yes"/>
    </contour>
  </outline>
</glyph>
<glyph name="h" format="2">
  <advance width="561.0"/>
  <unicode hex="0068"/>
  <note>
h
</note>
  <outline>
    <contour>
      <point x="146.0" y="452.0" type="curve"/>
      <point x="146.0" y="700.0" type="line"/>
      <point x="76.0" y="700.0" type="line"/>
      <point x="76.0" y="0.0" type="line"/>
      <point x="146.0" y="0.0" type="line"/>
      <point x="146.0" y="352.0" type="line"/>
      <point x="164.0" y="402.0"/>
      <point x="212.0" y="450.0"/>
      <point x="280.0" y="450.0" type="curve" smooth="yes"/>
      <point x="367.0" y="450.0"/>
      <point x="425.0" y="395.0"/>
      <point x="425.0" y="285.0" type="curve" smooth="yes"/>
      <point x="425.0" y="0.0" type="line"/>
      <point x="495.0" y="0.0" type="line"/>
      <point x="495.0" y="285.0" type="line" smooth="yes"/>
      <point x="495.0" y="428.0"/>
      <point x="406.0" y="513.0"/>
      <point x="280.0" y="513.0" type="curve" smooth="yes"/>
      <point x="227.0" y="513.0"/>
      <point x="181.0" y="491.0"/>
    </contour>
  </outline>
</glyph>
<glyph name="i" format="2">
  <advance width="205.0"/>
  <unicode hex="0069"/>
  <note>
i
</note>
  <outline>
    <contour>
      <point x="56.0" y="604.0" type="curve" smooth="yes"/>
      <point x="56.0" y="629.0"/>
      <point x="78.0" y="650.0"/>
      <point x="103.0" y="650.0" type="curve" smooth="yes"/>
      <point x="128.0" y="650.0"/>
      <point x="149.0" y="629.0"/>
      <point x="149.0" y="604.0" type="curve" smooth="yes"/>
      <point x="149.0" y="579.0"/>
      <point x="128.0" y="557.0"/>
      <point x="103.0" y="557.0" type="curve" smooth="yes"/>
      <point x="78.0" y="557.0"/>
      <point x="56.0" y="579.0"/>
    </contour>
    <contour>
      <point x="68.0" y="507.0" type="line"/>
      <point x="68.0" y="0.0" type="line"/>
      <point x="138.0" y="0.0" type="line"/>
      <point x="138.0" y="507.0" type="line"/>
    </contour>
  </outline>
</glyph>
<glyph name="j" format="2">
  <advance width="224.0"/>
  <unicode hex="006A"/>
  <note>
j
</note>
  <outline>
    <contour>
      <point x="75.0" y="604.0" type="curve" smooth="yes"/>
      <point x="75.0" y="629.0"/>
      <point x="96.0" y="650.0"/>
      <point x="121.0" y="650.0" type="curve" smooth="yes"/>
      <point x="146.0" y="650.0"/>
      <point x="168.0" y="629.0"/>
      <point x="168.0" y="604.0" type="curve" smooth="yes"/>
      <point x="168.0" y="578.0"/>
      <point x="147.0" y="557.0"/>
      <point x="121.0" y="557.0" type="curve" smooth="yes"/>
      <point x="96.0" y="557.0"/>
      <point x="75.0" y="578.0"/>
    </contour>
    <contour>
      <point x="156.0" y="-9.0" type="curve" smooth="yes"/>
      <point x="156.0" y="507.0" type="line"/>
      <point x="86.0" y="507.0" type="line"/>
      <point x="86.0" y="-9.0" type="line" smooth="yes"/>
      <point x="86.0" y="-95.0"/>
      <point x="23.0" y="-140.0"/>
      <point x="-50.0" y="-140.0" type="curve"/>
      <point x="-50.0" y="-204.0" type="line"/>
      <point x="58.0" y="-204.0"/>
      <point x="156.0" y="-136.0"/>
    </contour>
  </outline>
</glyph>
<glyph name="k" format="2">
  <advance width="482"/>
  <unicode hex="006B"/>
  <anchor x="234" y="0" name="bottom"/>
  <anchor x="234" y="500" name="top"/>
  <outline>
    <contour>
      <point x="60" y="0" type="line"/>
      <point x="130" y="0" type="line"/>
      <point x="130" y="297" type="line"/>
      <point x="109" y="219" type="line"/>
      <point x="198" y="290" type="line"/>
      <point x="379" y="0" type="line"/>
      <point x="457" y="0" type="line"/>
      <point x="234" y="358" type="line"/>
      <point x="217" y="305" type="line"/>
      <point x="467" y="500" type="line"/>
      <point x="355" y="500" type="line"/>
      <point x="116" y="314" type="line"/>
      <point x="130" y="301" type="line"/>
      <point x="130" y="700" type="line"/>
      <point x="60" y="700" type="line"/>
    </contour>
  </outline>
</glyph>
<glyph name="l" format="2">
  <advance width="190"/>
  <unicode hex="006C"/>
  <anchor x="96" y="0" name="bottom"/>
  <anchor x="96" y="700" name="top"/>
  <outline>
    <contour>
      <point x="60" y="0" type="line"/>
      <point x="130" y="0" type="line"/>
      <point x="130" y="700" type="line"/>
      <point x="60" y="700" type="line"/>
    </contour>
  </outline>
</glyph>
<glyph name="m" format="2">
  <advance width="880.0"/>
  <unicode hex="006D"/>
  <note>
m
</note>
  <outline>
    <contour>
      <point x="146.0" y="456.0" type="curve"/>
      <point x="146.0" y="507.0" type="line"/>
      <point x="76.0" y="507.0" type="line"/>
      <point x="76.0" y="0.0" type="line"/>
      <point x="146.0" y="0.0" type="line"/>
      <point x="146.0" y="350.0" type="line"/>
      <point x="169.0" y="416.0"/>
      <point x="227.0" y="449.0"/>
      <point x="279.0" y="449.0" type="curve" smooth="yes"/>
      <point x="356.0" y="449.0"/>
      <point x="409.0" y="398.0"/>
      <point x="409.0" y="291.0" type="curve" smooth="yes"/>
      <point x="409.0" y="0.0" type="line"/>
      <point x="479.0" y="0.0" type="line"/>
      <point x="479.0" y="291.0" type="line" smooth="yes"/>
      <point x="479.0" y="318.0"/>
      <point x="476.0" y="342.0"/>
      <point x="471.0" y="365.0" type="curve"/>
      <point x="492.0" y="410.0"/>
      <point x="537.0" y="450.0"/>
      <point x="599.0" y="450.0" type="curve" smooth="yes"/>
      <point x="686.0" y="450.0"/>
      <point x="744.0" y="397.0"/>
      <point x="744.0" y="287.0" type="curve" smooth="yes"/>
      <point x="744.0" y="0.0" type="line"/>
      <point x="814.0" y="0.0" type="line"/>
      <point x="814.0" y="287.0" type="line" smooth="yes"/>
      <point x="814.0" y="430.0"/>
      <point x="725.0" y="513.0"/>
      <point x="599.0" y="513.0" type="curve" smooth="yes"/>
      <point x="530.0" y="513.0"/>
      <point x="476.0" y="477.0"/>
      <point x="445.0" y="427.0" type="curve"/>
      <point x="410.0" y="483.0"/>
      <point x="351.0" y="513.0"/>
      <point x="279.0" y="513.0" type="curve" smooth="yes"/>
      <point x="229.0" y="513.0"/>
      <point x="181.0" y="493.0"/>
    </contour>
  </outline>
</glyph>
<glyph name="n" format="2">
  <advance width="526"/>
  <unicode hex="006E"/>
  <anchor x="258" y="0" name="bottom"/>
  <anchor x="258" y="500" name="top"/>
  <outline>
    <contour>
      <point x="50" y="0" type="line"/>
      <point x="120" y="0" type="line"/>
      <point x="120" y="318" type="line"/>
      <point x="130" y="376"/>
      <point x="191" y="442"/>
      <point x="271" y="442" type="curve" smooth="yes"/>
      <point x="359" y="442"/>
      <point x="406" y="396"/>
      <point x="406" y="293" type="curve" smooth="yes"/>
      <point x="406" y="0" type="line"/>
      <point x="476" y="0" type="line"/>
      <point x="476" y="294" type="line" smooth="yes"/>
      <point x="476" y="437"/>
      <point x="411" y="506"/>
      <point x="281" y="506" type="curve" smooth="yes"/>
      <point x="202" y="506"/>
      <point x="140" y="449"/>
      <point x="120" y="396" type="curve"/>
      <point x="120" y="500" type="line"/>
      <point x="50" y="500" type="line"/>
    </contour>
  </outline>
</glyph>
<glyph name="o" format="2">
  <advance width="586"/>
  <unicode hex="006F"/>
  <anchor x="293" y="0" name="bottom"/>
  <anchor x="293" y="500" name="top"/>
  <outline>
    <contour>
      <point x="293" y="-6" type="curve" smooth="yes"/>
      <point x="436" y="-6"/>
      <point x="551" y="101"/>
      <point x="551" y="250" type="curve" smooth="yes"/>
      <point x="551" y="400"/>
      <point x="435" y="506"/>
      <point x="293" y="506" type="curve" smooth="yes"/>
      <point x="152" y="506"/>
      <point x="35" y="400"/>
      <point x="35" y="250" type="curve" smooth="yes"/>
      <point x="35" y="100"/>
      <point x="151" y="-6"/>
    </contour>
    <contour>
      <point x="293" y="58" type="curve" smooth="yes"/>
      <point x="191" y="58"/>
      <point x="105" y="134"/>
      <point x="105" y="250" type="curve" smooth="yes"/>
      <point x="105" y="366"/>
      <point x="192" y="442"/>
      <point x="293" y="442" type="curve" smooth="yes"/>
      <point x="395" y="442"/>
      <point x="481" y="366"/>
      <point x="481" y="250" type="curve" smooth="yes"/>
      <point x="481" y="135"/>
      <point x="395" y="58"/>
    </contour>
  </outline>
</glyph>
<glyph name="p" format="2">
  <advance width="596.0"/>
  <unicode hex="0070"/>
  <note>
p
</note>
  <outline>
    <contour>
      <point x="145.0" y="454.0" type="curve"/>
      <point x="145.0" y="500.0" type="line"/>
      <point x="75.0" y="500.0" type="line"/>
      <point x="75.0" y="-200.0" type="line"/>
      <point x="145.0" y="-200.0" type="line"/>
      <point x="145.0" y="58.0" type="line"/>
      <point x="184.0" y="18.0"/>
      <point x="239.0" y="-6.0"/>
      <point x="307.0" y="-6.0" type="curve" smooth="yes"/>
      <point x="448.0" y="-6.0"/>
      <point x="556.0" y="108.0"/>
      <point x="556.0" y="254.0" type="curve" smooth="yes"/>
      <point x="556.0" y="399.0"/>
      <point x="442.0" y="518.0"/>
      <point x="301.0" y="518.0" type="curve" smooth="yes"/>
      <point x="231.0" y="518.0"/>
      <point x="180.0" y="490.0"/>
    </contour>
    <contour>
      <point x="145.0" y="157.0" type="curve"/>
      <point x="145.0" y="358.0" type="line"/>
      <point x="163.0" y="405.0"/>
      <point x="214.0" y="454.0"/>
      <point x="301.0" y="454.0" type="curve" smooth="yes"/>
      <point x="401.0" y="454.0"/>
      <point x="486.0" y="366.0"/>
      <point x="486.0" y="254.0" type="curve" smooth="yes"/>
      <point x="486.0" y="141.0"/>
      <point x="406.0" y="58.0"/>
      <point x="307.0" y="58.0" type="curve" smooth="yes"/>
      <point x="223.0" y="58.0"/>
      <point x="166.0" y="106.0"/>
    </contour>
  </outline>
</glyph>
<glyph name="q" format="2">
  <advance width="596.0"/>
  <unicode hex="0071"/>
  <note>
q
</note>
  <outline>
    <contour>
      <point x="449.0" y="-200.0" type="line"/>
      <point x="519.0" y="-200.0" type="line"/>
      <point x="519.0" y="500.0" type="line"/>
      <point x="449.0" y="500.0" type="line"/>
      <point x="449.0" y="454.0" type="line"/>
      <point x="414.0" y="490.0"/>
      <point x="363.0" y="518.0"/>
      <point x="293.0" y="518.0" type="curve" smooth="yes"/>
      <point x="152.0" y="518.0"/>
      <point x="38.0" y="399.0"/>
      <point x="38.0" y="254.0" type="curve" smooth="yes"/>
      <point x="38.0" y="108.0"/>
      <point x="146.0" y="-6.0"/>
      <point x="287.0" y="-6.0" type="curve" smooth="yes"/>
      <point x="355.0" y="-6.0"/>
      <point x="410.0" y="18.0"/>
      <point x="449.0" y="58.0" type="curve"/>
    </contour>
    <contour>
      <point x="449.0" y="358.0" type="curve"/>
      <point x="449.0" y="157.0" type="line"/>
      <point x="428.0" y="106.0"/>
      <point x="371.0" y="58.0"/>
      <point x="287.0" y="58.0" type="curve" smooth="yes"/>
      <point x="188.0" y="58.0"/>
      <point x="108.0" y="141.0"/>
      <point x="108.0" y="254.0" type="curve" smooth="yes"/>
      <point x="108.0" y="366.0"/>
      <point x="193.0" y="454.0"/>
      <point x="293.0" y="454.0" type="curve" smooth="yes"/>
      <point x="380.0" y="454.0"/>
      <point x="431.0" y="405.0"/>
    </contour>
  </outline>
</glyph>
<glyph name="r" format="2">
  <advance width="355.0"/>
  <unicode hex="0072"/>
  <note>
r
</note>
  <outline>
    <contour>
      <point x="146.0" y="449.0" type="curve"/>
      <point x="146.0" y="509.0" type="line"/>
      <point x="76.0" y="509.0" type="line"/>
      <point x="76.0" y="0.0" type="line"/>
      <point x="146.0" y="0.0" type="line"/>
      <point x="146.0" y="306.0" type="line"/>
      <point x="151.0" y="401.0"/>
      <point x="210.0" y="449.0"/>
      <point x="266.0" y="449.0" type="curve" smooth="yes"/>
      <point x="281.0" y="449.0"/>
      <point x="297.0" y="443.0"/>
      <point x="307.0" y="435.0" type="curve"/>
      <point x="343.0" y="497.0" type="line"/>
      <point x="320.0" y="506.0"/>
      <point x="294.0" y="513.0"/>
      <point x="266.0" y="513.0" type="curve" smooth="yes"/>
      <point x="221.0" y="513.0"/>
      <point x="174.0" y="498.0"/>
    </contour>
  </outline>
</glyph>
<glyph name="s" format="2">
  <advance width="408"/>
  <unicode hex="0073"/>
  <anchor x="194" y="0" name="bottom"/>
  <anchor x="194" y="500" name="top"/>
  <outline>
    <contour>
      <point x="208" y="-6" type="curve" smooth="yes"/>
      <point x="301" y="-6"/>
      <point x="383" y="49"/>
      <point x="383" y="149" type="curve" smooth="yes"/>
      <point x="383" y="328"/>
      <point x="121" y="281"/>
      <point x="121" y="379" type="curve" smooth="yes"/>
      <point x="121" y="417"/>
      <point x="149" y="443"/>
      <point x="199" y="443" type="curve" smooth="yes"/>
      <point x="237" y="443"/>
      <point x="270" y="425"/>
      <point x="298" y="390" type="curve"/>
      <point x="348" y="435" type="line"/>
      <point x="307" y="484"/>
      <point x="259" y="506"/>
      <point x="196" y="506" type="curve" smooth="yes"/>
      <point x="107" y="506"/>
      <point x="51" y="453"/>
      <point x="51" y="379" type="curve" smooth="yes"/>
      <point x="51" y="229"/>
      <point x="313" y="284"/>
      <point x="313" y="149" type="curve" smooth="yes"/>
      <point x="313" y="95"/>
      <point x="270" y="58"/>
      <point x="208" y="58" type="curve" smooth="yes"/>
      <point x="151" y="58"/>
      <point x="104" y="83"/>
      <point x="70" y="126" type="curve"/>
      <point x="20" y="80" type="line"/>
      <point x="64" y="34"/>
      <point x="125" y="-6"/>
    </contour>
  </outline>
</glyph>
<glyph name="t" format="2">
  <advance width="338.0"/>
  <unicode hex="0074"/>
  <note>
t
</note>
  <outline>
    <contour>
      <point x="327.0" y="27.0" type="curve"/>
      <point x="295.0" y="84.0" type="line"/>
      <point x="280.0" y="73.0"/>
      <point x="261.0" y="65.0"/>
      <point x="244.0" y="62.0" type="curve" smooth="yes"/>
      <point x="165.0" y="48.0"/>
      <point x="156.0" y="98.0"/>
      <point x="156.0" y="155.0" type="curve" smooth="yes"/>
      <point x="156.0" y="443.0" type="line"/>
      <point x="313.0" y="443.0" type="line"/>
      <point x="313.0" y="507.0" type="line"/>
      <point x="156.0" y="507.0" type="line"/>
      <point x="156.0" y="700.0" type="line"/>
      <point x="86.0" y="700.0" type="line"/>
      <point x="86.0" y="507.0" type="line"/>
      <point x="6.0" y="507.0" type="line"/>
      <point x="6.0" y="443.0" type="line"/>
      <point x="86.0" y="443.0" type="line"/>
      <point x="86.0" y="155.0" type="line" smooth="yes"/>
      <point x="86.0" y="77.0"/>
      <point x="100.0" y="-18.0"/>
      <point x="244.0" y="-2.0" type="curve" smooth="yes"/>
      <point x="271.0" y="1.0"/>
      <point x="307.0" y="13.0"/>
    </contour>
  </outline>
</glyph>
<glyph name="v" format="2">
  <advance width="492"/>
  <unicode hex="0076"/>
  <anchor x="246" y="0" name="bottom"/>
  <anchor x="246" y="500" name="top"/>
  <outline>
    <contour>
      <point x="217" y="0" type="line"/>
      <point x="275" y="0" type="line"/>
      <point x="482" y="500" type="line"/>
      <point x="407" y="500" type="line"/>
      <point x="241" y="92" type="line"/>
      <point x="251" y="92" type="line"/>
      <point x="85" y="500" type="line"/>
      <point x="10" y="500" type="line"/>
    </contour>
  </outline>
</glyph>
<glyph name="w" format="2">
  <advance width="725"/>
  <unicode hex="0077"/>
  <anchor x="362" y="0" name="bottom"/>
  <anchor x="362" y="500" name="top"/>
  <outline>
    <contour>
      <point x="85" y="500" type="line"/>
      <point x="10" y="500" type="line"/>
      <point x="177" y="0" type="line"/>
      <point x="234" y="0" type="line"/>
      <point x="371" y="415" type="line"/>
      <point x="354" y="415" type="line"/>
      <point x="491" y="0" type="line"/>
      <point x="548" y="0" type="line"/>
      <point x="715" y="500" type="line"/>
      <point x="640" y="500" type="line"/>
      <point x="512" y="79" type="line"/>
      <point x="527" y="79" type="line"/>
      <point x="399" y="500" type="line"/>
      <point x="326" y="500" type="line"/>
      <point x="198" y="79" type="line"/>
      <point x="213" y="79" type="line"/>
    </contour>
  </outline>
</glyph>
<glyph name="x" format="2">
  <advance width="548.0"/>
  <unicode hex="0078"/>
  <note>
x
</note>
  <outline>
    <contour>
      <point x="274.0" y="306.0" type="line"/>
      <point x="110.0" y="500.0" type="line"/>
      <point x="21.0" y="500.0" type="line"/>
      <point x="230.0" y="254.0" type="line"/>
      <point x="15.0" y="0.0" type="line"/>
      <point x="103.0" y="0.0" type="line"/>
      <point x="274.0" y="201.0" type="line"/>
      <point x="445.0" y="0.0" type="line"/>
      <point x="533.0" y="0.0" type="line"/>
      <point x="318.0" y="254.0" type="line"/>
      <point x="527.0" y="500.0" type="line"/>
      <point x="439.0" y="500.0" type="line"/>
    </contour>
  </outline>
</glyph>
<glyph name="y" format="2">
  <advance width="594"/>
  <unicode hex="0079"/>
  <anchor x="297" y="0" name="bottom"/>
  <anchor x="297" y="500" name="top"/>
  <outline>
    <contour>
      <point x="100" y="-200" type="line"/>
      <point x="180" y="-200" type="line"/>
      <point x="589" y="500" type="line"/>
      <point x="510" y="500" type="line"/>
      <point x="301" y="143" type="line"/>
      <point x="91" y="500" type="line"/>
      <point x="10" y="500" type="line"/>
      <point x="261" y="75" type="line"/>
    </contour>
  </outline>
</glyph>
<glyph name="z" format="2">
  <advance width="504"/>
  <unicode hex="007A"/>
  <anchor x="252" y="0" name="bottom"/>
  <anchor x="252" y="500" name="top"/>
  <outline>
    <contour>
      <point x="40" y="0" type="line"/>
      <point x="458" y="0" type="line"/>
      <point x="458" y="70" type="line"/>
      <point x="141" y="70" type="line"/>
      <point x="464" y="454" type="line"/>
      <point x="464" y="500" type="line"/>
      <point x="44" y="500" type="line"/>
      <point x="44" y="430" type="line"/>
      <point x="357" y="430" type="line"/>
      <point x="40" y="52" type="line"/>
    </contour>
  </outline>
</glyph>
<glyph name="braceleft" format="2">
  <advance width="309.0"/>
  <unicode hex="007B"/>
  <note>
braceleft
</note>
  <outline>
    <contour>
      <point x="304.0" y="-144.0" type="curve"/>
      <point x="273.0" y="-86.0" type="line"/>
      <point x="270.0" y="-88.0"/>
      <point x="246.0" y="-99.0"/>
      <point x="221.0" y="-99.0" type="curve" smooth="yes"/>
      <point x="189.0" y="-99.0"/>
      <point x="155.0" y="-81.0"/>
      <point x="155.0" y="-3.0" type="curve" smooth="yes"/>
      <point x="155.0" y="48.0"/>
      <point x="161.0" y="108.0"/>
      <point x="161.0" y="163.0" type="curve" smooth="yes"/>
      <point x="161.0" y="226.0"/>
      <point x="153.0" y="284.0"/>
      <point x="117.0" y="318.0" type="curve"/>
      <point x="153.0" y="353.0"/>
      <point x="161.0" y="410.0"/>
      <point x="161.0" y="474.0" type="curve" smooth="yes"/>
      <point x="161.0" y="529.0"/>
      <point x="155.0" y="588.0"/>
      <point x="155.0" y="640.0" type="curve" smooth="yes"/>
      <point x="155.0" y="716.0"/>
      <point x="189.0" y="734.0"/>
      <point x="222.0" y="734.0" type="curve" smooth="yes"/>
      <point x="248.0" y="734.0"/>
      <point x="273.0" y="723.0"/>
      <point x="280.0" y="721.0" type="curve"/>
      <point x="297.0" y="783.0" type="line"/>
      <point x="297.0" y="783.0"/>
      <point x="260.0" y="797.0"/>
      <point x="218.0" y="797.0" type="curve" smooth="yes"/>
      <point x="157.0" y="797.0"/>
      <point x="85.0" y="770.0"/>
      <point x="85.0" y="640.0" type="curve" smooth="yes"/>
      <point x="85.0" y="576.0"/>
      <point x="91.0" y="516.0"/>
      <point x="91.0" y="467.0" type="curve" smooth="yes"/>
      <point x="91.0" y="397.0"/>
      <point x="79.0" y="350.0"/>
      <point x="20.0" y="350.0" type="curve"/>
      <point x="20.0" y="286.0" type="line"/>
      <point x="79.0" y="286.0"/>
      <point x="91.0" y="240.0"/>
      <point x="91.0" y="169.0" type="curve" smooth="yes"/>
      <point x="91.0" y="121.0"/>
      <point x="85.0" y="60.0"/>
      <point x="85.0" y="-3.0" type="curve" smooth="yes"/>
      <point x="85.0" y="-133.0"/>
      <point x="153.0" y="-162.0"/>
      <point x="213.0" y="-162.0" type="curve" smooth="yes"/>
      <point x="261.0" y="-162.0"/>
      <point x="304.0" y="-144.0"/>
    </contour>
  </outline>
</glyph>
<glyph name="bar" format="2">
  <advance width="600.0"/>
  <unicode hex="007C"/>
  <note>
bar
</note>
  <outline>
    <contour>
      <point x="292.0" y="769.0" type="line"/>
      <point x="292.0" y="-164.0" type="line"/>
      <point x="362.0" y="-164.0" type="line"/>
      <point x="362.0" y="769.0" type="line"/>
    </contour>
  </outline>
</glyph>
<glyph name="braceright" format="2">
  <advance width="309.0"/>
  <unicode hex="007D"/>
  <note>
braceright
</note>
  <outline>
    <contour>
      <point x="5.0" y="-144.0" type="curve"/>
      <point x="36.0" y="-86.0" type="line"/>
      <point x="40.0" y="-88.0"/>
      <point x="63.0" y="-99.0"/>
      <point x="88.0" y="-99.0" type="curve" smooth="yes"/>
      <point x="120.0" y="-99.0"/>
      <point x="154.0" y="-81.0"/>
      <point x="154.0" y="-3.0" type="curve" smooth="yes"/>
      <point x="154.0" y="48.0"/>
      <point x="148.0" y="108.0"/>
      <point x="148.0" y="163.0" type="curve" smooth="yes"/>
      <point x="148.0" y="226.0"/>
      <point x="156.0" y="284.0"/>
      <point x="193.0" y="318.0" type="curve"/>
      <point x="156.0" y="353.0"/>
      <point x="148.0" y="410.0"/>
      <point x="148.0" y="474.0" type="curve" smooth="yes"/>
      <point x="148.0" y="529.0"/>
      <point x="154.0" y="588.0"/>
      <point x="154.0" y="640.0" type="curve" smooth="yes"/>
      <point x="154.0" y="716.0"/>
      <point x="120.0" y="734.0"/>
      <point x="87.0" y="734.0" type="curve" smooth="yes"/>
      <point x="61.0" y="734.0"/>
      <point x="36.0" y="723.0"/>
      <point x="29.0" y="721.0" type="curve"/>
      <point x="12.0" y="783.0" type="line"/>
      <point x="12.0" y="783.0"/>
      <point x="49.0" y="797.0"/>
      <point x="92.0" y="797.0" type="curve" smooth="yes"/>
      <point x="152.0" y="797.0"/>
      <point x="224.0" y="770.0"/>
      <point x="224.0" y="640.0" type="curve" smooth="yes"/>
      <point x="224.0" y="576.0"/>
      <point x="218.0" y="516.0"/>
      <point x="218.0" y="467.0" type="curve" smooth="yes"/>
      <point x="218.0" y="397.0"/>
      <point x="230.0" y="350.0"/>
      <point x="289.0" y="350.0" type="curve"/>
      <point x="289.0" y="286.0" type="line"/>
      <point x="230.0" y="286.0"/>
      <point x="218.0" y="240.0"/>
      <point x="218.0" y="169.0" type="curve" smooth="yes"/>
      <point x="218.0" y="121.0"/>
      <point x="224.0" y="60.0"/>
      <point x="224.0" y="-3.0" type="curve" smooth="yes"/>
      <point x="224.0" y="-133.0"/>
      <point x="156.0" y="-162.0"/>
      <point x="96.0" y="-162.0" type="curve" smooth="yes"/>
      <point x="48.0" y="-162.0"/>
      <point x="5.0" y="-144.0"/>
    </contour>
  </outline>
</glyph>
<glyph name="asciitilde" format="2">
  <advance width="600.0"/>
  <unicode hex="007E"/>
  <note>
asciitilde
</note>
  <outline>
    <contour>
      <point x="86.0" y="284.0" type="curve"/>
      <point x="152.0" y="306.0" type="line"/>
      <point x="148.0" y="316.0"/>
      <point x="147.0" y="327.0"/>
      <point x="147.0" y="338.0" type="curve" smooth="yes"/>
      <point x="147.0" y="377.0"/>
      <point x="167.0" y="403.0"/>
      <point x="205.0" y="403.0" type="curve" smooth="yes"/>
      <point x="285.0" y="403.0"/>
      <point x="311.0" y="254.0"/>
      <point x="422.0" y="254.0" type="curve" smooth="yes"/>
      <point x="485.0" y="254.0"/>
      <point x="556.0" y="295.0"/>
      <point x="556.0" y="378.0" type="curve" smooth="yes"/>
      <point x="556.0" y="403.0"/>
      <point x="549.0" y="428.0"/>
      <point x="536.0" y="450.0" type="curve"/>
      <point x="475.0" y="417.0" type="line"/>
      <point x="482.0" y="406.0"/>
      <point x="485.0" y="393.0"/>
      <point x="485.0" y="380.0" type="curve" smooth="yes"/>
      <point x="485.0" y="349.0"/>
      <point x="466.0" y="319.0"/>
      <point x="427.0" y="319.0" type="curve" smooth="yes"/>
      <point x="350.0" y="319.0"/>
      <point x="320.0" y="469.0"/>
      <point x="208.0" y="469.0" type="curve" smooth="yes"/>
      <point x="136.0" y="469.0"/>
      <point x="77.0" y="419.0"/>
      <point x="77.0" y="337.0" type="curve" smooth="yes"/>
      <point x="77.0" y="319.0"/>
      <point x="80.0" y="301.0"/>
    </contour>
  </outline>
</glyph>
<glyph name="exclamdown" format="2">
  <advance width="600.0"/>
  <unicode hex="00A1"/>
  <note>
exclamdown
</note>
  <outline>
    <contour>
      <point x="207.0" y="791.0" type="curve" smooth="yes"/>
      <point x="242.0" y="791.0"/>
      <point x="270.0" y="763.0"/>
      <point x="270.0" y="728.0" type="curve" smooth="yes"/>
      <point x="270.0" y="694.0"/>
      <point x="242.0" y="665.0"/>
      <point x="207.0" y="665.0" type="curve" smooth="yes"/>
      <point x="173.0" y="665.0"/>
      <point x="145.0" y="694.0"/>
      <point x="145.0" y="728.0" type="curve" smooth="yes"/>
      <point x="145.0" y="763.0"/>
      <point x="173.0" y="791.0"/>
    </contour>
    <contour>
      <point x="172.0" y="550.0" type="line"/>
      <point x="242.0" y="550.0" type="line"/>
      <point x="260.0" y="83.0" type="line"/>
      <point x="154.0" y="83.0" type="line"/>
    </contour>
  </outline>
</glyph>
<glyph name="cent" format="2">
  <advance width="559.0"/>
  <unicode hex="00A2"/>
  <note>
cent
</note>
  <outline>
    <contour>
      <point x="505.0" y="182.0" type="curve"/>
      <point x="448.0" y="219.0" type="line"/>
      <point x="415.0" y="172.0"/>
      <point x="364.0" y="144.0"/>
      <point x="307.0" y="144.0" type="curve" smooth="yes"/>
      <point x="211.0" y="144.0"/>
      <point x="130.0" y="229.0"/>
      <point x="130.0" y="335.0" type="curve" smooth="yes"/>
      <point x="130.0" y="434.0"/>
      <point x="203.0" y="526.0"/>
      <point x="307.0" y="526.0" type="curve" smooth="yes"/>
      <point x="360.0" y="526.0"/>
      <point x="408.0" y="501.0"/>
      <point x="441.0" y="459.0" type="curve"/>
      <point x="496.0" y="500.0" type="line"/>
      <point x="459.0" y="545.0"/>
      <point x="399.0" y="580.0"/>
      <point x="335.0" y="588.0" type="curve"/>
      <point x="335.0" y="675.0" type="line"/>
      <point x="265.0" y="675.0" type="line"/>
      <point x="265.0" y="587.0" type="line"/>
      <point x="139.0" y="566.0"/>
      <point x="60.0" y="452.0"/>
      <point x="60.0" y="335.0" type="curve" smooth="yes"/>
      <point x="60.0" y="209.0"/>
      <point x="147.0" y="104.0"/>
      <point x="265.0" y="83.0" type="curve"/>
      <point x="265.0" y="-8.0" type="line"/>
      <point x="335.0" y="-8.0" type="line"/>
      <point x="335.0" y="81.0" type="line"/>
      <point x="404.0" y="90.0"/>
      <point x="468.0" y="131.0"/>
    </contour>
  </outline>
</glyph>
<glyph name="sterling" format="2">
  <advance width="600.0"/>
  <unicode hex="00A3"/>
  <note>
sterling
</note>
  <outline>
    <contour>
      <point x="596.0" y="73.0" type="curve"/>
      <point x="528.0" y="90.0" type="line"/>
      <point x="523.0" y="73.0"/>
      <point x="519.0" y="38.0"/>
      <point x="442.0" y="38.0" type="curve" smooth="yes"/>
      <point x="328.0" y="38.0"/>
      <point x="305.0" y="101.0"/>
      <point x="225.0" y="119.0" type="curve"/>
      <point x="236.0" y="164.0"/>
      <point x="240.0" y="230.0"/>
      <point x="204.0" y="310.0" type="curve"/>
      <point x="410.0" y="310.0" type="line"/>
      <point x="410.0" y="374.0" type="line"/>
      <point x="177.0" y="374.0" type="line"/>
      <point x="125.0" y="522.0"/>
      <point x="148.0" y="677.0"/>
      <point x="316.0" y="670.0" type="curve" smooth="yes"/>
      <point x="354.0" y="668.0"/>
      <point x="387.0" y="658.0"/>
      <point x="409.0" y="632.0" type="curve"/>
      <point x="462.0" y="674.0" type="line"/>
      <point x="430.0" y="712.0"/>
      <point x="368.0" y="732.0"/>
      <point x="319.0" y="734.0" type="curve" smooth="yes"/>
      <point x="86.0" y="744.0"/>
      <point x="52.0" y="547.0"/>
      <point x="104.0" y="374.0" type="curve"/>
      <point x="20.0" y="374.0" type="line"/>
      <point x="20.0" y="310.0" type="line"/>
      <point x="128.0" y="310.0" type="line"/>
      <point x="137.0" y="290.0" type="line" smooth="yes"/>
      <point x="173.0" y="216.0"/>
      <point x="166.0" y="158.0"/>
      <point x="154.0" y="122.0" type="curve"/>
      <point x="40.0" y="108.0"/>
      <point x="13.0" y="11.0"/>
      <point x="13.0" y="11.0" type="curve"/>
      <point x="81.0" y="-7.0" type="line"/>
      <point x="81.0" y="-7.0"/>
      <point x="99.0" y="59.0"/>
      <point x="181.0" y="59.0" type="curve" smooth="yes"/>
      <point x="264.0" y="59.0"/>
      <point x="305.0" y="-26.0"/>
      <point x="442.0" y="-26.0" type="curve" smooth="yes"/>
      <point x="581.0" y="-26.0"/>
      <point x="592.0" y="61.0"/>
    </contour>
  </outline>
</glyph>
<glyph name="currency" format="2">
  <advance width="720"/>
  <unicode hex="00A4"/>
  <outline>
    <contour>
      <point x="132" y="70" type="line"/>
      <point x="243" y="181" type="line"/>
      <point x="279" y="155"/>
      <point x="323" y="139"/>
      <point x="371" y="139" type="curve" smooth="yes"/>
      <point x="419" y="139"/>
      <point x="464" y="155"/>
      <point x="500" y="181" type="curve"/>
      <point x="611" y="70" type="line"/>
      <point x="661" y="115" type="line"/>
      <point x="547" y="229" type="line"/>
      <point x="573" y="265"/>
      <point x="589" y="309"/>
      <point x="589" y="356" type="curve" smooth="yes"/>
      <point x="589" y="404"/>
      <point x="573" y="449"/>
      <point x="546" y="485" type="curve"/>
      <point x="661" y="599" type="line"/>
      <point x="611" y="645" type="line"/>
      <point x="499" y="532" type="line"/>
      <point x="463" y="558"/>
      <point x="419" y="573"/>
      <point x="371" y="573" type="curve" smooth="yes"/>
      <point x="324" y="573"/>
      <point x="280" y="558"/>
      <point x="244" y="532" type="curve"/>
      <point x="132" y="645" type="line"/>
      <point x="82" y="599" type="line"/>
      <point x="196" y="485" type="line"/>
      <point x="170" y="449"/>
      <point x="154" y="404"/>
      <point x="154" y="356" type="curve" smooth="yes"/>
      <point x="154" y="309"/>
      <point x="169" y="264"/>
      <point x="195" y="229" type="curve"/>
      <point x="82" y="115" type="line"/>
    </contour>
    <contour>
      <point x="371" y="203" type="curve" smooth="yes"/>
      <point x="292" y="203"/>
      <point x="224" y="271"/>
      <point x="224" y="356" type="curve" smooth="yes"/>
      <point x="224" y="442"/>
      <point x="292" y="509"/>
      <point x="371" y="509" type="curve" smooth="yes"/>
      <point x="451" y="509"/>
      <point x="519" y="442"/>
      <point x="519" y="356" type="curve" smooth="yes"/>
      <point x="519" y="271"/>
      <point x="451" y="203"/>
    </contour>
  </outline>
</glyph>
<glyph name="yen" format="2">
  <advance width="600"/>
  <unicode hex="00A5"/>
  <outline>
    <contour>
      <point x="284" y="0" type="line"/>
      <point x="354" y="0" type="line"/>
      <point x="354" y="139" type="line"/>
      <point x="527" y="139" type="line"/>
      <point x="527" y="203" type="line"/>
      <point x="354" y="203" type="line"/>
      <point x="354" y="290" type="line"/>
      <point x="527" y="290" type="line"/>
      <point x="527" y="354" type="line"/>
      <point x="369" y="354" type="line"/>
      <point x="615" y="670" type="line"/>
      <point x="559" y="709" type="line"/>
      <point x="312" y="390" type="line"/>
      <point x="64" y="709" type="line"/>
      <point x="9" y="670" type="line"/>
      <point x="254" y="354" type="line"/>
      <point x="97" y="354" type="line"/>
      <point x="97" y="290" type="line"/>
      <point x="284" y="290" type="line"/>
      <point x="284" y="203" type="line"/>
      <point x="97" y="203" type="line"/>
      <point x="97" y="139" type="line"/>
      <point x="284" y="139" type="line"/>
    </contour>
  </outline>
</glyph>
<glyph name="brokenbar" format="2">
  <advance width="600"/>
  <unicode hex="00A6"/>
  <outline>
    <contour>
      <point x="163" y="-69" type="line"/>
      <point x="233" y="-69" type="line"/>
      <point x="233" y="258" type="line"/>
      <point x="163" y="258" type="line"/>
    </contour>
    <contour>
      <point x="163" y="424" type="line"/>
      <point x="233" y="424" type="line"/>
      <point x="233" y="750" type="line"/>
      <point x="163" y="750" type="line"/>
    </contour>
  </outline>
</glyph>
<glyph name="section" format="2">
  <advance width="600.0"/>
  <unicode hex="00A7"/>
  <note>
section
</note>
  <outline>
    <contour>
      <point x="428.0" y="651.0" type="curve"/>
      <point x="482.0" y="692.0" type="line"/>
      <point x="480.0" y="694.0"/>
      <point x="412.0" y="774.0"/>
      <point x="299.0" y="780.0" type="curve" smooth="yes"/>
      <point x="181.0" y="786.0"/>
      <point x="91.0" y="705.0"/>
      <point x="100.0" y="599.0" type="curve" smooth="yes"/>
      <point x="105.0" y="554.0"/>
      <point x="128.0" y="521.0"/>
      <point x="159.0" y="496.0" type="curve"/>
      <point x="118.0" y="463.0"/>
      <point x="95.0" y="414.0"/>
      <point x="100.0" y="358.0" type="curve" smooth="yes"/>
      <point x="109.0" y="260.0"/>
      <point x="210.0" y="222.0"/>
      <point x="282.0" y="194.0" type="curve" smooth="yes"/>
      <point x="355.0" y="166.0"/>
      <point x="455.0" y="142.0"/>
      <point x="455.0" y="57.0" type="curve" smooth="yes"/>
      <point x="455.0" y="-22.0"/>
      <point x="380.0" y="-56.0"/>
      <point x="299.0" y="-56.0" type="curve" smooth="yes"/>
      <point x="210.0" y="-56.0"/>
      <point x="150.0" y="-5.0"/>
      <point x="129.0" y="28.0" type="curve"/>
      <point x="70.0" y="-6.0" type="line"/>
      <point x="96.0" y="-47.0"/>
      <point x="181.0" y="-120.0"/>
      <point x="299.0" y="-120.0" type="curve" smooth="yes"/>
      <point x="404.0" y="-120.0"/>
      <point x="525.0" y="-70.0"/>
      <point x="525.0" y="57.0" type="curve" smooth="yes"/>
      <point x="525.0" y="111.0"/>
      <point x="501.0" y="148.0"/>
      <point x="469.0" y="176.0" type="curve"/>
      <point x="502.0" y="205.0"/>
      <point x="525.0" y="247.0"/>
      <point x="525.0" y="298.0" type="curve" smooth="yes"/>
      <point x="525.0" y="433.0"/>
      <point x="377.0" y="467.0"/>
      <point x="307.0" y="494.0" type="curve" smooth="yes"/>
      <point x="237.0" y="521.0"/>
      <point x="176.0" y="544.0"/>
      <point x="170.0" y="604.0" type="curve" smooth="yes"/>
      <point x="164.0" y="668.0"/>
      <point x="220.0" y="719.0"/>
      <point x="295.0" y="716.0" type="curve" smooth="yes"/>
      <point x="377.0" y="711.0"/>
      <point x="424.0" y="655.0"/>
    </contour>
    <contour>
      <point x="170.0" y="363.0" type="curve" smooth="yes"/>
      <point x="167.0" y="405.0"/>
      <point x="188.0" y="440.0"/>
      <point x="222.0" y="459.0" type="curve"/>
      <point x="242.0" y="450.0"/>
      <point x="263.0" y="442.0"/>
      <point x="282.0" y="434.0" type="curve" smooth="yes"/>
      <point x="355.0" y="406.0"/>
      <point x="455.0" y="383.0"/>
      <point x="455.0" y="298.0" type="curve" smooth="yes"/>
      <point x="455.0" y="257.0"/>
      <point x="438.0" y="231.0"/>
      <point x="410.0" y="213.0" type="curve"/>
      <point x="373.0" y="231.0"/>
      <point x="334.0" y="243.0"/>
      <point x="307.0" y="253.0" type="curve" smooth="yes"/>
      <point x="237.0" y="281.0"/>
      <point x="176.0" y="304.0"/>
    </contour>
  </outline>
</glyph>
<glyph name="dieresis" format="2">
  <advance width="391.0"/>
  <unicode hex="00A8"/>
  <note>
dieresis
</note>
  <outline>
    <contour>
      <point x="12.0" y="609.0" type="curve" smooth="yes"/>
      <point x="12.0" y="634.0"/>
      <point x="33.0" y="655.0"/>
      <point x="58.0" y="655.0" type="curve" smooth="yes"/>
      <point x="83.0" y="655.0"/>
      <point x="105.0" y="634.0"/>
      <point x="105.0" y="609.0" type="curve" smooth="yes"/>
      <point x="105.0" y="584.0"/>
      <point x="83.0" y="562.0"/>
      <point x="58.0" y="562.0" type="curve" smooth="yes"/>
      <point x="33.0" y="562.0"/>
      <point x="12.0" y="584.0"/>
    </contour>
    <contour>
      <point x="291.0" y="609.0" type="curve" smooth="yes"/>
      <point x="291.0" y="634.0"/>
      <point x="313.0" y="655.0"/>
      <point x="338.0" y="655.0" type="curve" smooth="yes"/>
      <point x="363.0" y="655.0"/>
      <point x="384.0" y="634.0"/>
      <point x="384.0" y="609.0" type="curve" smooth="yes"/>
      <point x="384.0" y="584.0"/>
      <point x="363.0" y="562.0"/>
      <point x="338.0" y="562.0" type="curve" smooth="yes"/>
      <point x="313.0" y="562.0"/>
      <point x="291.0" y="584.0"/>
    </contour>
  </outline>
</glyph>
<glyph name="copyright" format="2">
  <advance width="817.0"/>
  <unicode hex="00A9"/>
  <note>
copyright
</note>
  <outline>
    <contour>
      <point x="92.0" y="156.0" type="curve" smooth="yes"/>
      <point x="156.0" y="53.0"/>
      <point x="276.0" y="-19.0"/>
      <point x="408.0" y="-19.0" type="curve" smooth="yes"/>
      <point x="611.0" y="-19.0"/>
      <point x="779.0" y="149.0"/>
      <point x="779.0" y="350.0" type="curve" smooth="yes"/>
      <point x="779.0" y="413.0"/>
      <point x="763.0" y="475.0"/>
      <point x="734.0" y="527.0" type="curve" smooth="yes"/>
      <point x="672.0" y="639.0"/>
      <point x="547.0" y="719.0"/>
      <point x="408.0" y="719.0" type="curve" smooth="yes"/>
      <point x="206.0" y="719.0"/>
      <point x="37.0" y="551.0"/>
      <point x="37.0" y="350.0" type="curve" smooth="yes"/>
      <point x="37.0" y="280.0"/>
      <point x="57.0" y="213.0"/>
    </contour>
    <contour>
      <point x="152.0" y="190.0" type="curve" smooth="yes"/>
      <point x="123.0" y="237.0"/>
      <point x="107.0" y="289.0"/>
      <point x="107.0" y="350.0" type="curve" smooth="yes"/>
      <point x="107.0" y="520.0"/>
      <point x="242.0" y="655.0"/>
      <point x="408.0" y="655.0" type="curve" smooth="yes"/>
      <point x="521.0" y="655.0"/>
      <point x="620.0" y="593.0"/>
      <point x="673.0" y="496.0" type="curve" smooth="yes"/>
      <point x="696.0" y="452.0"/>
      <point x="709.0" y="405.0"/>
      <point x="709.0" y="350.0" type="curve" smooth="yes"/>
      <point x="709.0" y="180.0"/>
      <point x="574.0" y="45.0"/>
      <point x="408.0" y="45.0" type="curve" smooth="yes"/>
      <point x="301.0" y="45.0"/>
      <point x="206.0" y="101.0"/>
    </contour>
    <contour>
      <point x="572.0" y="233.0" type="curve"/>
      <point x="515.0" y="270.0" type="line"/>
      <point x="489.0" y="235.0"/>
      <point x="453.0" y="214.0"/>
      <point x="413.0" y="214.0" type="curve" smooth="yes"/>
      <point x="344.0" y="214.0"/>
      <point x="285.0" y="276.0"/>
      <point x="285.0" y="357.0" type="curve" smooth="yes"/>
      <point x="285.0" y="433.0"/>
      <point x="338.0" y="499.0"/>
      <point x="413.0" y="499.0" type="curve" smooth="yes"/>
      <point x="452.0" y="499.0"/>
      <point x="483.0" y="483.0"/>
      <point x="510.0" y="450.0" type="curve"/>
      <point x="564.0" y="490.0" type="line"/>
      <point x="530.0" y="533.0"/>
      <point x="473.0" y="563.0"/>
      <point x="413.0" y="563.0" type="curve" smooth="yes"/>
      <point x="297.0" y="563.0"/>
      <point x="215.0" y="459.0"/>
      <point x="215.0" y="357.0" type="curve" smooth="yes"/>
      <point x="215.0" y="246.0"/>
      <point x="306.0" y="150.0"/>
      <point x="413.0" y="150.0" type="curve" smooth="yes"/>
      <point x="477.0" y="150.0"/>
      <point x="537.0" y="185.0"/>
    </contour>
  </outline>
</glyph>
<glyph name="ordfeminine" format="2">
  <advance width="373.0"/>
  <unicode hex="00AA"/>
  <note>
ordfeminine
</note>
  <outline>
    <contour>
      <point x="58.0" y="728.0" type="curve"/>
      <point x="102.0" y="691.0" type="line"/>
      <point x="120.0" y="708.0"/>
      <point x="145.0" y="727.0"/>
      <point x="178.0" y="727.0" type="curve" smooth="yes"/>
      <point x="215.0" y="727.0"/>
      <point x="243.0" y="703.0"/>
      <point x="243.0" y="661.0" type="curve" smooth="yes"/>
      <point x="243.0" y="646.0" type="line"/>
      <point x="225.0" y="649.0"/>
      <point x="206.0" y="651.0"/>
      <point x="189.0" y="651.0" type="curve" smooth="yes"/>
      <point x="113.0" y="651.0"/>
      <point x="37.0" y="625.0"/>
      <point x="37.0" y="538.0" type="curve" smooth="yes"/>
      <point x="37.0" y="496.0"/>
      <point x="73.0" y="441.0"/>
      <point x="149.0" y="441.0" type="curve" smooth="yes"/>
      <point x="185.0" y="441.0"/>
      <point x="218.0" y="454.0"/>
      <point x="243.0" y="474.0" type="curve"/>
      <point x="243.0" y="445.0" type="line"/>
      <point x="307.0" y="445.0" type="line"/>
      <point x="307.0" y="661.0" type="line" smooth="yes"/>
      <point x="307.0" y="733.0"/>
      <point x="248.0" y="782.0"/>
      <point x="178.0" y="782.0" type="curve" smooth="yes"/>
      <point x="110.0" y="782.0"/>
      <point x="69.0" y="742.0"/>
    </contour>
    <contour>
      <point x="243.0" y="597.0" type="curve"/>
      <point x="241.0" y="531.0"/>
      <point x="208.0" y="495.0"/>
      <point x="149.0" y="495.0" type="curve" smooth="yes"/>
      <point x="115.0" y="495.0"/>
      <point x="101.0" y="514.0"/>
      <point x="101.0" y="538.0" type="curve" smooth="yes"/>
      <point x="101.0" y="588.0"/>
      <point x="134.0" y="601.0"/>
      <point x="198.0" y="601.0" type="curve" smooth="yes"/>
      <point x="214.0" y="601.0"/>
      <point x="229.0" y="599.0"/>
    </contour>
  </outline>
</glyph>
<glyph name="guillemotleft" format="2">
  <advance width="600"/>
  <unicode hex="00AB"/>
  <outline>
    <contour>
      <point x="423" y="67" type="line"/>
      <point x="475" y="110" type="line"/>
      <point x="326" y="273" type="line"/>
      <point x="475" y="436" type="line"/>
      <point x="423" y="479" type="line"/>
      <point x="215" y="273" type="line"/>
    </contour>
    <contour>
      <point x="237" y="67" type="line"/>
      <point x="289" y="110" type="line"/>
      <point x="140" y="273" type="line"/>
      <point x="289" y="436" type="line"/>
      <point x="237" y="479" type="line"/>
      <point x="29" y="273" type="line"/>
    </contour>
  </outline>
</glyph>
<glyph name="logicalnot" format="2">
  <advance width="744.0"/>
  <unicode hex="00AC"/>
  <note>
logicalnot
</note>
  <outline>
    <contour>
      <point x="629.0" y="157.0" type="line"/>
      <point x="699.0" y="157.0" type="line"/>
      <point x="699.0" y="443.0" type="line"/>
      <point x="48.0" y="443.0" type="line"/>
      <point x="48.0" y="379.0" type="line"/>
      <point x="629.0" y="379.0" type="line"/>
    </contour>
  </outline>
</glyph>
<glyph name="registered" format="2">
  <advance width="818"/>
  <unicode hex="00AE"/>
  <anchor x="413.00728" y="155.0" name="bottom"/>
  <anchor x="413.00728" y="550.6679999999999" name="top"/>
  <outline>
    <contour>
      <point x="409" y="-19" type="curve" smooth="yes"/>
      <point x="612" y="-19"/>
      <point x="780" y="149"/>
      <point x="780" y="350" type="curve" smooth="yes"/>
      <point x="780" y="413"/>
      <point x="764" y="475"/>
      <point x="735" y="527" type="curve" smooth="yes"/>
      <point x="673" y="639"/>
      <point x="548" y="719"/>
      <point x="409" y="719" type="curve" smooth="yes"/>
      <point x="207" y="719"/>
      <point x="38" y="551"/>
      <point x="38" y="350" type="curve" smooth="yes"/>
      <point x="38" y="146"/>
      <point x="205" y="-19"/>
    </contour>
    <contour>
      <point x="409" y="16" type="curve" smooth="yes"/>
      <point x="292" y="16"/>
      <point x="188" y="78"/>
      <point x="129" y="175" type="curve" smooth="yes"/>
      <point x="97" y="226"/>
      <point x="80" y="283"/>
      <point x="80" y="350" type="curve" smooth="yes"/>
      <point x="80" y="536"/>
      <point x="227" y="684"/>
      <point x="409" y="684" type="curve" smooth="yes"/>
      <point x="533" y="684"/>
      <point x="641" y="616"/>
      <point x="699" y="510" type="curve" smooth="yes"/>
      <point x="724" y="462"/>
      <point x="738" y="410"/>
      <point x="738" y="350" type="curve" smooth="yes"/>
      <point x="738" y="164"/>
      <point x="591" y="16"/>
    </contour>
    <component base="R" xScale="0.56524" yScale="0.56524" xOffset="231" yOffset="155"/>
  </outline>
</glyph>
<glyph name="degree" format="2">
  <advance width="600"/>
  <unicode hex="00B0"/>
  <outline>
    <contour>
      <point x="304" y="465" type="curve" smooth="yes"/>
      <point x="405" y="465"/>
      <point x="485" y="545"/>
      <point x="485" y="641" type="curve" smooth="yes"/>
      <point x="485" y="736"/>
      <point x="405" y="816"/>
      <point x="304" y="816" type="curve" smooth="yes"/>
      <point x="203" y="816"/>
      <point x="123" y="736"/>
      <point x="123" y="641" type="curve" smooth="yes"/>
      <point x="123" y="545"/>
      <point x="203" y="465"/>
    </contour>
    <contour>
      <point x="304" y="490" type="curve" smooth="yes"/>
      <point x="221" y="490"/>
      <point x="150" y="551"/>
      <point x="150" y="642" type="curve" smooth="yes"/>
      <point x="150" y="730"/>
      <point x="221" y="791"/>
      <point x="304" y="791" type="curve" smooth="yes"/>
      <point x="387" y="791"/>
      <point x="458" y="730"/>
      <point x="458" y="642" type="curve" smooth="yes"/>
      <point x="458" y="551"/>
      <point x="387" y="490"/>
    </contour>
  </outline>
</glyph>
<glyph name="plusminus" format="2">
  <advance width="600.0"/>
  <unicode hex="00B1"/>
  <note>
plusminus
</note>
  <outline>
    <contour>
      <point x="336.0" y="163.0" type="line"/>
      <point x="336.0" y="334.0" type="line"/>
      <point x="572.0" y="334.0" type="line"/>
      <point x="572.0" y="398.0" type="line"/>
      <point x="336.0" y="398.0" type="line"/>
      <point x="336.0" y="569.0" type="line"/>
      <point x="266.0" y="569.0" type="line"/>
      <point x="266.0" y="398.0" type="line"/>
      <point x="31.0" y="398.0" type="line"/>
      <point x="31.0" y="334.0" type="line"/>
      <point x="266.0" y="334.0" type="line"/>
      <point x="266.0" y="163.0" type="line"/>
    </contour>
    <contour>
      <point x="31.0" y="-32.0" type="line"/>
      <point x="572.0" y="-32.0" type="line"/>
      <point x="572.0" y="32.0" type="line"/>
      <point x="31.0" y="32.0" type="line"/>
    </contour>
  </outline>
</glyph>
<glyph name="twosuperior" format="2">
  <advance width="283.0"/>
  <unicode hex="00B2"/>
  <note>
twosuperior
</note>
  <outline>
    <contour>
      <point x="18.0" y="564.0" type="curve"/>
      <point x="18.0" y="500.0" type="line"/>
      <point x="267.0" y="500.0" type="line"/>
      <point x="267.0" y="564.0" type="line"/>
      <point x="104.0" y="564.0" type="line"/>
      <point x="144.0" y="615.0"/>
      <point x="203.0" y="690.0"/>
      <point x="230.0" y="728.0" type="curve" smooth="yes"/>
      <point x="290.0" y="811.0"/>
      <point x="230.0" y="907.0"/>
      <point x="134.0" y="907.0" type="curve" smooth="yes"/>
      <point x="80.0" y="907.0"/>
      <point x="36.0" y="873.0"/>
      <point x="20.0" y="827.0" type="curve"/>
      <point x="87.0" y="807.0" type="line"/>
      <point x="94.0" y="829.0"/>
      <point x="113.0" y="843.0"/>
      <point x="134.0" y="843.0" type="curve" smooth="yes"/>
      <point x="176.0" y="843.0"/>
      <point x="200.0" y="803.0"/>
      <point x="173.0" y="765.0" type="curve" smooth="yes"/>
      <point x="129.0" y="704.0"/>
      <point x="18.0" y="564.0"/>
    </contour>
  </outline>
</glyph>
<glyph name="threesuperior" format="2">
  <advance width="312.0"/>
  <unicode hex="00B3"/>
  <note>
threesuperior
</note>
  <outline>
    <contour>
      <point x="43.0" y="818.0" type="curve"/>
      <point x="111.0" y="804.0" type="line"/>
      <point x="114.0" y="816.0"/>
      <point x="125.0" y="837.0"/>
      <point x="151.0" y="837.0" type="curve" smooth="yes"/>
      <point x="174.0" y="837.0"/>
      <point x="192.0" y="818.0"/>
      <point x="192.0" y="793.0" type="curve" smooth="yes"/>
      <point x="192.0" y="767.0"/>
      <point x="173.0" y="754.0"/>
      <point x="151.0" y="748.0" type="curve" smooth="yes"/>
      <point x="139.0" y="745.0"/>
      <point x="126.0" y="744.0"/>
      <point x="114.0" y="745.0" type="curve"/>
      <point x="114.0" y="687.0" type="line"/>
      <point x="126.0" y="687.0"/>
      <point x="139.0" y="687.0"/>
      <point x="151.0" y="684.0" type="curve" smooth="yes"/>
      <point x="186.0" y="676.0"/>
      <point x="214.0" y="654.0"/>
      <point x="214.0" y="621.0" type="curve" smooth="yes"/>
      <point x="214.0" y="584.0"/>
      <point x="190.0" y="557.0"/>
      <point x="151.0" y="557.0" type="curve" smooth="yes"/>
      <point x="123.0" y="557.0"/>
      <point x="107.0" y="568.0"/>
      <point x="94.0" y="588.0" type="curve"/>
      <point x="34.0" y="556.0" type="line"/>
      <point x="54.0" y="522.0"/>
      <point x="99.0" y="493.0"/>
      <point x="151.0" y="493.0" type="curve" smooth="yes"/>
      <point x="231.0" y="493.0"/>
      <point x="284.0" y="552.0"/>
      <point x="284.0" y="621.0" type="curve" smooth="yes"/>
      <point x="284.0" y="661.0"/>
      <point x="264.0" y="697.0"/>
      <point x="234.0" y="720.0" type="curve"/>
      <point x="252.0" y="740.0"/>
      <point x="262.0" y="765.0"/>
      <point x="262.0" y="793.0" type="curve" smooth="yes"/>
      <point x="262.0" y="851.0"/>
      <point x="213.0" y="901.0"/>
      <point x="151.0" y="901.0" type="curve" smooth="yes"/>
      <point x="95.0" y="901.0"/>
      <point x="53.0" y="857.0"/>
    </contour>
  </outline>
</glyph>
<glyph name="acute" format="2">
  <advance width="600.0"/>
  <unicode hex="00B4"/>
  <note>
acute
</note>
  <outline>
    <contour>
      <point x="158.0" y="554.0" type="line"/>
      <point x="361.0" y="634.0" type="line"/>
      <point x="339.0" y="708.0" type="line"/>
      <point x="142.0" y="614.0" type="line"/>
    </contour>
  </outline>
</glyph>
<glyph name="paragraph" format="2">
  <advance width="600.0"/>
  <unicode hex="00B6"/>
  <note>
paragraph
</note>
  <outline>
    <contour>
      <point x="451.0" y="712.0" type="line"/>
      <point x="451.0" y="-164.0" type="line"/>
      <point x="521.0" y="-164.0" type="line"/>
      <point x="521.0" y="776.0" type="line"/>
      <point x="230.0" y="776.0" type="line" smooth="yes"/>
      <point x="179.0" y="776.0"/>
      <point x="133.0" y="755.0"/>
      <point x="99.0" y="722.0" type="curve" smooth="yes"/>
      <point x="66.0" y="689.0"/>
      <point x="45.0" y="643.0"/>
      <point x="45.0" y="592.0" type="curve" smooth="yes"/>
      <point x="45.0" y="490.0"/>
      <point x="128.0" y="408.0"/>
      <point x="230.0" y="408.0" type="curve" smooth="yes"/>
      <point x="274.0" y="408.0" type="line"/>
      <point x="274.0" y="-164.0" type="line"/>
      <point x="344.0" y="-164.0" type="line"/>
      <point x="344.0" y="712.0" type="line"/>
    </contour>
    <contour>
      <point x="230.0" y="712.0" type="curve" smooth="yes"/>
      <point x="274.0" y="712.0" type="line"/>
      <point x="274.0" y="472.0" type="line"/>
      <point x="230.0" y="472.0" type="line" smooth="yes"/>
      <point x="168.0" y="472.0"/>
      <point x="115.0" y="524.0"/>
      <point x="115.0" y="592.0" type="curve" smooth="yes"/>
      <point x="115.0" y="626.0"/>
      <point x="128.0" y="657.0"/>
      <point x="148.0" y="677.0" type="curve" smooth="yes"/>
      <point x="172.0" y="700.0"/>
      <point x="199.0" y="712.0"/>
    </contour>
  </outline>
</glyph>
<glyph name="periodcentered" format="2">
  <advance width="600.0"/>
  <unicode hex="00B7"/>
  <note>
periodcentered
</note>
  <outline>
    <contour>
      <point x="187.0" y="240.0" type="curve" smooth="yes"/>
      <point x="221.0" y="240.0"/>
      <point x="249.0" y="268.0"/>
      <point x="249.0" y="302.0" type="curve" smooth="yes"/>
      <point x="249.0" y="337.0"/>
      <point x="221.0" y="365.0"/>
      <point x="187.0" y="365.0" type="curve" smooth="yes"/>
      <point x="152.0" y="365.0"/>
      <point x="124.0" y="337.0"/>
      <point x="124.0" y="302.0" type="curve" smooth="yes"/>
      <point x="124.0" y="268.0"/>
      <point x="152.0" y="240.0"/>
    </contour>
  </outline>
</glyph>
<glyph name="cedilla" format="2">
  <advance width="600.0"/>
  <unicode hex="00B8"/>
  <note>
cedilla
</note>
  <outline>
    <contour>
      <point x="265.0" y="-164.0" type="line"/>
      <point x="355.0" y="-32.0" type="line"/>
      <point x="302.0" y="4.0" type="line"/>
      <point x="212.0" y="-128.0" type="line"/>
    </contour>
  </outline>
</glyph>
<glyph name="onesuperior" format="2">
  <advance width="359.0"/>
  <unicode hex="00B9"/>
  <note>
onesuperior
</note>
  <outline>
    <contour>
      <point x="247.0" y="503.0" type="line"/>
      <point x="247.0" y="902.0" type="line"/>
      <point x="183.0" y="902.0" type="line"/>
      <point x="84.0" y="845.0" type="line"/>
      <point x="84.0" y="762.0" type="line"/>
      <point x="176.0" y="831.0" type="line"/>
      <point x="176.0" y="503.0" type="line"/>
    </contour>
  </outline>
</glyph>
<glyph name="ordmasculine" format="2">
  <advance width="403.0"/>
  <unicode hex="00BA"/>
  <note>
ordmasculine
</note>
  <outline>
    <contour>
      <point x="375.0" y="610.0" type="curve" smooth="yes"/>
      <point x="375.0" y="703.0"/>
      <point x="297.0" y="782.0"/>
      <point x="201.0" y="782.0" type="curve" smooth="yes"/>
      <point x="106.0" y="782.0"/>
      <point x="27.0" y="703.0"/>
      <point x="27.0" y="610.0" type="curve" smooth="yes"/>
      <point x="27.0" y="517.0"/>
      <point x="105.0" y="439.0"/>
      <point x="201.0" y="439.0" type="curve" smooth="yes"/>
      <point x="297.0" y="439.0"/>
      <point x="375.0" y="518.0"/>
    </contour>
    <contour>
      <point x="310.0" y="610.0" type="curve" smooth="yes"/>
      <point x="310.0" y="546.0"/>
      <point x="259.0" y="493.0"/>
      <point x="201.0" y="493.0" type="curve" smooth="yes"/>
      <point x="143.0" y="493.0"/>
      <point x="91.0" y="545.0"/>
      <point x="91.0" y="610.0" type="curve" smooth="yes"/>
      <point x="91.0" y="675.0"/>
      <point x="144.0" y="727.0"/>
      <point x="201.0" y="727.0" type="curve" smooth="yes"/>
      <point x="259.0" y="727.0"/>
      <point x="310.0" y="675.0"/>
    </contour>
  </outline>
</glyph>
<glyph name="guillemotright" format="2">
  <advance width="595"/>
  <unicode hex="00BB"/>
  <outline>
    <contour>
      <point x="357" y="67" type="line"/>
      <point x="565" y="273" type="line"/>
      <point x="357" y="479" type="line"/>
      <point x="305" y="436" type="line"/>
      <point x="454" y="273" type="line"/>
      <point x="305" y="110" type="line"/>
    </contour>
    <contour>
      <point x="171" y="67" type="line"/>
      <point x="379" y="273" type="line"/>
      <point x="171" y="479" type="line"/>
      <point x="119" y="436" type="line"/>
      <point x="268" y="273" type="line"/>
      <point x="119" y="110" type="line"/>
    </contour>
  </outline>
</glyph>
<glyph name="onequarter" format="2">
  <advance width="745.0"/>
  <unicode hex="00BC"/>
  <note>
onequarter
</note>
  <outline>
    <contour>
      <point x="247.0" y="503.0" type="line"/>
      <point x="247.0" y="902.0" type="line"/>
      <point x="183.0" y="902.0" type="line"/>
      <point x="84.0" y="845.0" type="line"/>
      <point x="84.0" y="762.0" type="line"/>
      <point x="176.0" y="831.0" type="line"/>
      <point x="176.0" y="503.0" type="line"/>
    </contour>
    <contour>
      <point x="152.0" y="-18.0" type="line"/>
      <point x="726.0" y="841.0" type="line"/>
      <point x="669.0" y="878.0" type="line"/>
      <point x="95.0" y="18.0" type="line"/>
    </contour>
    <contour>
      <point x="533.0" y="85.0" type="line"/>
      <point x="533.0" y="-1.0" type="line"/>
      <point x="603.0" y="-1.0" type="line"/>
      <point x="603.0" y="85.0" type="line"/>
      <point x="651.0" y="85.0" type="line"/>
      <point x="651.0" y="144.0" type="line"/>
      <point x="603.0" y="144.0" type="line"/>
      <point x="603.0" y="398.0" type="line"/>
      <point x="552.0" y="398.0" type="line"/>
      <point x="386.0" y="141.0" type="line"/>
      <point x="386.0" y="85.0" type="line"/>
    </contour>
    <contour>
      <point x="533.0" y="254.0" type="line"/>
      <point x="533.0" y="144.0" type="line"/>
      <point x="464.0" y="144.0" type="line"/>
    </contour>
  </outline>
</glyph>
<glyph name="onehalf" format="2">
  <advance width="755.0"/>
  <unicode hex="00BD"/>
  <note>
onehalf
</note>
  <outline>
    <contour>
      <point x="176.0" y="503.0" type="line"/>
      <point x="247.0" y="503.0" type="line"/>
      <point x="247.0" y="902.0" type="line"/>
      <point x="183.0" y="902.0" type="line"/>
      <point x="84.0" y="845.0" type="line"/>
      <point x="84.0" y="762.0" type="line"/>
      <point x="176.0" y="831.0" type="line"/>
    </contour>
    <contour>
      <point x="91.0" y="18.0" type="line"/>
      <point x="148.0" y="-18.0" type="line"/>
      <point x="722.0" y="841.0" type="line"/>
      <point x="665.0" y="878.0" type="line"/>
    </contour>
    <contour>
      <point x="475.0" y="64.0" type="curve"/>
      <point x="475.0" y="0.0" type="line"/>
      <point x="724.0" y="0.0" type="line"/>
      <point x="724.0" y="64.0" type="line"/>
      <point x="562.0" y="64.0" type="line"/>
      <point x="602.0" y="114.0"/>
      <point x="660.0" y="190.0"/>
      <point x="688.0" y="227.0" type="curve" smooth="yes"/>
      <point x="748.0" y="311.0"/>
      <point x="687.0" y="407.0"/>
      <point x="591.0" y="407.0" type="curve" smooth="yes"/>
      <point x="537.0" y="407.0"/>
      <point x="493.0" y="373.0"/>
      <point x="478.0" y="327.0" type="curve"/>
      <point x="544.0" y="307.0" type="line"/>
      <point x="551.0" y="328.0"/>
      <point x="571.0" y="343.0"/>
      <point x="591.0" y="343.0" type="curve" smooth="yes"/>
      <point x="633.0" y="343.0"/>
      <point x="658.0" y="302.0"/>
      <point x="631.0" y="265.0" type="curve" smooth="yes"/>
      <point x="587.0" y="204.0"/>
      <point x="475.0" y="64.0"/>
    </contour>
  </outline>
</glyph>
<glyph name="questiondown" format="2">
  <advance width="600.0"/>
  <unicode hex="00BF"/>
  <note>
questiondown
</note>
  <outline>
    <contour>
      <point x="229.0" y="726.0" type="curve" smooth="yes"/>
      <point x="263.0" y="726.0"/>
      <point x="291.0" y="698.0"/>
      <point x="291.0" y="663.0" type="curve" smooth="yes"/>
      <point x="291.0" y="629.0"/>
      <point x="263.0" y="601.0"/>
      <point x="229.0" y="601.0" type="curve" smooth="yes"/>
      <point x="194.0" y="601.0"/>
      <point x="166.0" y="629.0"/>
      <point x="166.0" y="663.0" type="curve" smooth="yes"/>
      <point x="166.0" y="698.0"/>
      <point x="194.0" y="726.0"/>
    </contour>
    <contour>
      <point x="174.0" y="334.0" type="curve"/>
      <point x="186.0" y="485.0" type="line"/>
      <point x="256.0" y="485.0" type="line"/>
      <point x="256.0" y="378.0" type="line"/>
      <point x="336.0" y="348.0"/>
      <point x="423.0" y="298.0"/>
      <point x="432.0" y="193.0" type="curve" smooth="yes"/>
      <point x="440.0" y="91.0"/>
      <point x="359.0" y="12.0"/>
      <point x="250.0" y="18.0" type="curve" smooth="yes"/>
      <point x="136.0" y="24.0"/>
      <point x="102.0" y="108.0"/>
      <point x="102.0" y="108.0" type="curve"/>
      <point x="155.0" y="145.0" type="line"/>
      <point x="155.0" y="145.0"/>
      <point x="186.0" y="86.0"/>
      <point x="253.0" y="82.0" type="curve" smooth="yes"/>
      <point x="321.0" y="79.0"/>
      <point x="367.0" y="124.0"/>
      <point x="362.0" y="187.0" type="curve" smooth="yes"/>
      <point x="355.0" y="272.0"/>
      <point x="262.0" y="306.0"/>
    </contour>
  </outline>
</glyph>
<glyph name="Atilde" format="2">
  <advance width="653.0"/>
  <unicode hex="00C3"/>
  <note>
Atilde
</note>
  <outline>
    <contour>
      <point x="492.0" y="873.0" type="curve"/>
      <point x="428.0" y="873.0" type="line"/>
      <point x="433.0" y="853.0"/>
      <point x="438.0" y="830.0"/>
      <point x="414.0" y="830.0" type="curve" smooth="yes"/>
      <point x="371.0" y="830.0"/>
      <point x="316.0" y="890.0"/>
      <point x="253.0" y="885.0" type="curve" smooth="yes"/>
      <point x="209.0" y="881.0"/>
      <point x="174.0" y="845.0"/>
      <point x="160.0" y="798.0" type="curve"/>
      <point x="213.0" y="775.0" type="line"/>
      <point x="222.0" y="803.0"/>
      <point x="232.0" y="825.0"/>
      <point x="256.0" y="827.0" type="curve" smooth="yes"/>
      <point x="305.0" y="831.0"/>
      <point x="358.0" y="767.0"/>
      <point x="419.0" y="767.0" type="curve" smooth="yes"/>
      <point x="463.0" y="767.0"/>
      <point x="504.0" y="793.0"/>
    </contour>
    <contour>
      <point x="285.0" y="700.0" type="line"/>
      <point x="11.0" y="0.0" type="line"/>
      <point x="85.0" y="0.0" type="line"/>
      <point x="173.0" y="223.0" type="line"/>
      <point x="479.0" y="223.0" type="line"/>
      <point x="566.0" y="0.0" type="line"/>
      <point x="641.0" y="0.0" type="line"/>
      <point x="366.0" y="700.0" type="line"/>
    </contour>
    <contour>
      <point x="326.0" y="614.0" type="line"/>
      <point x="454.0" y="287.0" type="line"/>
      <point x="198.0" y="287.0" type="line"/>
    </contour>
  </outline>
</glyph>
<glyph name="Aring" format="2">
  <advance width="653.0"/>
  <unicode hex="00C5"/>
  <note>
Aring
</note>
  <outline>
    <contour>
      <point x="173.0" y="223.0" type="line"/>
      <point x="479.0" y="223.0" type="line"/>
      <point x="566.0" y="0.0" type="line"/>
      <point x="641.0" y="0.0" type="line"/>
      <point x="374.0" y="681.0" type="line"/>
      <point x="430.0" y="701.0"/>
      <point x="470.0" y="754.0"/>
      <point x="470.0" y="817.0" type="curve" smooth="yes"/>
      <point x="470.0" y="898.0"/>
      <point x="406.0" y="962.0"/>
      <point x="326.0" y="962.0" type="curve" smooth="yes"/>
      <point x="246.0" y="962.0"/>
      <point x="182.0" y="898.0"/>
      <point x="182.0" y="817.0" type="curve" smooth="yes"/>
      <point x="182.0" y="754.0"/>
      <point x="222.0" y="701.0"/>
      <point x="278.0" y="681.0" type="curve"/>
      <point x="11.0" y="0.0" type="line"/>
      <point x="85.0" y="0.0" type="line"/>
    </contour>
    <contour>
      <point x="236.0" y="817.0" type="curve" smooth="yes"/>
      <point x="236.0" y="867.0"/>
      <point x="276.0" y="908.0"/>
      <point x="326.0" y="908.0" type="curve" smooth="yes"/>
      <point x="376.0" y="908.0"/>
      <point x="416.0" y="867.0"/>
      <point x="416.0" y="817.0" type="curve" smooth="yes"/>
      <point x="416.0" y="768.0"/>
      <point x="376.0" y="727.0"/>
      <point x="326.0" y="727.0" type="curve" smooth="yes"/>
      <point x="276.0" y="727.0"/>
      <point x="236.0" y="768.0"/>
    </contour>
    <contour>
      <point x="454.0" y="287.0" type="line"/>
      <point x="198.0" y="287.0" type="line"/>
      <point x="326.0" y="614.0" type="line"/>
    </contour>
  </outline>
</glyph>
<glyph name="AE" format="2">
  <advance width="1102"/>
  <unicode hex="00C6"/>
  <anchor x="551" y="0" name="bottom"/>
  <anchor x="777" y="700" name="top"/>
  <outline>
    <contour>
      <point x="30" y="0" type="line"/>
      <point x="118" y="0" type="line"/>
      <point x="291" y="223" type="line"/>
      <point x="574" y="223" type="line"/>
      <point x="574" y="0" type="line"/>
      <point x="1027" y="0" type="line"/>
      <point x="1027" y="64" type="line"/>
      <point x="644" y="64" type="line"/>
      <point x="644" y="322" type="line"/>
      <point x="952" y="322" type="line"/>
      <point x="952" y="386" type="line"/>
      <point x="644" y="386" type="line"/>
      <point x="644" y="636" type="line"/>
      <point x="1027" y="636" type="line"/>
      <point x="1027" y="700" type="line"/>
      <point x="581" y="700" type="line"/>
    </contour>
    <contour>
      <point x="342" y="287" type="line"/>
      <point x="574" y="583" type="line"/>
      <point x="574" y="287" type="line"/>
    </contour>
  </outline>
</glyph>
<glyph name="Igrave" format="2">
  <advance width="242.0"/>
  <unicode hex="00CC"/>
  <note>
Igrave
</note>
  <outline>
    <contour>
      <point x="221.0" y="754.0" type="line"/>
      <point x="236.0" y="814.0" type="line"/>
      <point x="40.0" y="908.0" type="line"/>
      <point x="18.0" y="834.0" type="line"/>
    </contour>
    <contour>
      <point x="156.0" y="700.0" type="line"/>
      <point x="86.0" y="700.0" type="line"/>
      <point x="86.0" y="0.0" type="line"/>
      <point x="156.0" y="0.0" type="line"/>
    </contour>
  </outline>
</glyph>
<glyph name="Idieresis" format="2">
  <advance width="242.0"/>
  <unicode hex="00CF"/>
  <note>
Idieresis
</note>
  <outline>
    <contour>
      <point x="-64.0" y="809.0" type="curve" smooth="yes"/>
      <point x="-64.0" y="834.0"/>
      <point x="-43.0" y="855.0"/>
      <point x="-18.0" y="855.0" type="curve" smooth="yes"/>
      <point x="7.0" y="855.0"/>
      <point x="29.0" y="834.0"/>
      <point x="29.0" y="809.0" type="curve" smooth="yes"/>
      <point x="29.0" y="784.0"/>
      <point x="7.0" y="762.0"/>
      <point x="-18.0" y="762.0" type="curve" smooth="yes"/>
      <point x="-43.0" y="762.0"/>
      <point x="-64.0" y="784.0"/>
    </contour>
    <contour>
      <point x="215.0" y="809.0" type="curve" smooth="yes"/>
      <point x="215.0" y="834.0"/>
      <point x="237.0" y="855.0"/>
      <point x="262.0" y="855.0" type="curve" smooth="yes"/>
      <point x="287.0" y="855.0"/>
      <point x="308.0" y="834.0"/>
      <point x="308.0" y="809.0" type="curve" smooth="yes"/>
      <point x="308.0" y="784.0"/>
      <point x="287.0" y="762.0"/>
      <point x="262.0" y="762.0" type="curve" smooth="yes"/>
      <point x="237.0" y="762.0"/>
      <point x="215.0" y="784.0"/>
    </contour>
    <contour>
      <point x="156.0" y="700.0" type="line"/>
      <point x="86.0" y="700.0" type="line"/>
      <point x="86.0" y="0.0" type="line"/>
      <point x="156.0" y="0.0" type="line"/>
    </contour>
  </outline>
</glyph>
<glyph name="Eth" format="2">
  <advance width="721.0"/>
  <unicode hex="00D0"/>
  <note>
Eth
</note>
  <outline>
    <contour>
      <point x="313.0" y="700.0" type="curve" smooth="yes"/>
      <point x="176.0" y="700.0" type="line"/>
      <point x="176.0" y="357.0" type="line"/>
      <point x="20.0" y="357.0" type="line"/>
      <point x="20.0" y="295.0" type="line"/>
      <point x="176.0" y="295.0" type="line"/>
      <point x="176.0" y="0.0" type="line"/>
      <point x="318.0" y="0.0" type="line" smooth="yes"/>
      <point x="555.0" y="0.0"/>
      <point x="669.0" y="149.0"/>
      <point x="669.0" y="350.0" type="curve" smooth="yes"/>
      <point x="669.0" y="553.0"/>
      <point x="562.0" y="700.0"/>
    </contour>
    <contour>
      <point x="318.0" y="64.0" type="curve" smooth="yes"/>
      <point x="246.0" y="64.0" type="line"/>
      <point x="246.0" y="295.0" type="line"/>
      <point x="386.0" y="295.0" type="line"/>
      <point x="386.0" y="357.0" type="line"/>
      <point x="246.0" y="357.0" type="line"/>
      <point x="246.0" y="636.0" type="line"/>
      <point x="313.0" y="636.0" type="line" smooth="yes"/>
      <point x="517.0" y="636.0"/>
      <point x="599.0" y="526.0"/>
      <point x="599.0" y="350.0" type="curve" smooth="yes"/>
      <point x="599.0" y="177.0"/>
      <point x="511.0" y="64.0"/>
    </contour>
  </outline>
</glyph>
<glyph name="Ograve" format="2">
  <advance width="774.0"/>
  <unicode hex="00D2"/>
  <note>
Ograve
</note>
  <outline>
    <contour>
      <point x="487.0" y="754.0" type="line"/>
      <point x="502.0" y="814.0" type="line"/>
      <point x="306.0" y="908.0" type="line"/>
      <point x="284.0" y="834.0" type="line"/>
    </contour>
    <contour>
      <point x="387.0" y="702.0" type="curve" smooth="yes"/>
      <point x="190.0" y="702.0"/>
      <point x="36.0" y="542.0"/>
      <point x="36.0" y="351.0" type="curve" smooth="yes"/>
      <point x="36.0" y="157.0"/>
      <point x="193.0" y="0.0"/>
      <point x="387.0" y="0.0" type="curve" smooth="yes"/>
      <point x="557.0" y="0.0"/>
      <point x="739.0" y="130.0"/>
      <point x="739.0" y="351.0" type="curve" smooth="yes"/>
      <point x="739.0" y="545.0"/>
      <point x="581.0" y="702.0"/>
    </contour>
    <contour>
      <point x="387.0" y="638.0" type="curve" smooth="yes"/>
      <point x="541.0" y="638.0"/>
      <point x="669.0" y="511.0"/>
      <point x="669.0" y="351.0" type="curve" smooth="yes"/>
      <point x="669.0" y="171.0"/>
      <point x="523.0" y="64.0"/>
      <point x="387.0" y="64.0" type="curve" smooth="yes"/>
      <point x="234.0" y="64.0"/>
      <point x="106.0" y="192.0"/>
      <point x="106.0" y="351.0" type="curve" smooth="yes"/>
      <point x="106.0" y="509.0"/>
      <point x="231.0" y="638.0"/>
    </contour>
  </outline>
</glyph>
<glyph name="Odieresis" format="2">
  <advance width="774.0"/>
  <unicode hex="00D6"/>
  <note>
Odieresis
</note>
  <outline>
    <contour>
      <point x="72.0" y="786.0" type="curve" smooth="yes"/>
      <point x="72.0" y="812.0"/>
      <point x="94.0" y="833.0"/>
      <point x="119.0" y="833.0" type="curve" smooth="yes"/>
      <point x="144.0" y="833.0"/>
      <point x="165.0" y="812.0"/>
      <point x="165.0" y="786.0" type="curve" smooth="yes"/>
      <point x="165.0" y="761.0"/>
      <point x="144.0" y="740.0"/>
      <point x="119.0" y="740.0" type="curve" smooth="yes"/>
      <point x="94.0" y="740.0"/>
      <point x="72.0" y="761.0"/>
    </contour>
    <contour>
      <point x="626.0" y="786.0" type="curve" smooth="yes"/>
      <point x="626.0" y="812.0"/>
      <point x="648.0" y="833.0"/>
      <point x="673.0" y="833.0" type="curve" smooth="yes"/>
      <point x="698.0" y="833.0"/>
      <point x="719.0" y="812.0"/>
      <point x="719.0" y="786.0" type="curve" smooth="yes"/>
      <point x="719.0" y="761.0"/>
      <point x="698.0" y="740.0"/>
      <point x="673.0" y="740.0" type="curve" smooth="yes"/>
      <point x="648.0" y="740.0"/>
      <point x="626.0" y="761.0"/>
    </contour>
    <contour>
      <point x="387.0" y="702.0" type="curve" smooth="yes"/>
      <point x="190.0" y="702.0"/>
      <point x="36.0" y="542.0"/>
      <point x="36.0" y="351.0" type="curve" smooth="yes"/>
      <point x="36.0" y="157.0"/>
      <point x="193.0" y="0.0"/>
      <point x="387.0" y="0.0" type="curve" smooth="yes"/>
      <point x="557.0" y="0.0"/>
      <point x="739.0" y="130.0"/>
      <point x="739.0" y="351.0" type="curve" smooth="yes"/>
      <point x="739.0" y="545.0"/>
      <point x="581.0" y="702.0"/>
    </contour>
    <contour>
      <point x="387.0" y="638.0" type="curve" smooth="yes"/>
      <point x="541.0" y="638.0"/>
      <point x="669.0" y="511.0"/>
      <point x="669.0" y="351.0" type="curve" smooth="yes"/>
      <point x="669.0" y="171.0"/>
      <point x="523.0" y="64.0"/>
      <point x="387.0" y="64.0" type="curve" smooth="yes"/>
      <point x="234.0" y="64.0"/>
      <point x="106.0" y="192.0"/>
      <point x="106.0" y="351.0" type="curve" smooth="yes"/>
      <point x="106.0" y="509.0"/>
      <point x="231.0" y="638.0"/>
    </contour>
  </outline>
</glyph>
<glyph name="multiply" format="2">
  <advance width="609"/>
  <unicode hex="00D7"/>
  <outline>
    <contour>
      <point x="545" y="-23" type="line"/>
      <point x="594" y="23" type="line"/>
      <point x="65" y="552" type="line"/>
      <point x="15" y="507" type="line"/>
    </contour>
  </outline>
</glyph>
<glyph name="Oslash" format="2">
  <advance width="774"/>
  <unicode hex="00D8"/>
  <anchor x="393" y="700" name="top"/>
  <outline>
    <contour>
      <point x="387" y="0" type="curve" smooth="yes"/>
      <point x="557" y="0"/>
      <point x="739" y="130"/>
      <point x="739" y="351" type="curve" smooth="yes"/>
      <point x="739" y="545"/>
      <point x="581" y="702"/>
      <point x="387" y="702" type="curve" smooth="yes"/>
      <point x="190" y="702"/>
      <point x="36" y="542"/>
      <point x="36" y="351" type="curve" smooth="yes"/>
      <point x="36" y="157"/>
      <point x="193" y="0"/>
    </contour>
    <contour>
      <point x="292" y="-77" type="line"/>
      <point x="546" y="766" type="line"/>
      <point x="485" y="785" type="line"/>
      <point x="230" y="-59" type="line"/>
    </contour>
    <contour>
      <point x="387" y="64" type="curve" smooth="yes"/>
      <point x="234" y="64"/>
      <point x="106" y="192"/>
      <point x="106" y="351" type="curve" smooth="yes"/>
      <point x="106" y="509"/>
      <point x="231" y="638"/>
      <point x="387" y="638" type="curve" smooth="yes"/>
      <point x="541" y="638"/>
      <point x="669" y="511"/>
      <point x="669" y="351" type="curve" smooth="yes"/>
      <point x="669" y="171"/>
      <point x="523" y="64"/>
    </contour>
  </outline>
</glyph>
<glyph name="Ucircumflex" format="2">
  <advance width="661.0"/>
  <unicode hex="00DB"/>
  <note>
Ucircumflex
</note>
  <outline>
    <contour>
      <point x="331.0" y="908.0" type="line"/>
      <point x="134.0" y="814.0" type="line"/>
      <point x="150.0" y="754.0" type="line"/>
      <point x="331.0" y="825.0" type="line"/>
      <point x="512.0" y="754.0" type="line"/>
      <point x="528.0" y="814.0" type="line"/>
    </contour>
    <contour>
      <point x="139.0" y="265.0" type="curve" smooth="yes"/>
      <point x="139.0" y="700.0" type="line"/>
      <point x="69.0" y="700.0" type="line"/>
      <point x="69.0" y="270.0" type="line"/>
      <point x="69.0" y="270.0"/>
      <point x="59.0" y="0.0"/>
      <point x="323.0" y="-9.0" type="curve" smooth="yes"/>
      <point x="343.0" y="-9.0" type="line" smooth="yes"/>
      <point x="607.0" y="0.0"/>
      <point x="597.0" y="270.0"/>
      <point x="597.0" y="270.0" type="curve"/>
      <point x="597.0" y="700.0" type="line"/>
      <point x="527.0" y="700.0" type="line"/>
      <point x="527.0" y="260.0" type="line" smooth="yes"/>
      <point x="526.0" y="219.0"/>
      <point x="510.0" y="61.0"/>
      <point x="342.0" y="55.0" type="curve"/>
      <point x="324.0" y="55.0" type="line"/>
      <point x="147.0" y="62.0"/>
      <point x="139.0" y="236.0"/>
    </contour>
  </outline>
</glyph>
<glyph name="Udieresis" format="2">
  <advance width="661.0"/>
  <unicode hex="00DC"/>
  <note>
Udieresis
</note>
  <outline>
    <contour>
      <point x="146.0" y="809.0" type="curve" smooth="yes"/>
      <point x="146.0" y="834.0"/>
      <point x="167.0" y="855.0"/>
      <point x="192.0" y="855.0" type="curve" smooth="yes"/>
      <point x="217.0" y="855.0"/>
      <point x="239.0" y="834.0"/>
      <point x="239.0" y="809.0" type="curve" smooth="yes"/>
      <point x="239.0" y="784.0"/>
      <point x="217.0" y="762.0"/>
      <point x="192.0" y="762.0" type="curve" smooth="yes"/>
      <point x="167.0" y="762.0"/>
      <point x="146.0" y="784.0"/>
    </contour>
    <contour>
      <point x="425.0" y="809.0" type="curve" smooth="yes"/>
      <point x="425.0" y="834.0"/>
      <point x="447.0" y="855.0"/>
      <point x="472.0" y="855.0" type="curve" smooth="yes"/>
      <point x="497.0" y="855.0"/>
      <point x="518.0" y="834.0"/>
      <point x="518.0" y="809.0" type="curve" smooth="yes"/>
      <point x="518.0" y="784.0"/>
      <point x="497.0" y="762.0"/>
      <point x="472.0" y="762.0" type="curve" smooth="yes"/>
      <point x="447.0" y="762.0"/>
      <point x="425.0" y="784.0"/>
    </contour>
    <contour>
      <point x="139.0" y="265.0" type="curve" smooth="yes"/>
      <point x="139.0" y="700.0" type="line"/>
      <point x="69.0" y="700.0" type="line"/>
      <point x="69.0" y="270.0" type="line"/>
      <point x="69.0" y="270.0"/>
      <point x="59.0" y="0.0"/>
      <point x="323.0" y="-9.0" type="curve" smooth="yes"/>
      <point x="343.0" y="-9.0" type="line" smooth="yes"/>
      <point x="607.0" y="0.0"/>
      <point x="597.0" y="270.0"/>
      <point x="597.0" y="270.0" type="curve"/>
      <point x="597.0" y="700.0" type="line"/>
      <point x="527.0" y="700.0" type="line"/>
      <point x="527.0" y="260.0" type="line" smooth="yes"/>
      <point x="526.0" y="219.0"/>
      <point x="510.0" y="61.0"/>
      <point x="342.0" y="55.0" type="curve"/>
      <point x="324.0" y="55.0" type="line"/>
      <point x="147.0" y="62.0"/>
      <point x="139.0" y="236.0"/>
    </contour>
  </outline>
</glyph>
<glyph name="Yacute" format="2">
  <advance width="638.0"/>
  <unicode hex="00DD"/>
  <note>
Yacute
</note>
  <outline>
    <contour>
      <point x="235.0" y="754.0" type="line"/>
      <point x="438.0" y="834.0" type="line"/>
      <point x="416.0" y="908.0" type="line"/>
      <point x="219.0" y="814.0" type="line"/>
    </contour>
    <contour>
      <point x="354.0" y="339.0" type="line"/>
      <point x="634.0" y="700.0" type="line"/>
      <point x="548.0" y="700.0" type="line"/>
      <point x="319.0" y="405.0" type="line"/>
      <point x="90.0" y="700.0" type="line"/>
      <point x="4.0" y="700.0" type="line"/>
      <point x="284.0" y="339.0" type="line"/>
      <point x="284.0" y="0.0" type="line"/>
      <point x="354.0" y="0.0" type="line"/>
    </contour>
  </outline>
</glyph>
<glyph name="Thorn" format="2">
  <advance width="600"/>
  <unicode hex="00DE"/>
  <outline>
    <contour>
      <point x="73" y="0" type="line"/>
      <point x="143" y="0" type="line"/>
      <point x="143" y="164" type="line"/>
      <point x="330" y="164" type="line" smooth="yes"/>
      <point x="451" y="164"/>
      <point x="549" y="262"/>
      <point x="549" y="381" type="curve" smooth="yes"/>
      <point x="549" y="438"/>
      <point x="524" y="495"/>
      <point x="485" y="534" type="curve" smooth="yes"/>
      <point x="448" y="570"/>
      <point x="389" y="597"/>
      <point x="330" y="597" type="curve" smooth="yes"/>
      <point x="143" y="597" type="line"/>
      <point x="143" y="694" type="line"/>
      <point x="73" y="694" type="line"/>
    </contour>
    <contour>
      <point x="143" y="228" type="line"/>
      <point x="143" y="533" type="line"/>
      <point x="330" y="533" type="line" smooth="yes"/>
      <point x="371" y="533"/>
      <point x="407" y="517"/>
      <point x="435" y="488" type="curve"/>
      <point x="462" y="462"/>
      <point x="479" y="423"/>
      <point x="479" y="381" type="curve" smooth="yes"/>
      <point x="479" y="295"/>
      <point x="412" y="228"/>
      <point x="330" y="228" type="curve" smooth="yes"/>
    </contour>
  </outline>
</glyph>
<glyph name="germandbls" format="2">
  <advance width="600.0"/>
  <unicode hex="00DF"/>
  <note>
germandbls
</note>
  <outline>
    <contour>
      <point x="55.0" y="510.0" type="curve" smooth="yes"/>
      <point x="55.0" y="0.0" type="line"/>
      <point x="125.0" y="0.0" type="line"/>
      <point x="125.0" y="510.0" type="line" smooth="yes"/>
      <point x="125.0" y="559.0"/>
      <point x="132.0" y="657.0"/>
      <point x="262.0" y="657.0" type="curve" smooth="yes"/>
      <point x="387.0" y="657.0"/>
      <point x="404.0" y="580.0"/>
      <point x="404.0" y="532.0" type="curve" smooth="yes"/>
      <point x="404.0" y="485.0"/>
      <point x="383.0" y="415.0"/>
      <point x="308.0" y="412.0" type="curve"/>
      <point x="302.0" y="411.0" type="line"/>
      <point x="273.0" y="411.0" type="line"/>
      <point x="273.0" y="341.0" type="line"/>
      <point x="302.0" y="341.0" type="line" smooth="yes"/>
      <point x="403.0" y="341.0"/>
      <point x="448.0" y="281.0"/>
      <point x="448.0" y="206.0" type="curve" smooth="yes"/>
      <point x="448.0" y="131.0"/>
      <point x="387.0" y="70.0"/>
      <point x="312.0" y="70.0" type="curve" smooth="yes"/>
      <point x="285.0" y="70.0"/>
      <point x="263.0" y="77.0"/>
      <point x="241.0" y="90.0" type="curve"/>
      <point x="205.0" y="30.0" type="line"/>
      <point x="236.0" y="11.0"/>
      <point x="273.0" y="0.0"/>
      <point x="312.0" y="0.0" type="curve" smooth="yes"/>
      <point x="426.0" y="0.0"/>
      <point x="518.0" y="92.0"/>
      <point x="518.0" y="206.0" type="curve" smooth="yes"/>
      <point x="518.0" y="282.0"/>
      <point x="476.0" y="349.0"/>
      <point x="414.0" y="384.0" type="curve"/>
      <point x="459.0" y="428.0"/>
      <point x="474.0" y="494.0"/>
      <point x="474.0" y="532.0" type="curve" smooth="yes"/>
      <point x="474.0" y="589.0"/>
      <point x="447.0" y="727.0"/>
      <point x="262.0" y="727.0" type="curve" smooth="yes"/>
      <point x="67.0" y="727.0"/>
      <point x="55.0" y="562.0"/>
    </contour>
  </outline>
</glyph>
<glyph name="agrave" format="2">
  <advance width="516.0"/>
  <unicode hex="00E0"/>
  <note>
agrave
</note>
  <outline>
    <contour>
      <point x="363.0" y="554.0" type="line"/>
      <point x="378.0" y="614.0" type="line"/>
      <point x="182.0" y="708.0" type="line"/>
      <point x="160.0" y="634.0" type="line"/>
    </contour>
    <contour>
      <point x="84.0" y="436.0" type="curve"/>
      <point x="133.0" y="394.0" type="line"/>
      <point x="159.0" y="417.0"/>
      <point x="201.0" y="445.0"/>
      <point x="254.0" y="445.0" type="curve" smooth="yes"/>
      <point x="322.0" y="445.0"/>
      <point x="371.0" y="403.0"/>
      <point x="371.0" y="329.0" type="curve" smooth="yes"/>
      <point x="371.0" y="292.0" type="line"/>
      <point x="340.0" y="299.0"/>
      <point x="303.0" y="303.0"/>
      <point x="270.0" y="303.0" type="curve" smooth="yes"/>
      <point x="154.0" y="303.0"/>
      <point x="47.0" y="267.0"/>
      <point x="47.0" y="137.0" type="curve" smooth="yes"/>
      <point x="47.0" y="71.0"/>
      <point x="97.0" y="-6.0"/>
      <point x="208.0" y="-6.0" type="curve" smooth="yes"/>
      <point x="274.0" y="-6.0"/>
      <point x="330.0" y="23.0"/>
      <point x="371.0" y="68.0" type="curve"/>
      <point x="371.0" y="0.0" type="line"/>
      <point x="441.0" y="0.0" type="line"/>
      <point x="441.0" y="329.0" type="line" smooth="yes"/>
      <point x="441.0" y="439.0"/>
      <point x="357.0" y="509.0"/>
      <point x="254.0" y="509.0" type="curve" smooth="yes"/>
      <point x="165.0" y="509.0"/>
      <point x="109.0" y="464.0"/>
    </contour>
    <contour>
      <point x="284.0" y="246.0" type="curve" smooth="yes"/>
      <point x="317.0" y="246.0"/>
      <point x="348.0" y="242.0"/>
      <point x="371.0" y="237.0" type="curve"/>
      <point x="371.0" y="123.0"/>
      <point x="314.0" y="58.0"/>
      <point x="208.0" y="58.0" type="curve" smooth="yes"/>
      <point x="145.0" y="58.0"/>
      <point x="117.0" y="96.0"/>
      <point x="117.0" y="137.0" type="curve" smooth="yes"/>
      <point x="117.0" y="220.0"/>
      <point x="180.0" y="246.0"/>
    </contour>
  </outline>
</glyph>
<glyph name="atilde" format="2">
  <advance width="516.0"/>
  <unicode hex="00E3"/>
  <note>
atilde
</note>
  <outline>
    <contour>
      <point x="429.0" y="673.0" type="curve"/>
      <point x="365.0" y="673.0" type="line"/>
      <point x="370.0" y="653.0"/>
      <point x="375.0" y="630.0"/>
      <point x="351.0" y="630.0" type="curve" smooth="yes"/>
      <point x="308.0" y="630.0"/>
      <point x="253.0" y="690.0"/>
      <point x="190.0" y="685.0" type="curve" smooth="yes"/>
      <point x="146.0" y="681.0"/>
      <point x="111.0" y="645.0"/>
      <point x="97.0" y="598.0" type="curve"/>
      <point x="150.0" y="575.0" type="line"/>
      <point x="159.0" y="603.0"/>
      <point x="169.0" y="625.0"/>
      <point x="193.0" y="627.0" type="curve" smooth="yes"/>
      <point x="242.0" y="631.0"/>
      <point x="295.0" y="567.0"/>
      <point x="356.0" y="567.0" type="curve" smooth="yes"/>
      <point x="400.0" y="567.0"/>
      <point x="441.0" y="593.0"/>
    </contour>
    <contour>
      <point x="84.0" y="436.0" type="curve"/>
      <point x="133.0" y="394.0" type="line"/>
      <point x="159.0" y="417.0"/>
      <point x="201.0" y="445.0"/>
      <point x="254.0" y="445.0" type="curve" smooth="yes"/>
      <point x="322.0" y="445.0"/>
      <point x="371.0" y="403.0"/>
      <point x="371.0" y="329.0" type="curve" smooth="yes"/>
      <point x="371.0" y="292.0" type="line"/>
      <point x="340.0" y="299.0"/>
      <point x="303.0" y="303.0"/>
      <point x="270.0" y="303.0" type="curve" smooth="yes"/>
      <point x="154.0" y="303.0"/>
      <point x="47.0" y="267.0"/>
      <point x="47.0" y="137.0" type="curve" smooth="yes"/>
      <point x="47.0" y="71.0"/>
      <point x="97.0" y="-6.0"/>
      <point x="208.0" y="-6.0" type="curve" smooth="yes"/>
      <point x="274.0" y="-6.0"/>
      <point x="330.0" y="23.0"/>
      <point x="371.0" y="68.0" type="curve"/>
      <point x="371.0" y="0.0" type="line"/>
      <point x="441.0" y="0.0" type="line"/>
      <point x="441.0" y="329.0" type="line" smooth="yes"/>
      <point x="441.0" y="439.0"/>
      <point x="357.0" y="509.0"/>
      <point x="254.0" y="509.0" type="curve" smooth="yes"/>
      <point x="165.0" y="509.0"/>
      <point x="109.0" y="464.0"/>
    </contour>
    <contour>
      <point x="284.0" y="246.0" type="curve" smooth="yes"/>
      <point x="317.0" y="246.0"/>
      <point x="348.0" y="242.0"/>
      <point x="371.0" y="237.0" type="curve"/>
      <point x="371.0" y="123.0"/>
      <point x="314.0" y="58.0"/>
      <point x="208.0" y="58.0" type="curve" smooth="yes"/>
      <point x="145.0" y="58.0"/>
      <point x="117.0" y="96.0"/>
      <point x="117.0" y="137.0" type="curve" smooth="yes"/>
      <point x="117.0" y="220.0"/>
      <point x="180.0" y="246.0"/>
    </contour>
  </outline>
</glyph>
<glyph name="adieresis" format="2">
  <advance width="516.0"/>
  <unicode hex="00E4"/>
  <note>
adieresis
</note>
  <outline>
    <contour>
      <point x="78.0" y="609.0" type="curve" smooth="yes"/>
      <point x="78.0" y="634.0"/>
      <point x="99.0" y="655.0"/>
      <point x="124.0" y="655.0" type="curve" smooth="yes"/>
      <point x="149.0" y="655.0"/>
      <point x="171.0" y="634.0"/>
      <point x="171.0" y="609.0" type="curve" smooth="yes"/>
      <point x="171.0" y="584.0"/>
      <point x="149.0" y="562.0"/>
      <point x="124.0" y="562.0" type="curve" smooth="yes"/>
      <point x="99.0" y="562.0"/>
      <point x="78.0" y="584.0"/>
    </contour>
    <contour>
      <point x="357.0" y="609.0" type="curve" smooth="yes"/>
      <point x="357.0" y="634.0"/>
      <point x="379.0" y="655.0"/>
      <point x="404.0" y="655.0" type="curve" smooth="yes"/>
      <point x="429.0" y="655.0"/>
      <point x="450.0" y="634.0"/>
      <point x="450.0" y="609.0" type="curve" smooth="yes"/>
      <point x="450.0" y="584.0"/>
      <point x="429.0" y="562.0"/>
      <point x="404.0" y="562.0" type="curve" smooth="yes"/>
      <point x="379.0" y="562.0"/>
      <point x="357.0" y="584.0"/>
    </contour>
    <contour>
      <point x="84.0" y="436.0" type="curve"/>
      <point x="133.0" y="394.0" type="line"/>
      <point x="159.0" y="417.0"/>
      <point x="201.0" y="445.0"/>
      <point x="254.0" y="445.0" type="curve" smooth="yes"/>
      <point x="322.0" y="445.0"/>
      <point x="371.0" y="403.0"/>
      <point x="371.0" y="329.0" type="curve" smooth="yes"/>
      <point x="371.0" y="292.0" type="line"/>
      <point x="340.0" y="299.0"/>
      <point x="303.0" y="303.0"/>
      <point x="270.0" y="303.0" type="curve" smooth="yes"/>
      <point x="154.0" y="303.0"/>
      <point x="47.0" y="267.0"/>
      <point x="47.0" y="137.0" type="curve" smooth="yes"/>
      <point x="47.0" y="71.0"/>
      <point x="97.0" y="-6.0"/>
      <point x="208.0" y="-6.0" type="curve" smooth="yes"/>
      <point x="274.0" y="-6.0"/>
      <point x="330.0" y="23.0"/>
      <point x="371.0" y="68.0" type="curve"/>
      <point x="371.0" y="0.0" type="line"/>
      <point x="441.0" y="0.0" type="line"/>
      <point x="441.0" y="329.0" type="line" smooth="yes"/>
      <point x="441.0" y="439.0"/>
      <point x="357.0" y="509.0"/>
      <point x="254.0" y="509.0" type="curve" smooth="yes"/>
      <point x="165.0" y="509.0"/>
      <point x="109.0" y="464.0"/>
    </contour>
    <contour>
      <point x="284.0" y="246.0" type="curve" smooth="yes"/>
      <point x="317.0" y="246.0"/>
      <point x="348.0" y="242.0"/>
      <point x="371.0" y="237.0" type="curve"/>
      <point x="371.0" y="123.0"/>
      <point x="314.0" y="58.0"/>
      <point x="208.0" y="58.0" type="curve" smooth="yes"/>
      <point x="145.0" y="58.0"/>
      <point x="117.0" y="96.0"/>
      <point x="117.0" y="137.0" type="curve" smooth="yes"/>
      <point x="117.0" y="220.0"/>
      <point x="180.0" y="246.0"/>
    </contour>
  </outline>
</glyph>
<glyph name="aring" format="2">
  <advance width="516.0"/>
  <unicode hex="00E5"/>
  <note>
aring
</note>
  <outline>
    <contour>
      <point x="84.0" y="436.0" type="curve"/>
      <point x="133.0" y="394.0" type="line"/>
      <point x="159.0" y="417.0"/>
      <point x="201.0" y="445.0"/>
      <point x="254.0" y="445.0" type="curve" smooth="yes"/>
      <point x="322.0" y="445.0"/>
      <point x="371.0" y="403.0"/>
      <point x="371.0" y="329.0" type="curve" smooth="yes"/>
      <point x="371.0" y="292.0" type="line"/>
      <point x="340.0" y="299.0"/>
      <point x="303.0" y="303.0"/>
      <point x="270.0" y="303.0" type="curve" smooth="yes"/>
      <point x="154.0" y="303.0"/>
      <point x="47.0" y="267.0"/>
      <point x="47.0" y="137.0" type="curve" smooth="yes"/>
      <point x="47.0" y="71.0"/>
      <point x="97.0" y="-6.0"/>
      <point x="208.0" y="-6.0" type="curve" smooth="yes"/>
      <point x="274.0" y="-6.0"/>
      <point x="330.0" y="23.0"/>
      <point x="371.0" y="68.0" type="curve"/>
      <point x="371.0" y="0.0" type="line"/>
      <point x="441.0" y="0.0" type="line"/>
      <point x="441.0" y="329.0" type="line" smooth="yes"/>
      <point x="441.0" y="407.0"/>
      <point x="398.0" y="466.0"/>
      <point x="336.0" y="492.0" type="curve"/>
      <point x="379.0" y="517.0"/>
      <point x="407.0" y="564.0"/>
      <point x="407.0" y="617.0" type="curve" smooth="yes"/>
      <point x="407.0" y="698.0"/>
      <point x="343.0" y="762.0"/>
      <point x="263.0" y="762.0" type="curve" smooth="yes"/>
      <point x="183.0" y="762.0"/>
      <point x="119.0" y="698.0"/>
      <point x="119.0" y="617.0" type="curve" smooth="yes"/>
      <point x="119.0" y="568.0"/>
      <point x="143.0" y="524.0"/>
      <point x="181.0" y="498.0" type="curve"/>
      <point x="134.0" y="483.0"/>
      <point x="101.0" y="455.0"/>
    </contour>
    <contour>
      <point x="263.0" y="708.0" type="curve" smooth="yes"/>
      <point x="313.0" y="708.0"/>
      <point x="353.0" y="667.0"/>
      <point x="353.0" y="617.0" type="curve" smooth="yes"/>
      <point x="353.0" y="568.0"/>
      <point x="313.0" y="527.0"/>
      <point x="263.0" y="527.0" type="curve" smooth="yes"/>
      <point x="213.0" y="527.0"/>
      <point x="173.0" y="568.0"/>
      <point x="173.0" y="617.0" type="curve" smooth="yes"/>
      <point x="173.0" y="667.0"/>
      <point x="213.0" y="708.0"/>
    </contour>
    <contour>
      <point x="208.0" y="58.0" type="curve" smooth="yes"/>
      <point x="145.0" y="58.0"/>
      <point x="117.0" y="96.0"/>
      <point x="117.0" y="137.0" type="curve" smooth="yes"/>
      <point x="117.0" y="220.0"/>
      <point x="180.0" y="246.0"/>
      <point x="284.0" y="246.0" type="curve" smooth="yes"/>
      <point x="317.0" y="246.0"/>
      <point x="348.0" y="242.0"/>
      <point x="371.0" y="237.0" type="curve"/>
      <point x="371.0" y="123.0"/>
      <point x="314.0" y="58.0"/>
    </contour>
  </outline>
</glyph>
<glyph name="ae" format="2">
  <advance width="890"/>
  <unicode hex="00E6"/>
  <anchor x="445" y="500" name="top"/>
  <outline>
    <contour>
      <point x="628" y="-10" type="curve" smooth="yes"/>
      <point x="728" y="-10"/>
      <point x="802" y="42"/>
      <point x="842" y="107" type="curve"/>
      <point x="785" y="154" type="line"/>
      <point x="754" y="92"/>
      <point x="699" y="54"/>
      <point x="628" y="54" type="curve" smooth="yes"/>
      <point x="509" y="54"/>
      <point x="447" y="143"/>
      <point x="445" y="247" type="curve"/>
      <point x="839" y="247" type="line"/>
      <point x="853" y="348"/>
      <point x="836" y="402"/>
      <point x="801" y="444" type="curve" smooth="yes"/>
      <point x="762" y="491"/>
      <point x="702" y="518"/>
      <point x="626" y="518" type="curve" smooth="yes"/>
      <point x="531" y="518"/>
      <point x="463" y="475"/>
      <point x="421" y="413" type="curve"/>
      <point x="391" y="473"/>
      <point x="327" y="509"/>
      <point x="254" y="509" type="curve" smooth="yes"/>
      <point x="165" y="509"/>
      <point x="109" y="464"/>
      <point x="84" y="436" type="curve"/>
      <point x="133" y="394" type="line"/>
      <point x="159" y="417"/>
      <point x="201" y="445"/>
      <point x="254" y="445" type="curve" smooth="yes"/>
      <point x="322" y="445"/>
      <point x="371" y="403"/>
      <point x="371" y="329" type="curve" smooth="yes"/>
      <point x="371" y="292" type="line"/>
      <point x="340" y="299"/>
      <point x="303" y="303"/>
      <point x="270" y="303" type="curve" smooth="yes"/>
      <point x="154" y="303"/>
      <point x="47" y="267"/>
      <point x="47" y="137" type="curve" smooth="yes"/>
      <point x="47" y="71"/>
      <point x="97" y="-6"/>
      <point x="208" y="-6" type="curve" smooth="yes"/>
      <point x="274" y="-6"/>
      <point x="337" y="14"/>
      <point x="380" y="62" type="curve" smooth="yes"/>
      <point x="394" y="78"/>
      <point x="404" y="93"/>
      <point x="412" y="109" type="curve"/>
      <point x="452" y="40"/>
      <point x="524" y="-10"/>
    </contour>
    <contour>
      <point x="208" y="58" type="curve" smooth="yes"/>
      <point x="145" y="58"/>
      <point x="117" y="96"/>
      <point x="117" y="137" type="curve" smooth="yes"/>
      <point x="117" y="220"/>
      <point x="180" y="246"/>
      <point x="284" y="246" type="curve" smooth="yes"/>
      <point x="317" y="246"/>
      <point x="348" y="242"/>
      <point x="371" y="237" type="curve"/>
      <point x="371" y="123"/>
      <point x="314" y="58"/>
    </contour>
    <contour>
      <point x="450" y="308" type="line"/>
      <point x="468" y="390"/>
      <point x="528" y="454"/>
      <point x="626" y="454" type="curve" smooth="yes"/>
      <point x="720" y="454"/>
      <point x="786" y="395"/>
      <point x="776" y="308" type="curve"/>
    </contour>
  </outline>
</glyph>
<glyph name="ccedilla" format="2">
  <advance width="515.0"/>
  <unicode hex="00E7"/>
  <note>
ccedilla
</note>
  <outline>
    <contour>
      <point x="496.0" y="76.0" type="curve"/>
      <point x="444.0" y="119.0" type="line"/>
      <point x="405.0" y="76.0"/>
      <point x="356.0" y="53.0"/>
      <point x="300.0" y="53.0" type="curve" smooth="yes"/>
      <point x="195.0" y="53.0"/>
      <point x="107.0" y="141.0"/>
      <point x="107.0" y="253.0" type="curve" smooth="yes"/>
      <point x="107.0" y="359.0"/>
      <point x="193.0" y="452.0"/>
      <point x="300.0" y="452.0" type="curve" smooth="yes"/>
      <point x="351.0" y="452.0"/>
      <point x="396.0" y="433.0"/>
      <point x="434.0" y="396.0" type="curve"/>
      <point x="482.0" y="442.0" type="line"/>
      <point x="435.0" y="488.0"/>
      <point x="371.0" y="516.0"/>
      <point x="300.0" y="516.0" type="curve" smooth="yes"/>
      <point x="151.0" y="516.0"/>
      <point x="37.0" y="392.0"/>
      <point x="37.0" y="253.0" type="curve" smooth="yes"/>
      <point x="37.0" y="107.0"/>
      <point x="155.0" y="-11.0"/>
      <point x="300.0" y="-11.0" type="curve" smooth="yes"/>
      <point x="378.0" y="-11.0"/>
      <point x="448.0" y="23.0"/>
    </contour>
    <contour>
      <point x="236.0" y="-188.0" type="line"/>
      <point x="326.0" y="-56.0" type="line"/>
      <point x="273.0" y="-20.0" type="line"/>
      <point x="183.0" y="-152.0" type="line"/>
    </contour>
  </outline>
</glyph>
<glyph name="ecircumflex" format="2">
  <advance width="553.0"/>
  <unicode hex="00EA"/>
  <note>
ecircumflex
</note>
  <outline>
    <contour>
      <point x="277.0" y="708.0" type="line"/>
      <point x="80.0" y="614.0" type="line"/>
      <point x="96.0" y="554.0" type="line"/>
      <point x="277.0" y="625.0" type="line"/>
      <point x="458.0" y="554.0" type="line"/>
      <point x="474.0" y="614.0" type="line"/>
    </contour>
    <contour>
      <point x="506.0" y="107.0" type="curve"/>
      <point x="448.0" y="154.0" type="line"/>
      <point x="417.0" y="92.0"/>
      <point x="363.0" y="54.0"/>
      <point x="291.0" y="54.0" type="curve" smooth="yes"/>
      <point x="173.0" y="54.0"/>
      <point x="111.0" y="143.0"/>
      <point x="108.0" y="247.0" type="curve"/>
      <point x="502.0" y="247.0" type="line"/>
      <point x="516.0" y="348.0"/>
      <point x="500.0" y="402.0"/>
      <point x="465.0" y="444.0" type="curve" smooth="yes"/>
      <point x="425.0" y="491.0"/>
      <point x="366.0" y="518.0"/>
      <point x="290.0" y="518.0" type="curve" smooth="yes"/>
      <point x="123.0" y="518.0"/>
      <point x="38.0" y="386.0"/>
      <point x="38.0" y="254.0" type="curve" smooth="yes"/>
      <point x="38.0" y="122.0"/>
      <point x="122.0" y="-10.0"/>
      <point x="291.0" y="-10.0" type="curve" smooth="yes"/>
      <point x="392.0" y="-10.0"/>
      <point x="466.0" y="42.0"/>
    </contour>
    <contour>
      <point x="439.0" y="308.0" type="curve"/>
      <point x="114.0" y="308.0" type="line"/>
      <point x="132.0" y="390.0"/>
      <point x="192.0" y="454.0"/>
      <point x="290.0" y="454.0" type="curve" smooth="yes"/>
      <point x="384.0" y="454.0"/>
      <point x="449.0" y="395.0"/>
    </contour>
  </outline>
</glyph>
<glyph name="igrave" format="2">
  <advance width="176.0"/>
  <unicode hex="00EC"/>
  <note>
igrave
</note>
  <outline>
    <contour>
      <point x="187.0" y="554.0" type="line"/>
      <point x="203.0" y="614.0" type="line"/>
      <point x="6.0" y="708.0" type="line"/>
      <point x="-16.0" y="634.0" type="line"/>
    </contour>
    <contour>
      <point x="120.0" y="502.0" type="line"/>
      <point x="56.0" y="502.0" type="line"/>
      <point x="56.0" y="0.0" type="line"/>
      <point x="120.0" y="0.0" type="line"/>
    </contour>
  </outline>
</glyph>
<glyph name="iacute" format="2">
  <advance width="176.0"/>
  <unicode hex="00ED"/>
  <note>
iacute
</note>
  <outline>
    <contour>
      <point x="4.0" y="554.0" type="line"/>
      <point x="207.0" y="634.0" type="line"/>
      <point x="185.0" y="708.0" type="line"/>
      <point x="-12.0" y="614.0" type="line"/>
    </contour>
    <contour>
      <point x="120.0" y="502.0" type="line"/>
      <point x="56.0" y="502.0" type="line"/>
      <point x="56.0" y="0.0" type="line"/>
      <point x="120.0" y="0.0" type="line"/>
    </contour>
  </outline>
</glyph>
<glyph name="eth" format="2">
  <advance width="600.0"/>
  <unicode hex="00F0"/>
  <note>
eth
</note>
  <outline>
    <contour>
      <point x="320.0" y="658.0" type="curve"/>
      <point x="395.0" y="744.0" type="line"/>
      <point x="342.0" y="786.0" type="line"/>
      <point x="264.0" y="696.0" type="line"/>
      <point x="213.0" y="723.0"/>
      <point x="155.0" y="738.0"/>
      <point x="90.0" y="738.0" type="curve"/>
      <point x="90.0" y="674.0" type="line"/>
      <point x="137.0" y="674.0"/>
      <point x="180.0" y="664.0"/>
      <point x="219.0" y="644.0" type="curve"/>
      <point x="179.0" y="598.0" type="line"/>
      <point x="232.0" y="556.0" type="line"/>
      <point x="276.0" y="607.0" type="line"/>
      <point x="326.0" y="566.0"/>
      <point x="364.0" y="508.0"/>
      <point x="390.0" y="439.0" type="curve"/>
      <point x="361.0" y="457.0"/>
      <point x="329.0" y="467.0"/>
      <point x="294.0" y="467.0" type="curve" smooth="yes"/>
      <point x="239.0" y="467.0"/>
      <point x="190.0" y="442.0"/>
      <point x="154.0" y="401.0" type="curve" smooth="yes"/>
      <point x="116.0" y="357.0"/>
      <point x="93.0" y="296.0"/>
      <point x="93.0" y="229.0" type="curve" smooth="yes"/>
      <point x="93.0" y="98.0"/>
      <point x="183.0" y="-9.0"/>
      <point x="294.0" y="-9.0" type="curve" smooth="yes"/>
      <point x="350.0" y="-9.0"/>
      <point x="402.0" y="19.0"/>
      <point x="438.0" y="63.0" type="curve" smooth="yes"/>
      <point x="473.0" y="106.0"/>
      <point x="495.0" y="165.0"/>
      <point x="495.0" y="229.0" type="curve" smooth="yes"/>
      <point x="495.0" y="407.0"/>
      <point x="432.0" y="567.0"/>
    </contour>
    <contour>
      <point x="384.0" y="104.0" type="curve" smooth="yes"/>
      <point x="357.0" y="70.0"/>
      <point x="327.0" y="55.0"/>
      <point x="294.0" y="55.0" type="curve" smooth="yes"/>
      <point x="227.0" y="55.0"/>
      <point x="163.0" y="129.0"/>
      <point x="163.0" y="229.0" type="curve" smooth="yes"/>
      <point x="163.0" y="282.0"/>
      <point x="181.0" y="329.0"/>
      <point x="207.0" y="358.0" type="curve" smooth="yes"/>
      <point x="234.0" y="389.0"/>
      <point x="262.0" y="403.0"/>
      <point x="294.0" y="403.0" type="curve" smooth="yes"/>
      <point x="361.0" y="403.0"/>
      <point x="425.0" y="329.0"/>
      <point x="425.0" y="229.0" type="curve" smooth="yes"/>
      <point x="425.0" y="177.0"/>
      <point x="409.0" y="135.0"/>
    </contour>
  </outline>
</glyph>
<glyph name="odieresis" format="2">
  <advance width="591.0"/>
  <unicode hex="00F6"/>
  <note>
odieresis
</note>
  <outline>
    <contour>
      <point x="111.0" y="607.0" type="curve" smooth="yes"/>
      <point x="111.0" y="632.0"/>
      <point x="133.0" y="654.0"/>
      <point x="158.0" y="654.0" type="curve" smooth="yes"/>
      <point x="183.0" y="654.0"/>
      <point x="204.0" y="632.0"/>
      <point x="204.0" y="607.0" type="curve" smooth="yes"/>
      <point x="204.0" y="582.0"/>
      <point x="183.0" y="561.0"/>
      <point x="158.0" y="561.0" type="curve" smooth="yes"/>
      <point x="133.0" y="561.0"/>
      <point x="111.0" y="582.0"/>
    </contour>
    <contour>
      <point x="391.0" y="607.0" type="curve" smooth="yes"/>
      <point x="391.0" y="632.0"/>
      <point x="412.0" y="654.0"/>
      <point x="437.0" y="654.0" type="curve" smooth="yes"/>
      <point x="462.0" y="654.0"/>
      <point x="484.0" y="632.0"/>
      <point x="484.0" y="607.0" type="curve" smooth="yes"/>
      <point x="484.0" y="582.0"/>
      <point x="462.0" y="561.0"/>
      <point x="437.0" y="561.0" type="curve" smooth="yes"/>
      <point x="412.0" y="561.0"/>
      <point x="391.0" y="582.0"/>
    </contour>
    <contour>
      <point x="553.0" y="259.0" type="curve" smooth="yes"/>
      <point x="553.0" y="402.0"/>
      <point x="437.0" y="518.0"/>
      <point x="295.0" y="518.0" type="curve" smooth="yes"/>
      <point x="154.0" y="518.0"/>
      <point x="37.0" y="402.0"/>
      <point x="37.0" y="259.0" type="curve" smooth="yes"/>
      <point x="37.0" y="116.0"/>
      <point x="153.0" y="0.0"/>
      <point x="295.0" y="0.0" type="curve" smooth="yes"/>
      <point x="438.0" y="0.0"/>
      <point x="553.0" y="117.0"/>
    </contour>
    <contour>
      <point x="483.0" y="259.0" type="curve" smooth="yes"/>
      <point x="483.0" y="151.0"/>
      <point x="397.0" y="64.0"/>
      <point x="295.0" y="64.0" type="curve" smooth="yes"/>
      <point x="193.0" y="64.0"/>
      <point x="107.0" y="150.0"/>
      <point x="107.0" y="259.0" type="curve" smooth="yes"/>
      <point x="107.0" y="368.0"/>
      <point x="194.0" y="454.0"/>
      <point x="295.0" y="454.0" type="curve" smooth="yes"/>
      <point x="397.0" y="454.0"/>
      <point x="483.0" y="368.0"/>
    </contour>
  </outline>
</glyph>
<glyph name="divide" format="2">
  <advance width="600.0"/>
  <unicode hex="00F7"/>
  <note>
divide
</note>
  <outline>
    <contour>
      <point x="300.0" y="458.0" type="curve" smooth="yes"/>
      <point x="335.0" y="458.0"/>
      <point x="363.0" y="486.0"/>
      <point x="363.0" y="520.0" type="curve" smooth="yes"/>
      <point x="363.0" y="555.0"/>
      <point x="335.0" y="583.0"/>
      <point x="300.0" y="583.0" type="curve" smooth="yes"/>
      <point x="265.0" y="583.0"/>
      <point x="237.0" y="555.0"/>
      <point x="237.0" y="520.0" type="curve" smooth="yes"/>
      <point x="237.0" y="486.0"/>
      <point x="265.0" y="458.0"/>
    </contour>
    <contour>
      <point x="36.0" y="275.0" type="line"/>
      <point x="575.0" y="275.0" type="line"/>
      <point x="575.0" y="339.0" type="line"/>
      <point x="36.0" y="339.0" type="line"/>
    </contour>
    <contour>
      <point x="300.0" y="0.0" type="curve" smooth="yes"/>
      <point x="335.0" y="0.0"/>
      <point x="363.0" y="28.0"/>
      <point x="363.0" y="63.0" type="curve" smooth="yes"/>
      <point x="363.0" y="97.0"/>
      <point x="335.0" y="125.0"/>
      <point x="300.0" y="125.0" type="curve" smooth="yes"/>
      <point x="265.0" y="125.0"/>
      <point x="237.0" y="97.0"/>
      <point x="237.0" y="63.0" type="curve" smooth="yes"/>
      <point x="237.0" y="28.0"/>
      <point x="265.0" y="0.0"/>
    </contour>
  </outline>
</glyph>
<glyph name="oslash" format="2">
  <advance width="591"/>
  <unicode hex="00F8"/>
  <outline>
    <contour>
      <point x="207" y="-125" type="line"/>
      <point x="454" y="624" type="line"/>
      <point x="394" y="640" type="line"/>
      <point x="147" y="-109" type="line"/>
    </contour>
    <contour>
      <point x="295" y="0" type="curve" smooth="yes"/>
      <point x="438" y="0"/>
      <point x="553" y="117"/>
      <point x="553" y="259" type="curve" smooth="yes"/>
      <point x="553" y="402"/>
      <point x="437" y="518"/>
      <point x="295" y="518" type="curve" smooth="yes"/>
      <point x="154" y="518"/>
      <point x="37" y="402"/>
      <point x="37" y="259" type="curve" smooth="yes"/>
      <point x="37" y="116"/>
      <point x="153" y="0"/>
    </contour>
    <contour>
      <point x="295" y="64" type="curve" smooth="yes"/>
      <point x="193" y="64"/>
      <point x="107" y="150"/>
      <point x="107" y="259" type="curve" smooth="yes"/>
      <point x="107" y="368"/>
      <point x="194" y="454"/>
      <point x="295" y="454" type="curve" smooth="yes"/>
      <point x="397" y="454"/>
      <point x="483" y="368"/>
      <point x="483" y="259" type="curve" smooth="yes"/>
      <point x="483" y="151"/>
      <point x="397" y="64"/>
    </contour>
  </outline>
</glyph>
<glyph name="udieresis" format="2">
  <advance width="568.0"/>
  <unicode hex="00FC"/>
  <note>
udieresis
</note>
  <outline>
    <contour>
      <point x="145.0" y="562.0" type="curve" smooth="yes"/>
      <point x="170.0" y="562.0"/>
      <point x="192.0" y="584.0"/>
      <point x="192.0" y="609.0" type="curve" smooth="yes"/>
      <point x="192.0" y="634.0"/>
      <point x="170.0" y="655.0"/>
      <point x="145.0" y="655.0" type="curve" smooth="yes"/>
      <point x="120.0" y="655.0"/>
      <point x="99.0" y="634.0"/>
      <point x="99.0" y="609.0" type="curve" smooth="yes"/>
      <point x="99.0" y="584.0"/>
      <point x="120.0" y="562.0"/>
    </contour>
    <contour>
      <point x="425.0" y="562.0" type="curve" smooth="yes"/>
      <point x="450.0" y="562.0"/>
      <point x="471.0" y="584.0"/>
      <point x="471.0" y="609.0" type="curve" smooth="yes"/>
      <point x="471.0" y="634.0"/>
      <point x="450.0" y="655.0"/>
      <point x="425.0" y="655.0" type="curve" smooth="yes"/>
      <point x="400.0" y="655.0"/>
      <point x="378.0" y="634.0"/>
      <point x="378.0" y="609.0" type="curve" smooth="yes"/>
      <point x="378.0" y="584.0"/>
      <point x="400.0" y="562.0"/>
    </contour>
    <contour>
      <point x="422.0" y="63.0" type="curve"/>
      <point x="422.0" y="0.0" type="line"/>
      <point x="492.0" y="0.0" type="line"/>
      <point x="492.0" y="507.0" type="line"/>
      <point x="422.0" y="507.0" type="line"/>
      <point x="422.0" y="182.0" type="line"/>
      <point x="412.0" y="124.0"/>
      <point x="361.0" y="58.0"/>
      <point x="281.0" y="58.0" type="curve" smooth="yes"/>
      <point x="194.0" y="58.0"/>
      <point x="136.0" y="114.0"/>
      <point x="136.0" y="224.0" type="curve" smooth="yes"/>
      <point x="136.0" y="507.0" type="line"/>
      <point x="66.0" y="507.0" type="line"/>
      <point x="66.0" y="224.0" type="line" smooth="yes"/>
      <point x="66.0" y="82.0"/>
      <point x="155.0" y="-6.0"/>
      <point x="281.0" y="-6.0" type="curve" smooth="yes"/>
      <point x="337.0" y="-6.0"/>
      <point x="386.0" y="20.0"/>
    </contour>
  </outline>
</glyph>
<glyph name="thorn" format="2">
  <advance width="566"/>
  <unicode hex="00FE"/>
  <outline>
    <contour>
      <point x="50" y="-200" type="line"/>
      <point x="120" y="-200" type="line"/>
      <point x="120" y="71" type="line"/>
      <point x="159" y="15"/>
      <point x="214" y="-6"/>
      <point x="282" y="-6" type="curve" smooth="yes"/>
      <point x="423" y="-6"/>
      <point x="531" y="104"/>
      <point x="531" y="250" type="curve" smooth="yes"/>
      <point x="531" y="395"/>
      <point x="417" y="506"/>
      <point x="276" y="506" type="curve" smooth="yes"/>
      <point x="206" y="506"/>
      <point x="155" y="480"/>
      <point x="120" y="429" type="curve"/>
      <point x="120" y="700" type="line"/>
      <point x="50" y="700" type="line"/>
    </contour>
    <contour>
      <point x="282" y="58" type="curve" smooth="yes"/>
      <point x="198" y="58"/>
      <point x="141" y="106"/>
      <point x="120" y="157" type="curve"/>
      <point x="120" y="345" type="line"/>
      <point x="138" y="392"/>
      <point x="189" y="442"/>
      <point x="276" y="442" type="curve" smooth="yes"/>
      <point x="376" y="442"/>
      <point x="461" y="362"/>
      <point x="461" y="250" type="curve" smooth="yes"/>
      <point x="461" y="137"/>
      <point x="381" y="58"/>
    </contour>
  </outline>
</glyph>
<glyph name="ydieresis" format="2">
  <advance width="593.0"/>
  <unicode hex="00FF"/>
  <note>
ydieresis
</note>
  <outline>
    <contour>
      <point x="112.0" y="609.0" type="curve" smooth="yes"/>
      <point x="112.0" y="634.0"/>
      <point x="133.0" y="655.0"/>
      <point x="158.0" y="655.0" type="curve" smooth="yes"/>
      <point x="183.0" y="655.0"/>
      <point x="205.0" y="634.0"/>
      <point x="205.0" y="609.0" type="curve" smooth="yes"/>
      <point x="205.0" y="584.0"/>
      <point x="183.0" y="562.0"/>
      <point x="158.0" y="562.0" type="curve" smooth="yes"/>
      <point x="133.0" y="562.0"/>
      <point x="112.0" y="584.0"/>
    </contour>
    <contour>
      <point x="391.0" y="609.0" type="curve" smooth="yes"/>
      <point x="391.0" y="634.0"/>
      <point x="413.0" y="655.0"/>
      <point x="438.0" y="655.0" type="curve" smooth="yes"/>
      <point x="463.0" y="655.0"/>
      <point x="484.0" y="634.0"/>
      <point x="484.0" y="609.0" type="curve" smooth="yes"/>
      <point x="484.0" y="584.0"/>
      <point x="463.0" y="562.0"/>
      <point x="438.0" y="562.0" type="curve" smooth="yes"/>
      <point x="413.0" y="562.0"/>
      <point x="391.0" y="584.0"/>
    </contour>
    <contour>
      <point x="90.0" y="500.0" type="line"/>
      <point x="9.0" y="500.0" type="line"/>
      <point x="260.0" y="75.0" type="line"/>
      <point x="99.0" y="-200.0" type="line"/>
      <point x="179.0" y="-200.0" type="line"/>
      <point x="588.0" y="500.0" type="line"/>
      <point x="509.0" y="500.0" type="line"/>
      <point x="300.0" y="143.0" type="line"/>
    </contour>
  </outline>
</glyph>
<glyph name="dotlessi" format="2">
  <advance width="193"/>
  <unicode hex="0131"/>
  <anchor x="96" y="0" name="bottom"/>
  <anchor x="96" y="500" name="top"/>
  <outline>
    <contour>
      <point x="62" y="0" type="line"/>
      <point x="132" y="0" type="line"/>
      <point x="132" y="500" type="line"/>
      <point x="62" y="500" type="line"/>
    </contour>
  </outline>
</glyph>
<glyph name="kgreenlandic" format="2">
  <advance width="498"/>
  <unicode hex="0138"/>
  <anchor x="249" y="0" name="bottom"/>
  <anchor x="249" y="500" name="top"/>
  <outline>
    <contour>
      <point x="75" y="0" type="line"/>
      <point x="145" y="0" type="line"/>
      <point x="145" y="297" type="line"/>
      <point x="124" y="219" type="line"/>
      <point x="213" y="290" type="line"/>
      <point x="394" y="0" type="line"/>
      <point x="472" y="0" type="line"/>
      <point x="249" y="358" type="line"/>
      <point x="232" y="305" type="line"/>
      <point x="482" y="500" type="line"/>
      <point x="370" y="500" type="line"/>
      <point x="131" y="314" type="line"/>
      <point x="145" y="301" type="line"/>
      <point x="145" y="500" type="line"/>
      <point x="75" y="500" type="line"/>
    </contour>
  </outline>
</glyph>
<glyph name="Lslash" format="2">
  <advance width="489"/>
  <unicode hex="0141"/>
  <anchor x="279" y="0" name="bottom"/>
  <anchor x="249" y="700" name="top"/>
  <outline>
    <contour>
      <point x="19" y="299" type="line"/>
      <point x="344" y="442" type="line"/>
      <point x="344" y="513" type="line"/>
      <point x="19" y="369" type="line"/>
    </contour>
    <component base="L"/>
  </outline>
</glyph>
<glyph name="lslash" format="2">
  <advance width="355.0"/>
  <unicode hex="0142"/>
  <note>
lslash
</note>
  <outline>
    <contour>
      <point x="136.0" y="320.0" type="line"/>
      <point x="136.0" y="0.0" type="line"/>
      <point x="206.0" y="0.0" type="line"/>
      <point x="206.0" y="351.0" type="line"/>
      <point x="325.0" y="405.0" type="line"/>
      <point x="296.0" y="464.0" type="line"/>
      <point x="206.0" y="423.0" type="line"/>
      <point x="206.0" y="700.0" type="line"/>
      <point x="136.0" y="700.0" type="line"/>
      <point x="136.0" y="391.0" type="line"/>
      <point x="33.0" y="344.0" type="line"/>
      <point x="62.0" y="286.0" type="line"/>
    </contour>
  </outline>
</glyph>
<glyph name="Eng" format="2">
  <advance width="679"/>
  <unicode hex="014A"/>
  <anchor x="344" y="0" name="bottom"/>
  <anchor x="344" y="700" name="top"/>
  <outline>
    <contour>
      <point x="604" y="0" type="line"/>
      <point x="539" y="0" type="line"/>
      <point x="539" y="-96" type="line" smooth="yes"/>
      <point x="539" y="-130"/>
      <point x="525" y="-140"/>
      <point x="509" y="-140" type="curve" smooth="yes"/>
      <point x="484" y="-140"/>
      <point x="454" y="-130"/>
      <point x="428" y="-108" type="curve"/>
      <point x="428" y="-169" type="line"/>
      <point x="442" y="-183"/>
      <point x="471" y="-203"/>
      <point x="514" y="-203" type="curve" smooth="yes"/>
      <point x="579" y="-203"/>
      <point x="604" y="-149"/>
      <point x="604" y="-85" type="curve" smooth="yes"/>
    </contour>
    <component base="N"/>
  </outline>
</glyph>
<glyph name="eng" format="2">
  <advance width="516"/>
  <unicode hex="014B"/>
  <anchor x="258" y="0" name="bottom"/>
  <anchor x="258" y="500" name="top"/>
  <outline>
    <contour>
      <point x="476" y="0" type="line"/>
      <point x="406" y="0" type="line"/>
      <point x="406" y="-96" type="line" smooth="yes"/>
      <point x="406" y="-130"/>
      <point x="392" y="-140"/>
      <point x="376" y="-140" type="curve" smooth="yes"/>
      <point x="351" y="-140"/>
      <point x="326" y="-130"/>
      <point x="300" y="-108" type="curve"/>
      <point x="300" y="-169" type="line"/>
      <point x="314" y="-183"/>
      <point x="343" y="-203"/>
      <point x="386" y="-203" type="curve" smooth="yes"/>
      <point x="451" y="-203"/>
      <point x="476" y="-149"/>
      <point x="476" y="-85" type="curve" smooth="yes"/>
    </contour>
    <component base="n"/>
  </outline>
</glyph>
<glyph name="OE" format="2">
  <advance width="1065.0"/>
  <unicode hex="0152"/>
  <note>
OE
</note>
  <outline>
    <contour>
      <point x="581.0" y="58.0" type="curve"/>
      <point x="581.0" y="0.0" type="line"/>
      <point x="1034.0" y="0.0" type="line"/>
      <point x="1034.0" y="64.0" type="line"/>
      <point x="651.0" y="64.0" type="line"/>
      <point x="651.0" y="322.0" type="line"/>
      <point x="959.0" y="322.0" type="line"/>
      <point x="959.0" y="386.0" type="line"/>
      <point x="651.0" y="386.0" type="line"/>
      <point x="651.0" y="636.0" type="line"/>
      <point x="1033.0" y="636.0" type="line"/>
      <point x="1033.0" y="700.0" type="line"/>
      <point x="581.0" y="700.0" type="line"/>
      <point x="581.0" y="644.0" type="line"/>
      <point x="525.0" y="681.0"/>
      <point x="459.0" y="702.0"/>
      <point x="387.0" y="702.0" type="curve" smooth="yes"/>
      <point x="190.0" y="702.0"/>
      <point x="36.0" y="542.0"/>
      <point x="36.0" y="351.0" type="curve" smooth="yes"/>
      <point x="36.0" y="157.0"/>
      <point x="193.0" y="0.0"/>
      <point x="387.0" y="0.0" type="curve" smooth="yes"/>
      <point x="454.0" y="0.0"/>
      <point x="522.0" y="20.0"/>
    </contour>
    <contour>
      <point x="581.0" y="559.0" type="curve"/>
      <point x="581.0" y="142.0" type="line"/>
      <point x="527.0" y="91.0"/>
      <point x="456.0" y="64.0"/>
      <point x="387.0" y="64.0" type="curve" smooth="yes"/>
      <point x="234.0" y="64.0"/>
      <point x="106.0" y="192.0"/>
      <point x="106.0" y="351.0" type="curve" smooth="yes"/>
      <point x="106.0" y="509.0"/>
      <point x="231.0" y="638.0"/>
      <point x="387.0" y="638.0" type="curve" smooth="yes"/>
      <point x="462.0" y="638.0"/>
      <point x="530.0" y="608.0"/>
    </contour>
  </outline>
</glyph>
<glyph name="oe" format="2">
  <advance width="1001.0"/>
  <unicode hex="0153"/>
  <note>
oe
</note>
  <outline>
    <contour>
      <point x="556.0" y="247.0" type="curve"/>
      <point x="950.0" y="247.0" type="line"/>
      <point x="964.0" y="348.0"/>
      <point x="948.0" y="402.0"/>
      <point x="913.0" y="444.0" type="curve" smooth="yes"/>
      <point x="873.0" y="491.0"/>
      <point x="813.0" y="518.0"/>
      <point x="738.0" y="518.0" type="curve" smooth="yes"/>
      <point x="630.0" y="518.0"/>
      <point x="557.0" y="463.0"/>
      <point x="518.0" y="389.0" type="curve"/>
      <point x="474.0" y="466.0"/>
      <point x="390.0" y="518.0"/>
      <point x="295.0" y="518.0" type="curve" smooth="yes"/>
      <point x="154.0" y="518.0"/>
      <point x="37.0" y="402.0"/>
      <point x="37.0" y="259.0" type="curve" smooth="yes"/>
      <point x="37.0" y="116.0"/>
      <point x="153.0" y="0.0"/>
      <point x="295.0" y="0.0" type="curve" smooth="yes"/>
      <point x="389.0" y="0.0"/>
      <point x="470.0" y="50.0"/>
      <point x="515.0" y="124.0" type="curve"/>
      <point x="553.0" y="47.0"/>
      <point x="628.0" y="-10.0"/>
      <point x="739.0" y="-10.0" type="curve" smooth="yes"/>
      <point x="840.0" y="-10.0"/>
      <point x="914.0" y="42.0"/>
      <point x="954.0" y="107.0" type="curve"/>
      <point x="896.0" y="154.0" type="line"/>
      <point x="865.0" y="92.0"/>
      <point x="811.0" y="54.0"/>
      <point x="739.0" y="54.0" type="curve" smooth="yes"/>
      <point x="621.0" y="54.0"/>
      <point x="559.0" y="143.0"/>
    </contour>
    <contour>
      <point x="295.0" y="64.0" type="curve" smooth="yes"/>
      <point x="193.0" y="64.0"/>
      <point x="107.0" y="150.0"/>
      <point x="107.0" y="259.0" type="curve" smooth="yes"/>
      <point x="107.0" y="368.0"/>
      <point x="194.0" y="454.0"/>
      <point x="295.0" y="454.0" type="curve" smooth="yes"/>
      <point x="397.0" y="454.0"/>
      <point x="483.0" y="368.0"/>
      <point x="483.0" y="259.0" type="curve" smooth="yes"/>
      <point x="483.0" y="151.0"/>
      <point x="397.0" y="64.0"/>
    </contour>
    <contour>
      <point x="887.0" y="308.0" type="curve"/>
      <point x="562.0" y="308.0" type="line"/>
      <point x="580.0" y="390.0"/>
      <point x="640.0" y="454.0"/>
      <point x="738.0" y="454.0" type="curve" smooth="yes"/>
      <point x="832.0" y="454.0"/>
      <point x="897.0" y="395.0"/>
    </contour>
  </outline>
</glyph>
<glyph name="Zcaron" format="2">
  <advance width="626.0"/>
  <unicode hex="017D"/>
  <note>
Zcaron
</note>
  <outline>
    <contour>
      <point x="346.0" y="843.0" type="line"/>
      <point x="165.0" y="913.0" type="line"/>
      <point x="149.0" y="853.0" type="line"/>
      <point x="346.0" y="759.0" type="line"/>
      <point x="543.0" y="853.0" type="line"/>
      <point x="527.0" y="913.0" type="line"/>
    </contour>
    <contour>
      <point x="482.0" y="636.0" type="line"/>
      <point x="20.0" y="0.0" type="line"/>
      <point x="603.0" y="0.0" type="line"/>
      <point x="603.0" y="64.0" type="line"/>
      <point x="150.0" y="64.0" type="line"/>
      <point x="611.0" y="700.0" type="line"/>
      <point x="82.0" y="700.0" type="line"/>
      <point x="82.0" y="636.0" type="line"/>
    </contour>
  </outline>
</glyph>
<glyph name="zcaron" format="2">
  <advance width="539.0"/>
  <unicode hex="017E"/>
  <note>
zcaron
</note>
  <outline>
    <contour>
      <point x="283.0" y="638.0" type="line"/>
      <point x="102.0" y="708.0" type="line"/>
      <point x="86.0" y="648.0" type="line"/>
      <point x="283.0" y="554.0" type="line"/>
      <point x="480.0" y="648.0" type="line"/>
      <point x="464.0" y="708.0" type="line"/>
    </contour>
    <contour>
      <point x="62.0" y="52.0" type="line"/>
      <point x="62.0" y="0.0" type="line"/>
      <point x="481.0" y="0.0" type="line"/>
      <point x="481.0" y="64.0" type="line"/>
      <point x="159.0" y="64.0" type="line"/>
      <point x="481.0" y="454.0" type="line"/>
      <point x="481.0" y="500.0" type="line"/>
      <point x="67.0" y="500.0" type="line"/>
      <point x="67.0" y="436.0" type="line"/>
      <point x="386.0" y="436.0" type="line"/>
    </contour>
  </outline>
</glyph>
<glyph name="florin" format="2">
  <advance width="600"/>
  <unicode hex="0192"/>
  <outline>
    <contour>
      <point x="57" y="-90" type="line"/>
      <point x="129" y="-90" type="line"/>
      <point x="272" y="465" type="line"/>
      <point x="428" y="465" type="line"/>
      <point x="446" y="529" type="line"/>
      <point x="288" y="529" type="line"/>
      <point x="317" y="640" type="line" smooth="yes"/>
      <point x="331" y="692"/>
      <point x="367" y="712"/>
      <point x="401" y="712" type="curve" smooth="yes"/>
      <point x="442" y="712"/>
      <point x="479" y="698"/>
      <point x="500" y="684" type="curve"/>
      <point x="517" y="742" type="line"/>
      <point x="492" y="758"/>
      <point x="456" y="776"/>
      <point x="401" y="776" type="curve" smooth="yes"/>
      <point x="342" y="776"/>
      <point x="271" y="739"/>
      <point x="250" y="657" type="curve" smooth="yes"/>
      <point x="216" y="529" type="line"/>
      <point x="95" y="529" type="line"/>
      <point x="77" y="465" type="line"/>
      <point x="200" y="465" type="line"/>
    </contour>
  </outline>
</glyph>
<glyph name="Nhookleft" format="2">
  <advance width="679"/>
  <unicode hex="019D"/>
  <anchor x="344" y="0" name="bottom"/>
  <anchor x="344" y="700" name="top"/>
  <outline>
    <contour>
      <point x="145" y="0" type="line"/>
      <point x="75" y="0" type="line"/>
      <point x="75" y="-96" type="line" smooth="yes"/>
      <point x="75" y="-130"/>
      <point x="61" y="-140"/>
      <point x="45" y="-140" type="curve" smooth="yes"/>
      <point x="20" y="-140"/>
      <point x="-5" y="-130"/>
      <point x="-31" y="-108" type="curve"/>
      <point x="-31" y="-169" type="line"/>
      <point x="-17" y="-183"/>
      <point x="12" y="-203"/>
      <point x="55" y="-203" type="curve" smooth="yes"/>
      <point x="120" y="-203"/>
      <point x="145" y="-149"/>
      <point x="145" y="-85" type="curve" smooth="yes"/>
    </contour>
    <component base="N"/>
  </outline>
</glyph>
<glyph name="jdotless" format="2">
  <advance width="182"/>
  <unicode hex="0237"/>
  <anchor x="97" y="500" name="top"/>
  <outline>
    <contour>
      <point x="-74" y="-204" type="line"/>
      <point x="34" y="-204"/>
      <point x="132" y="-136"/>
      <point x="132" y="-9" type="curve" smooth="yes"/>
      <point x="132" y="500" type="line"/>
      <point x="62" y="500" type="line"/>
      <point x="62" y="-9" type="line" smooth="yes"/>
      <point x="62" y="-95"/>
      <point x="-1" y="-140"/>
      <point x="-74" y="-140" type="curve"/>
    </contour>
  </outline>
</glyph>
